999
DXF from OpenSCAD
  0
SECTION
  2
HEADER
  9
$ACADVER
  1
AC1006
  9
$INSBASE
 10
0.0
 20
0.0
 30
0.0
  9
$EXTMIN
 10
-2.5332e-07
 20
7.45058e-07
  9
$EXTMAX
 10
39.0209
 20
49.8041
  9
$LINMIN
 10
-2.5332e-07
 20
7.45058e-07
  9
$LINMAX
 10
39.0209
 20
49.8041
  0
ENDSEC
  0
SECTION
  2
TABLES
  0
TABLE
  2
LTYPE
 70
1
  0
LTYPE
  2
CONTINUOUS
 70
64
  3
Solid line
 72
65
 73
0
 40
0.000000
  0
ENDTAB
  0
TABLE
  2
LAYER
 70
6
  0
LAYER
  2
0
 70
64
 62
7
  6
CONTINUOUS
  0
ENDTAB
  0
TABLE
  2
STYLE
 70
0
  0
ENDTAB
  0
ENDSEC
  0
SECTION
  2
BLOCKS
  0
ENDSEC
  0
SECTION
  2
ENTITIES
  0
LWPOLYLINE
100
AcDbEntity
  8
0
100
AcDbPolyline
 90
4805
 70
1
 10
18.8393
 20
6.26892e-05
 10
18.941
 20
0.000321545
 10
19.0429
 20
0.000776634
 10
19.1451
 20
0.00142731
 10
19.2475
 20
0.0022729
 10
19.3501
 20
0.00331275
 10
19.4528
 20
0.00454621
 10
19.5556
 20
0.00597261
 10
19.6585
 20
0.00759128
 10
19.7614
 20
0.00940158
 10
19.8642
 20
0.0114028
 10
19.9671
 20
0.0135944
 10
20.0698
 20
0.0159756
 10
20.1725
 20
0.0185458
 10
20.275
 20
0.0213043
 10
20.3773
 20
0.0242504
 10
20.4793
 20
0.0273836
 10
20.5812
 20
0.0307031
 10
20.6827
 20
0.0342083
 10
20.7839
 20
0.0378985
 10
20.8847
 20
0.0417731
 10
20.9852
 20
0.0458313
 10
21.0851
 20
0.0500726
 10
21.1847
 20
0.0544963
 10
21.2837
 20
0.0591017
 10
21.3822
 20
0.0638882
 10
21.4801
 20
0.068855
 10
21.5773
 20
0.0740017
 10
21.674
 20
0.0793273
 10
21.7699
 20
0.0848314
 10
21.8651
 20
0.0905133
 10
21.9596
 20
0.0963723
 10
22.0533
 20
0.102408
 10
22.1461
 20
0.108619
 10
22.2381
 20
0.115005
 10
22.3292
 20
0.121566
 10
22.4193
 20
0.1283
 10
22.5085
 20
0.135208
 10
22.5967
 20
0.142288
 10
22.6838
 20
0.14954
 10
22.7699
 20
0.156964
 10
22.8548
 20
0.164557
 10
22.9386
 20
0.172321
 10
23.0212
 20
0.180253
 10
23.1026
 20
0.188355
 10
23.1827
 20
0.196624
 10
23.2615
 20
0.20506
 10
23.339
 20
0.213663
 10
23.4152
 20
0.222431
 10
23.4899
 20
0.231365
 10
23.5633
 20
0.240464
 10
23.6351
 20
0.249726
 10
23.7054
 20
0.259152
 10
23.7742
 20
0.26874
 10
23.8415
 20
0.27849
 10
23.9071
 20
0.288401
 10
23.971
 20
0.298473
 10
24.0333
 20
0.308705
 10
24.0939
 20
0.319096
 10
24.1527
 20
0.329646
 10
24.3828
 20
0.372895
 10
24.6114
 20
0.417899
 10
24.8385
 20
0.464653
 10
25.064
 20
0.513151
 10
25.2881
 20
0.563388
 10
25.5106
 20
0.615359
 10
25.7315
 20
0.669058
 10
25.9509
 20
0.72448
 10
26.1688
 20
0.781619
 10
26.3851
 20
0.84047
 10
26.5998
 20
0.901027
 10
26.813
 20
0.963285
 10
27.0245
 20
1.02724
 10
27.2345
 20
1.09288
 10
27.4429
 20
1.16021
 10
27.6497
 20
1.22922
 10
27.8549
 20
1.2999
 10
28.0585
 20
1.37225
 10
28.2604
 20
1.44626
 10
28.4607
 20
1.52193
 10
28.6594
 20
1.59925
 10
28.8565
 20
1.67822
 10
29.0519
 20
1.75882
 10
29.2456
 20
1.84107
 10
29.4377
 20
1.92494
 10
29.6282
 20
2.01044
 10
29.8169
 20
2.09756
 10
30.004
 20
2.18629
 10
30.1894
 20
2.27663
 10
30.3731
 20
2.36858
 10
30.5551
 20
2.46212
 10
30.7354
 20
2.55725
 10
30.914
 20
2.65397
 10
31.0909
 20
2.75227
 10
31.2661
 20
2.85215
 10
31.4395
 20
2.95359
 10
31.6112
 20
3.05661
 10
31.7811
 20
3.16118
 10
31.9493
 20
3.2673
 10
32.1157
 20
3.37497
 10
32.2804
 20
3.48419
 10
32.4433
 20
3.59494
 10
32.6045
 20
3.70723
 10
32.7638
 20
3.82104
 10
32.9214
 20
3.93638
 10
33.0771
 20
4.05323
 10
33.2311
 20
4.17159
 10
33.3832
 20
4.29145
 10
33.5336
 20
4.41282
 10
33.6821
 20
4.53568
 10
33.8288
 20
4.66003
 10
33.9736
 20
4.78586
 10
34.1167
 20
4.91317
 10
34.2578
 20
5.04195
 10
34.3972
 20
5.17219
 10
34.5346
 20
5.3039
 10
34.6702
 20
5.43707
 10
34.8039
 20
5.57168
 10
34.9357
 20
5.70774
 10
35.0657
 20
5.84525
 10
35.1938
 20
5.98418
 10
35.3199
 20
6.12454
 10
35.4442
 20
6.26633
 10
35.5665
 20
6.40954
 10
35.6869
 20
6.55415
 10
35.8054
 20
6.70018
 10
35.922
 20
6.8476
 10
36.0366
 20
6.99642
 10
36.1493
 20
7.14664
 10
36.26
 20
7.29823
 10
36.3688
 20
7.45121
 10
36.4756
 20
7.60556
 10
36.5805
 20
7.76128
 10
36.6833
 20
7.91837
 10
36.7842
 20
8.07681
 10
36.8831
 20
8.2366
 10
36.98
 20
8.39775
 10
37.0749
 20
8.56023
 10
37.1677
 20
8.72405
 10
37.2586
 20
8.8892
 10
37.3474
 20
9.05568
 10
37.4343
 20
9.22347
 10
37.519
 20
9.39258
 10
37.6018
 20
9.563
 10
37.6825
 20
9.73473
 10
37.7611
 20
9.90775
 10
37.8377
 20
10.0821
 10
37.9122
 20
10.2577
 10
37.9846
 20
10.4345
 10
38.0549
 20
10.6127
 10
38.1232
 20
10.7921
 10
38.1893
 20
10.9728
 10
38.2534
 20
11.1548
 10
38.3154
 20
11.338
 10
38.3752
 20
11.5225
 10
38.4329
 20
11.7082
 10
38.4885
 20
11.8951
 10
38.542
 20
12.0833
 10
38.5933
 20
12.2727
 10
38.6425
 20
12.4633
 10
38.6577
 20
12.5249
 10
38.6726
 20
12.5875
 10
38.6872
 20
12.651
 10
38.7015
 20
12.7154
 10
38.7154
 20
12.7807
 10
38.7291
 20
12.847
 10
38.7424
 20
12.914
 10
38.7555
 20
12.982
 10
38.7682
 20
13.0507
 10
38.7806
 20
13.1203
 10
38.7927
 20
13.1906
 10
38.8044
 20
13.2618
 10
38.8159
 20
13.3336
 10
38.8271
 20
13.4062
 10
38.8379
 20
13.4796
 10
38.8484
 20
13.5536
 10
38.8586
 20
13.6283
 10
38.8686
 20
13.7036
 10
38.8781
 20
13.7796
 10
38.8874
 20
13.8562
 10
38.8964
 20
13.9334
 10
38.905
 20
14.0112
 10
38.9134
 20
14.0896
 10
38.9214
 20
14.1685
 10
38.9291
 20
14.2479
 10
38.9365
 20
14.3279
 10
38.9436
 20
14.4083
 10
38.9504
 20
14.4892
 10
38.9569
 20
14.5705
 10
38.963
 20
14.6523
 10
38.9689
 20
14.7345
 10
38.9744
 20
14.8171
 10
38.9797
 20
14.9001
 10
38.9846
 20
14.9834
 10
38.9892
 20
15.067
 10
38.9935
 20
15.151
 10
38.9974
 20
15.2353
 10
39.0011
 20
15.3199
 10
39.0045
 20
15.4047
 10
39.0075
 20
15.4898
 10
39.0102
 20
15.5751
 10
39.0127
 20
15.6606
 10
39.0148
 20
15.7463
 10
39.0166
 20
15.8321
 10
39.0181
 20
15.9181
 10
39.0193
 20
16.0043
 10
39.0201
 20
16.0905
 10
39.0207
 20
16.1769
 10
39.0209
 20
16.2633
 10
39.0209
 20
16.3498
 10
39.0205
 20
16.4363
 10
39.0198
 20
16.5228
 10
39.0188
 20
16.6094
 10
39.0175
 20
16.6959
 10
39.0159
 20
16.7823
 10
39.014
 20
16.8688
 10
39.0117
 20
16.9551
 10
39.0092
 20
17.0414
 10
39.0063
 20
17.1275
 10
39.0031
 20
17.2135
 10
38.9997
 20
17.2994
 10
38.9959
 20
17.3851
 10
38.9918
 20
17.4706
 10
38.9874
 20
17.5559
 10
38.9826
 20
17.6409
 10
38.9776
 20
17.7257
 10
38.9723
 20
17.8103
 10
38.9666
 20
17.8946
 10
38.9607
 20
17.9786
 10
38.9544
 20
18.0622
 10
38.9478
 20
18.1455
 10
38.9409
 20
18.2285
 10
38.9337
 20
18.3111
 10
38.9262
 20
18.3933
 10
38.9184
 20
18.475
 10
38.9103
 20
18.5564
 10
38.9018
 20
18.6373
 10
38.8931
 20
18.7177
 10
38.884
 20
18.7976
 10
38.8747
 20
18.8771
 10
38.865
 20
18.956
 10
38.855
 20
19.0343
 10
38.8447
 20
19.1121
 10
38.8341
 20
19.1893
 10
38.8232
 20
19.2659
 10
38.812
 20
19.3419
 10
38.8005
 20
19.4173
 10
38.7886
 20
19.4919
 10
38.7765
 20
19.566
 10
38.764
 20
19.6393
 10
38.7513
 20
19.7119
 10
38.7382
 20
19.7837
 10
38.7248
 20
19.8548
 10
38.7111
 20
19.9252
 10
38.6971
 20
19.9947
 10
38.6828
 20
20.0635
 10
38.6682
 20
20.1314
 10
38.6533
 20
20.1985
 10
38.6381
 20
20.2647
 10
38.6225
 20
20.33
 10
38.6135
 20
20.3666
 10
38.604
 20
20.4047
 10
38.5939
 20
20.4441
 10
38.5833
 20
20.4848
 10
38.5722
 20
20.5268
 10
38.5605
 20
20.57
 10
38.5484
 20
20.6145
 10
38.5357
 20
20.6601
 10
38.5226
 20
20.7069
 10
38.5091
 20
20.7548
 10
38.4951
 20
20.8038
 10
38.4806
 20
20.8538
 10
38.4658
 20
20.9048
 10
38.4505
 20
20.9568
 10
38.4348
 20
21.0097
 10
38.4187
 20
21.0635
 10
38.4023
 20
21.1182
 10
38.3855
 20
21.1736
 10
38.3683
 20
21.2299
 10
38.3509
 20
21.2869
 10
38.3331
 20
21.3446
 10
38.3149
 20
21.403
 10
38.2965
 20
21.4621
 10
38.2778
 20
21.5218
 10
38.2589
 20
21.582
 10
38.2396
 20
21.6428
 10
38.2201
 20
21.704
 10
38.2004
 20
21.7657
 10
38.1805
 20
21.8279
 10
38.1603
 20
21.8905
 10
38.1399
 20
21.9534
 10
38.1194
 20
22.0166
 10
38.0987
 20
22.0801
 10
38.0778
 20
22.1439
 10
38.0568
 20
22.2078
 10
38.0356
 20
22.272
 10
38.0143
 20
22.3363
 10
37.9929
 20
22.4007
 10
37.9714
 20
22.4652
 10
37.9498
 20
22.5297
 10
37.9281
 20
22.5942
 10
37.9064
 20
22.6587
 10
37.8846
 20
22.7231
 10
37.8628
 20
22.7873
 10
37.841
 20
22.8515
 10
37.8191
 20
22.9154
 10
37.7973
 20
22.9792
 10
37.7754
 20
23.0427
 10
37.7536
 20
23.1059
 10
37.7318
 20
23.1688
 10
37.7101
 20
23.2313
 10
37.6884
 20
23.2934
 10
37.6668
 20
23.3551
 10
37.6453
 20
23.4164
 10
37.6239
 20
23.4771
 10
37.6026
 20
23.5373
 10
37.5814
 20
23.5969
 10
37.5603
 20
23.6559
 10
37.5395
 20
23.7143
 10
37.5187
 20
23.772
 10
37.4982
 20
23.8289
 10
37.4778
 20
23.8851
 10
37.4576
 20
23.9406
 10
37.4376
 20
23.9952
 10
37.4179
 20
24.0489
 10
37.3984
 20
24.1017
 10
37.3791
 20
24.1536
 10
37.3601
 20
24.2046
 10
37.3414
 20
24.2545
 10
37.323
 20
24.3034
 10
37.3048
 20
24.3513
 10
37.287
 20
24.398
 10
37.2695
 20
24.4435
 10
37.2523
 20
24.4879
 10
37.2355
 20
24.5311
 10
37.219
 20
24.573
 10
37.2029
 20
24.6136
 10
37.1872
 20
24.6529
 10
37.1719
 20
24.6909
 10
37.157
 20
24.7274
 10
37.1425
 20
24.7625
 10
37.1284
 20
24.7961
 10
37.1148
 20
24.8283
 10
37.1017
 20
24.8589
 10
37.089
 20
24.8879
 10
37.0768
 20
24.9153
 10
37.0651
 20
24.941
 10
37.0539
 20
24.9651
 10
37.0433
 20
24.9875
 10
37.0331
 20
25.0081
 10
37.0236
 20
25.0269
 10
37.0145
 20
25.0439
 10
37.0061
 20
25.059
 10
36.9982
 20
25.0722
 10
36.9909
 20
25.0835
 10
36.9843
 20
25.0928
 10
36.9782
 20
25.1001
 10
36.9728
 20
25.1054
 10
36.968
 20
25.1086
 10
36.9639
 20
25.1096
 10
36.9639
 20
25.1096
 10
36.9639
 20
25.1096
 10
36.9639
 20
25.1096
 10
36.9639
 20
25.1096
 10
36.9639
 20
25.1096
 10
36.9639
 20
25.1096
 10
36.9639
 20
25.1096
 10
36.9639
 20
25.1096
 10
36.9639
 20
25.1096
 10
36.9639
 20
25.1096
 10
36.9635
 20
25.1093
 10
36.963
 20
25.1083
 10
36.9625
 20
25.1067
 10
36.9621
 20
25.1044
 10
36.9616
 20
25.1015
 10
36.9612
 20
25.098
 10
36.9608
 20
25.0939
 10
36.9603
 20
25.0891
 10
36.9599
 20
25.0837
 10
36.9594
 20
25.0777
 10
36.959
 20
25.0711
 10
36.9586
 20
25.0639
 10
36.9581
 20
25.0561
 10
36.9577
 20
25.0477
 10
36.9573
 20
25.0387
 10
36.9568
 20
25.0292
 10
36.9564
 20
25.019
 10
36.956
 20
25.0083
 10
36.9556
 20
24.9971
 10
36.9552
 20
24.9853
 10
36.9548
 20
24.9729
 10
36.9543
 20
24.96
 10
36.9539
 20
24.9465
 10
36.9535
 20
24.9325
 10
36.9531
 20
24.9179
 10
36.9527
 20
24.9029
 10
36.9523
 20
24.8873
 10
36.952
 20
24.8712
 10
36.9516
 20
24.8545
 10
36.9512
 20
24.8374
 10
36.9508
 20
24.8198
 10
36.9504
 20
24.8017
 10
36.9501
 20
24.783
 10
36.9497
 20
24.7639
 10
36.9493
 20
24.7443
 10
36.949
 20
24.7242
 10
36.9486
 20
24.7037
 10
36.9483
 20
24.6827
 10
36.9479
 20
24.6612
 10
36.9476
 20
24.6393
 10
36.9472
 20
24.6169
 10
36.9469
 20
24.5941
 10
36.9465
 20
24.5708
 10
36.9462
 20
24.5471
 10
36.9459
 20
24.523
 10
36.9456
 20
24.4984
 10
36.9452
 20
24.4734
 10
36.9449
 20
24.448
 10
36.9446
 20
24.4222
 10
36.9443
 20
24.396
 10
36.944
 20
24.3693
 10
36.9437
 20
24.3423
 10
36.9434
 20
24.3149
 10
36.9431
 20
24.2871
 10
36.9429
 20
24.2589
 10
36.9426
 20
24.2304
 10
36.9423
 20
24.2015
 10
36.9421
 20
24.1722
 10
36.9418
 20
24.1425
 10
36.9415
 20
24.1125
 10
36.9413
 20
24.0822
 10
36.941
 20
24.0515
 10
36.9408
 20
24.0205
 10
36.9406
 20
23.9891
 10
36.9403
 20
23.9574
 10
36.9401
 20
23.9254
 10
36.9399
 20
23.893
 10
36.9397
 20
23.8604
 10
36.9395
 20
23.8274
 10
36.9393
 20
23.7941
 10
36.9391
 20
23.7606
 10
36.9389
 20
23.7267
 10
36.9387
 20
23.6926
 10
36.9385
 20
23.6581
 10
36.9384
 20
23.6234
 10
36.9382
 20
23.5884
 10
36.938
 20
23.5532
 10
36.9379
 20
23.5177
 10
36.9377
 20
23.4819
 10
36.9376
 20
23.4458
 10
36.9374
 20
23.4096
 10
36.9373
 20
23.3731
 10
36.9372
 20
23.3363
 10
36.9371
 20
23.2993
 10
36.937
 20
23.2621
 10
36.9369
 20
23.2247
 10
36.9368
 20
23.187
 10
36.9367
 20
23.1491
 10
36.9366
 20
23.1111
 10
36.9365
 20
23.0728
 10
36.9365
 20
23.0343
 10
36.9364
 20
22.9956
 10
36.9363
 20
22.9568
 10
36.9363
 20
22.9177
 10
36.9363
 20
22.8785
 10
36.9362
 20
22.8392
 10
36.9362
 20
22.7996
 10
36.9362
 20
22.7599
 10
36.9362
 20
22.72
 10
36.9362
 20
22.68
 10
36.9361
 20
22.5965
 10
36.9359
 20
22.5142
 10
36.9356
 20
22.4329
 10
36.9351
 20
22.3528
 10
36.9345
 20
22.2739
 10
36.9338
 20
22.196
 10
36.9329
 20
22.1192
 10
36.9319
 20
22.0435
 10
36.9307
 20
21.9688
 10
36.9294
 20
21.8952
 10
36.9279
 20
21.8226
 10
36.9262
 20
21.751
 10
36.9244
 20
21.6805
 10
36.9224
 20
21.611
 10
36.9203
 20
21.5424
 10
36.918
 20
21.4748
 10
36.9155
 20
21.4082
 10
36.9128
 20
21.3425
 10
36.91
 20
21.2778
 10
36.9069
 20
21.214
 10
36.9037
 20
21.1511
 10
36.9003
 20
21.0891
 10
36.8967
 20
21.028
 10
36.8929
 20
20.9677
 10
36.8889
 20
20.9084
 10
36.8847
 20
20.8498
 10
36.8803
 20
20.7922
 10
36.8757
 20
20.7353
 10
36.8709
 20
20.6792
 10
36.8658
 20
20.624
 10
36.8606
 20
20.5695
 10
36.8551
 20
20.5158
 10
36.8494
 20
20.4629
 10
36.8435
 20
20.4107
 10
36.8374
 20
20.3593
 10
36.831
 20
20.3086
 10
36.8244
 20
20.2586
 10
36.8175
 20
20.2092
 10
36.8104
 20
20.1606
 10
36.8031
 20
20.1127
 10
36.7955
 20
20.0654
 10
36.7877
 20
20.0188
 10
36.7796
 20
19.9728
 10
36.7712
 20
19.9274
 10
36.7626
 20
19.8827
 10
36.7538
 20
19.8385
 10
36.7446
 20
19.7949
 10
36.7352
 20
19.7519
 10
36.7256
 20
19.7095
 10
36.7156
 20
19.6676
 10
36.7054
 20
19.6263
 10
36.6949
 20
19.5855
 10
36.6841
 20
19.5451
 10
36.6731
 20
19.5053
 10
36.6617
 20
19.466
 10
36.65
 20
19.4272
 10
36.6381
 20
19.3888
 10
36.6259
 20
19.3509
 10
36.6133
 20
19.3134
 10
36.6005
 20
19.2763
 10
36.5873
 20
19.2396
 10
36.5738
 20
19.2034
 10
36.5601
 20
19.1675
 10
36.546
 20
19.132
 10
36.5315
 20
19.0969
 10
36.5168
 20
19.0621
 10
36.5017
 20
19.0277
 10
36.4863
 20
18.9936
 10
36.4706
 20
18.9598
 10
36.4545
 20
18.9263
 10
36.4382
 20
18.8931
 10
36.4214
 20
18.8601
 10
36.4043
 20
18.8274
 10
36.3869
 20
18.795
 10
36.3691
 20
18.7628
 10
36.351
 20
18.7309
 10
36.3325
 20
18.6991
 10
36.3137
 20
18.6676
 10
36.2945
 20
18.6362
 10
36.2749
 20
18.605
 10
36.2549
 20
18.574
 10
36.2346
 20
18.5432
 10
36.2139
 20
18.5124
 10
36.1929
 20
18.4818
 10
36.1714
 20
18.4513
 10
36.1496
 20
18.4209
 10
36.1274
 20
18.3906
 10
36.1048
 20
18.3604
 10
36.0818
 20
18.3303
 10
36.0584
 20
18.3001
 10
36.0346
 20
18.2701
 10
36.0105
 20
18.24
 10
35.9859
 20
18.21
 10
35.9609
 20
18.18
 10
35.9355
 20
18.1499
 10
35.9096
 20
18.1199
 10
35.8834
 20
18.0898
 10
35.8567
 20
18.0596
 10
35.8297
 20
18.0294
 10
35.8022
 20
17.9991
 10
35.7929
 20
17.989
 10
35.7837
 20
17.979
 10
35.7745
 20
17.9691
 10
35.7654
 20
17.9593
 10
35.7564
 20
17.9497
 10
35.7475
 20
17.9401
 10
35.7386
 20
17.9307
 10
35.7297
 20
17.9214
 10
35.721
 20
17.9122
 10
35.7122
 20
17.9032
 10
35.7036
 20
17.8942
 10
35.695
 20
17.8854
 10
35.6866
 20
17.8767
 10
35.6781
 20
17.8681
 10
35.6698
 20
17.8597
 10
35.6615
 20
17.8514
 10
35.6533
 20
17.8432
 10
35.6452
 20
17.8351
 10
35.6371
 20
17.8271
 10
35.6291
 20
17.8193
 10
35.6212
 20
17.8116
 10
35.6134
 20
17.8041
 10
35.6056
 20
17.7966
 10
35.598
 20
17.7893
 10
35.5904
 20
17.7821
 10
35.5829
 20
17.7751
 10
35.5755
 20
17.7682
 10
35.5682
 20
17.7614
 10
35.5609
 20
17.7547
 10
35.5538
 20
17.7482
 10
35.5467
 20
17.7418
 10
35.5397
 20
17.7356
 10
35.5328
 20
17.7295
 10
35.526
 20
17.7235
 10
35.5193
 20
17.7177
 10
35.5127
 20
17.712
 10
35.5062
 20
17.7064
 10
35.4997
 20
17.701
 10
35.4934
 20
17.6957
 10
35.4872
 20
17.6906
 10
35.481
 20
17.6856
 10
35.475
 20
17.6807
 10
35.4691
 20
17.676
 10
35.4632
 20
17.6715
 10
35.4575
 20
17.667
 10
35.4518
 20
17.6628
 10
35.4463
 20
17.6586
 10
35.4409
 20
17.6546
 10
35.4356
 20
17.6508
 10
35.4304
 20
17.6471
 10
35.4252
 20
17.6436
 10
35.4202
 20
17.6402
 10
35.4154
 20
17.6369
 10
35.4106
 20
17.6338
 10
35.4059
 20
17.6309
 10
35.4014
 20
17.6281
 10
35.3969
 20
17.6255
 10
35.3926
 20
17.623
 10
35.3884
 20
17.6207
 10
35.3843
 20
17.6185
 10
35.3803
 20
17.6165
 10
35.3765
 20
17.6146
 10
35.3727
 20
17.6129
 10
35.3691
 20
17.6113
 10
35.3656
 20
17.61
 10
35.3622
 20
17.6087
 10
35.359
 20
17.6077
 10
35.3559
 20
17.6067
 10
35.3529
 20
17.606
 10
35.35
 20
17.6054
 10
35.3473
 20
17.605
 10
35.3446
 20
17.6047
 10
35.3422
 20
17.6046
 10
35.3398
 20
17.6047
 10
35.3376
 20
17.6049
 10
35.3355
 20
17.6053
 10
35.3335
 20
17.6059
 10
35.3317
 20
17.6066
 10
35.33
 20
17.6075
 10
35.3285
 20
17.6086
 10
35.3271
 20
17.6098
 10
35.3258
 20
17.6113
 10
35.3247
 20
17.6128
 10
35.3237
 20
17.6146
 10
35.3228
 20
17.6165
 10
35.3221
 20
17.6186
 10
35.3215
 20
17.6209
 10
35.3211
 20
17.6233
 10
35.3208
 20
17.6259
 10
35.3207
 20
17.6287
 10
35.3207
 20
17.6317
 10
35.3209
 20
17.6349
 10
35.3212
 20
17.6382
 10
35.3217
 20
17.6417
 10
35.3223
 20
17.6454
 10
35.323
 20
17.6493
 10
35.324
 20
17.6533
 10
35.325
 20
17.6575
 10
35.3263
 20
17.6619
 10
35.3277
 20
17.6665
 10
35.3436
 20
17.7177
 10
35.3594
 20
17.7682
 10
35.3748
 20
17.8182
 10
35.39
 20
17.8675
 10
35.405
 20
17.9164
 10
35.4197
 20
17.9646
 10
35.4341
 20
18.0124
 10
35.4484
 20
18.0596
 10
35.4623
 20
18.1063
 10
35.476
 20
18.1525
 10
35.4895
 20
18.1982
 10
35.5027
 20
18.2435
 10
35.5157
 20
18.2883
 10
35.5285
 20
18.3327
 10
35.541
 20
18.3766
 10
35.5533
 20
18.4202
 10
35.5654
 20
18.4633
 10
35.5772
 20
18.5061
 10
35.5888
 20
18.5485
 10
35.6002
 20
18.5905
 10
35.6114
 20
18.6322
 10
35.6223
 20
18.6735
 10
35.6331
 20
18.7146
 10
35.6436
 20
18.7553
 10
35.6539
 20
18.7958
 10
35.664
 20
18.8359
 10
35.6738
 20
18.8758
 10
35.6835
 20
18.9155
 10
35.693
 20
18.9549
 10
35.7022
 20
18.9941
 10
35.7113
 20
19.0331
 10
35.7202
 20
19.0719
 10
35.7288
 20
19.1106
 10
35.7373
 20
19.149
 10
35.7455
 20
19.1873
 10
35.7536
 20
19.2255
 10
35.7615
 20
19.2636
 10
35.7692
 20
19.3015
 10
35.7767
 20
19.3393
 10
35.7841
 20
19.3771
 10
35.7912
 20
19.4147
 10
35.7982
 20
19.4524
 10
35.805
 20
19.4899
 10
35.8116
 20
19.5275
 10
35.818
 20
19.565
 10
35.8243
 20
19.6025
 10
35.8304
 20
19.6401
 10
35.8363
 20
19.6776
 10
35.8421
 20
19.7153
 10
35.8477
 20
19.7529
 10
35.8531
 20
19.7906
 10
35.8584
 20
19.8284
 10
35.8635
 20
19.8663
 10
35.8685
 20
19.9043
 10
35.8733
 20
19.9424
 10
35.878
 20
19.9807
 10
35.8825
 20
20.0191
 10
35.8869
 20
20.0576
 10
35.8911
 20
20.0964
 10
35.8951
 20
20.1353
 10
35.8991
 20
20.1744
 10
35.9029
 20
20.2138
 10
35.9065
 20
20.2533
 10
35.91
 20
20.2931
 10
35.9134
 20
20.3332
 10
35.9167
 20
20.3735
 10
35.9198
 20
20.4142
 10
35.9228
 20
20.4551
 10
35.9256
 20
20.4963
 10
35.9284
 20
20.5378
 10
35.931
 20
20.5797
 10
35.9335
 20
20.622
 10
35.9359
 20
20.6646
 10
35.9382
 20
20.7076
 10
35.9403
 20
20.7509
 10
35.9424
 20
20.7947
 10
35.9443
 20
20.8389
 10
35.9461
 20
20.8836
 10
35.9478
 20
20.9287
 10
35.9494
 20
20.9742
 10
35.9509
 20
21.0202
 10
35.9524
 20
21.0667
 10
35.9537
 20
21.1137
 10
35.9549
 20
21.1613
 10
35.956
 20
21.2093
 10
35.957
 20
21.2579
 10
35.958
 20
21.3071
 10
35.9588
 20
21.3568
 10
35.9596
 20
21.4071
 10
35.9603
 20
21.458
 10
35.9609
 20
21.5095
 10
35.9614
 20
21.5617
 10
35.9618
 20
21.6144
 10
35.9622
 20
21.6679
 10
35.9625
 20
21.7219
 10
35.9627
 20
21.7767
 10
35.9629
 20
21.8322
 10
35.963
 20
21.8883
 10
35.963
 20
21.9452
 10
35.9629
 20
22.0029
 10
35.9628
 20
22.0577
 10
35.9627
 20
22.1117
 10
35.9626
 20
22.1649
 10
35.9624
 20
22.2171
 10
35.9622
 20
22.2686
 10
35.9619
 20
22.3192
 10
35.9616
 20
22.3691
 10
35.9613
 20
22.4181
 10
35.9609
 20
22.4664
 10
35.9605
 20
22.5139
 10
35.96
 20
22.5606
 10
35.9595
 20
22.6067
 10
35.9589
 20
22.6519
 10
35.9583
 20
22.6965
 10
35.9577
 20
22.7404
 10
35.9569
 20
22.7836
 10
35.9562
 20
22.8261
 10
35.9553
 20
22.868
 10
35.9544
 20
22.9092
 10
35.9535
 20
22.9498
 10
35.9525
 20
22.9898
 10
35.9514
 20
23.0292
 10
35.9502
 20
23.068
 10
35.949
 20
23.1062
 10
35.9477
 20
23.1438
 10
35.9464
 20
23.1809
 10
35.9449
 20
23.2175
 10
35.9434
 20
23.2535
 10
35.9418
 20
23.2891
 10
35.9402
 20
23.3241
 10
35.9384
 20
23.3587
 10
35.9366
 20
23.3928
 10
35.9347
 20
23.4264
 10
35.9327
 20
23.4596
 10
35.9306
 20
23.4924
 10
35.9284
 20
23.5247
 10
35.9261
 20
23.5567
 10
35.9238
 20
23.5882
 10
35.9213
 20
23.6194
 10
35.9187
 20
23.6502
 10
35.9161
 20
23.6807
 10
35.9133
 20
23.7109
 10
35.9105
 20
23.7407
 10
35.9075
 20
23.7702
 10
35.9044
 20
23.7994
 10
35.9012
 20
23.8284
 10
35.898
 20
23.857
 10
35.8946
 20
23.8855
 10
35.891
 20
23.9136
 10
35.8874
 20
23.9416
 10
35.8837
 20
23.9694
 10
35.8798
 20
23.9969
 10
35.8758
 20
24.0243
 10
35.8717
 20
24.0515
 10
35.8675
 20
24.0785
 10
35.8631
 20
24.1054
 10
35.8586
 20
24.1321
 10
35.854
 20
24.1588
 10
35.8493
 20
24.1853
 10
35.8444
 20
24.2117
 10
35.8394
 20
24.2381
 10
35.8342
 20
24.2644
 10
35.829
 20
24.2906
 10
35.8235
 20
24.3168
 10
35.818
 20
24.343
 10
35.8123
 20
24.3692
 10
35.8064
 20
24.3953
 10
35.8004
 20
24.4215
 10
35.7942
 20
24.4477
 10
35.7879
 20
24.474
 10
35.7815
 20
24.5003
 10
35.7749
 20
24.5267
 10
35.7681
 20
24.5532
 10
35.7612
 20
24.5798
 10
35.7541
 20
24.6064
 10
35.7469
 20
24.6332
 10
35.7395
 20
24.6602
 10
35.7319
 20
24.6873
 10
35.7241
 20
24.7145
 10
35.7162
 20
24.7419
 10
35.7082
 20
24.7696
 10
35.6999
 20
24.7974
 10
35.6915
 20
24.8254
 10
35.6829
 20
24.8537
 10
35.6741
 20
24.8822
 10
35.6652
 20
24.911
 10
35.656
 20
24.9401
 10
35.6467
 20
24.9694
 10
35.6372
 20
24.999
 10
35.6275
 20
25.029
 10
35.6176
 20
25.0592
 10
35.6076
 20
25.0899
 10
35.5973
 20
25.1208
 10
35.5869
 20
25.1522
 10
35.5762
 20
25.1839
 10
35.5654
 20
25.216
 10
35.5543
 20
25.2485
 10
35.5431
 20
25.2814
 10
35.5316
 20
25.3148
 10
35.52
 20
25.3486
 10
35.5126
 20
25.3697
 10
35.5051
 20
25.3912
 10
35.4973
 20
25.413
 10
35.4894
 20
25.4351
 10
35.4813
 20
25.4574
 10
35.473
 20
25.48
 10
35.4646
 20
25.5029
 10
35.4559
 20
25.526
 10
35.4471
 20
25.5494
 10
35.4382
 20
25.5731
 10
35.429
 20
25.597
 10
35.4197
 20
25.6212
 10
35.4102
 20
25.6455
 10
35.4006
 20
25.6702
 10
35.3908
 20
25.695
 10
35.3809
 20
25.7201
 10
35.3708
 20
25.7453
 10
35.3606
 20
25.7708
 10
35.3502
 20
25.7965
 10
35.3397
 20
25.8224
 10
35.329
 20
25.8484
 10
35.3182
 20
25.8747
 10
35.3073
 20
25.9011
 10
35.2962
 20
25.9277
 10
35.285
 20
25.9545
 10
35.2737
 20
25.9815
 10
35.2622
 20
26.0086
 10
35.2507
 20
26.0358
 10
35.239
 20
26.0632
 10
35.2272
 20
26.0907
 10
35.2152
 20
26.1184
 10
35.2032
 20
26.1462
 10
35.1911
 20
26.1741
 10
35.1788
 20
26.2022
 10
35.1665
 20
26.2303
 10
35.154
 20
26.2586
 10
35.1415
 20
26.2869
 10
35.1288
 20
26.3154
 10
35.1161
 20
26.3439
 10
35.1033
 20
26.3726
 10
35.0903
 20
26.4013
 10
35.0773
 20
26.43
 10
35.0643
 20
26.4589
 10
35.0511
 20
26.4878
 10
35.0378
 20
26.5168
 10
35.0245
 20
26.5458
 10
35.0111
 20
26.5748
 10
34.9977
 20
26.6039
 10
34.9842
 20
26.6331
 10
34.9706
 20
26.6622
 10
34.9569
 20
26.6914
 10
34.9432
 20
26.7206
 10
34.9295
 20
26.7498
 10
34.9156
 20
26.779
 10
34.9018
 20
26.8082
 10
34.8879
 20
26.8374
 10
34.8739
 20
26.8666
 10
34.8599
 20
26.8958
 10
34.8458
 20
26.9249
 10
34.8318
 20
26.9541
 10
34.8176
 20
26.9832
 10
34.8035
 20
27.0122
 10
34.7893
 20
27.0412
 10
34.7751
 20
27.0702
 10
34.7609
 20
27.0991
 10
34.7466
 20
27.1279
 10
34.7323
 20
27.1567
 10
34.718
 20
27.1853
 10
34.7037
 20
27.214
 10
34.6894
 20
27.2425
 10
34.6751
 20
27.2709
 10
34.6608
 20
27.2993
 10
34.6464
 20
27.3275
 10
34.6321
 20
27.3556
 10
34.6178
 20
27.3836
 10
34.6034
 20
27.4115
 10
34.5891
 20
27.4393
 10
34.5748
 20
27.467
 10
34.5605
 20
27.4945
 10
34.5462
 20
27.5218
 10
34.532
 20
27.549
 10
34.5177
 20
27.5761
 10
34.5035
 20
27.603
 10
34.4893
 20
27.6298
 10
34.4751
 20
27.6563
 10
34.461
 20
27.6827
 10
34.4469
 20
27.709
 10
34.4328
 20
27.735
 10
34.4188
 20
27.7608
 10
34.4048
 20
27.7865
 10
34.3908
 20
27.8119
 10
34.3769
 20
27.8371
 10
34.3631
 20
27.8622
 10
34.3493
 20
27.8869
 10
34.3355
 20
27.9115
 10
34.3218
 20
27.9359
 10
34.3082
 20
27.96
 10
34.2946
 20
27.9838
 10
34.2811
 20
28.0074
 10
34.2677
 20
28.0308
 10
34.2364
 20
28.0853
 10
34.2053
 20
28.1399
 10
34.1744
 20
28.1944
 10
34.1437
 20
28.2491
 10
34.1133
 20
28.3037
 10
34.0832
 20
28.3584
 10
34.0532
 20
28.4131
 10
34.0235
 20
28.4678
 10
33.9941
 20
28.5225
 10
33.9649
 20
28.5773
 10
33.9359
 20
28.632
 10
33.9071
 20
28.6868
 10
33.8786
 20
28.7416
 10
33.8504
 20
28.7963
 10
33.8224
 20
28.8511
 10
33.7946
 20
28.9059
 10
33.7671
 20
28.9606
 10
33.7398
 20
29.0154
 10
33.7128
 20
29.0701
 10
33.686
 20
29.1248
 10
33.6595
 20
29.1796
 10
33.6332
 20
29.2342
 10
33.6071
 20
29.2889
 10
33.5814
 20
29.3435
 10
33.5558
 20
29.3981
 10
33.5306
 20
29.4527
 10
33.5056
 20
29.5072
 10
33.4808
 20
29.5617
 10
33.4563
 20
29.6162
 10
33.4321
 20
29.6706
 10
33.4081
 20
29.725
 10
33.3844
 20
29.7793
 10
33.3609
 20
29.8336
 10
33.3377
 20
29.8878
 10
33.3148
 20
29.9419
 10
33.2921
 20
29.996
 10
33.2697
 20
30.05
 10
33.2476
 20
30.104
 10
33.2257
 20
30.1579
 10
33.2041
 20
30.2117
 10
33.1828
 20
30.2654
 10
33.1618
 20
30.3191
 10
33.141
 20
30.3727
 10
33.1205
 20
30.4262
 10
33.1002
 20
30.4796
 10
33.0803
 20
30.5329
 10
33.0606
 20
30.5861
 10
33.0412
 20
30.6393
 10
33.022
 20
30.6923
 10
33.0032
 20
30.7452
 10
32.9846
 20
30.7981
 10
32.9663
 20
30.8508
 10
32.9483
 20
30.9034
 10
32.9306
 20
30.9559
 10
32.9132
 20
31.0083
 10
32.896
 20
31.0605
 10
32.8792
 20
31.1127
 10
32.8626
 20
31.1647
 10
32.8463
 20
31.2166
 10
32.8303
 20
31.2683
 10
32.8146
 20
31.3199
 10
32.7991
 20
31.3714
 10
32.784
 20
31.4228
 10
32.7692
 20
31.474
 10
32.7546
 20
31.525
 10
32.7404
 20
31.576
 10
32.7265
 20
31.6267
 10
32.7128
 20
31.6773
 10
32.6995
 20
31.7278
 10
32.6864
 20
31.7781
 10
32.6736
 20
31.8282
 10
32.6612
 20
31.8782
 10
32.649
 20
31.928
 10
32.6372
 20
31.9776
 10
32.6257
 20
32.0271
 10
32.6144
 20
32.0763
 10
32.6035
 20
32.1254
 10
32.5929
 20
32.1744
 10
32.5826
 20
32.2231
 10
32.5726
 20
32.2716
 10
32.5629
 20
32.32
 10
32.5535
 20
32.3682
 10
32.5444
 20
32.4161
 10
32.5357
 20
32.4639
 10
32.5273
 20
32.5115
 10
32.5191
 20
32.5588
 10
32.5113
 20
32.606
 10
32.5038
 20
32.6529
 10
32.4967
 20
32.6996
 10
32.4898
 20
32.7461
 10
32.4833
 20
32.7924
 10
32.4771
 20
32.8385
 10
32.4712
 20
32.8843
 10
32.4657
 20
32.9299
 10
32.4604
 20
32.9753
 10
32.4555
 20
33.0205
 10
32.4509
 20
33.0654
 10
32.4467
 20
33.1101
 10
32.4428
 20
33.1545
 10
32.4392
 20
33.1987
 10
32.4365
 20
33.2324
 10
32.434
 20
33.2654
 10
32.4314
 20
33.2977
 10
32.4289
 20
33.3294
 10
32.4265
 20
33.3605
 10
32.4241
 20
33.3909
 10
32.4217
 20
33.4207
 10
32.4193
 20
33.4498
 10
32.417
 20
33.4783
 10
32.4147
 20
33.5062
 10
32.4125
 20
33.5335
 10
32.4102
 20
33.5601
 10
32.408
 20
33.5862
 10
32.4058
 20
33.6116
 10
32.4036
 20
33.6364
 10
32.4014
 20
33.6607
 10
32.3993
 20
33.6843
 10
32.3971
 20
33.7074
 10
32.395
 20
33.7299
 10
32.3928
 20
33.7518
 10
32.3907
 20
33.7731
 10
32.3885
 20
33.7939
 10
32.3864
 20
33.8141
 10
32.3843
 20
33.8338
 10
32.3821
 20
33.8529
 10
32.38
 20
33.8714
 10
32.3778
 20
33.8894
 10
32.3756
 20
33.9069
 10
32.3734
 20
33.9239
 10
32.3712
 20
33.9403
 10
32.369
 20
33.9562
 10
32.3667
 20
33.9716
 10
32.3645
 20
33.9865
 10
32.3622
 20
34.0009
 10
32.3598
 20
34.0147
 10
32.3575
 20
34.0281
 10
32.3551
 20
34.041
 10
32.3527
 20
34.0534
 10
32.3502
 20
34.0653
 10
32.3477
 20
34.0768
 10
32.3451
 20
34.0877
 10
32.3426
 20
34.0982
 10
32.3399
 20
34.1083
 10
32.3372
 20
34.1179
 10
32.3345
 20
34.127
 10
32.3317
 20
34.1357
 10
32.3289
 20
34.1439
 10
32.326
 20
34.1517
 10
32.323
 20
34.1591
 10
32.32
 20
34.1661
 10
32.3169
 20
34.1726
 10
32.3137
 20
34.1787
 10
32.3105
 20
34.1844
 10
32.3072
 20
34.1897
 10
32.3039
 20
34.1946
 10
32.3004
 20
34.1991
 10
32.2969
 20
34.2032
 10
32.2933
 20
34.2069
 10
32.2896
 20
34.2102
 10
32.2859
 20
34.2132
 10
32.282
 20
34.2157
 10
32.2781
 20
34.2179
 10
32.274
 20
34.2198
 10
32.2699
 20
34.2213
 10
32.2657
 20
34.2224
 10
32.2614
 20
34.2232
 10
32.257
 20
34.2237
 10
32.2524
 20
34.2238
 10
32.2524
 20
34.2238
 10
32.2524
 20
34.2238
 10
32.2524
 20
34.2238
 10
32.2524
 20
34.2238
 10
32.2524
 20
34.2238
 10
32.2524
 20
34.2238
 10
32.2524
 20
34.2238
 10
32.2524
 20
34.2238
 10
32.2524
 20
34.2238
 10
32.2478
 20
34.2235
 10
32.2431
 20
34.223
 10
32.2382
 20
34.2221
 10
32.2333
 20
34.2209
 10
32.2282
 20
34.2194
 10
32.223
 20
34.2176
 10
32.2178
 20
34.2155
 10
32.2123
 20
34.213
 10
32.2068
 20
34.2103
 10
32.2011
 20
34.2073
 10
32.1953
 20
34.204
 10
32.1894
 20
34.2005
 10
32.1834
 20
34.1966
 10
32.1772
 20
34.1925
 10
32.1709
 20
34.1881
 10
32.1644
 20
34.1835
 10
32.1578
 20
34.1786
 10
32.1511
 20
34.1735
 10
32.1442
 20
34.1681
 10
32.1372
 20
34.1625
 10
32.13
 20
34.1566
 10
32.1226
 20
34.1505
 10
32.1152
 20
34.1442
 10
32.1075
 20
34.1377
 10
32.0997
 20
34.131
 10
32.0917
 20
34.124
 10
32.0836
 20
34.1168
 10
32.0753
 20
34.1095
 10
32.0669
 20
34.1019
 10
32.0583
 20
34.0942
 10
32.0495
 20
34.0863
 10
32.0405
 20
34.0781
 10
32.0282
 20
34.0666
 10
32.0155
 20
34.054
 10
32.0024
 20
34.0403
 10
31.989
 20
34.0255
 10
31.9752
 20
34.0097
 10
31.961
 20
33.9928
 10
31.9464
 20
33.9749
 10
31.9315
 20
33.9559
 10
31.9163
 20
33.936
 10
31.9008
 20
33.9152
 10
31.8849
 20
33.8934
 10
31.8687
 20
33.8706
 10
31.8523
 20
33.847
 10
31.8355
 20
33.8224
 10
31.8185
 20
33.797
 10
31.8011
 20
33.7708
 10
31.7836
 20
33.7437
 10
31.7657
 20
33.7158
 10
31.7477
 20
33.6871
 10
31.7294
 20
33.6576
 10
31.7108
 20
33.6274
 10
31.6921
 20
33.5965
 10
31.6731
 20
33.5648
 10
31.654
 20
33.5324
 10
31.6346
 20
33.4994
 10
31.6151
 20
33.4656
 10
31.5954
 20
33.4313
 10
31.5756
 20
33.3963
 10
31.5555
 20
33.3607
 10
31.5354
 20
33.3246
 10
31.5151
 20
33.2878
 10
31.4947
 20
33.2505
 10
31.4742
 20
33.2127
 10
31.4535
 20
33.1744
 10
31.4328
 20
33.1356
 10
31.412
 20
33.0963
 10
31.3911
 20
33.0566
 10
31.3701
 20
33.0164
 10
31.3491
 20
32.9759
 10
31.328
 20
32.9349
 10
31.3068
 20
32.8936
 10
31.2857
 20
32.8519
 10
31.2645
 20
32.8098
 10
31.2433
 20
32.7675
 10
31.2221
 20
32.7248
 10
31.2009
 20
32.6819
 10
31.1797
 20
32.6387
 10
31.1585
 20
32.5952
 10
31.1373
 20
32.5516
 10
31.1162
 20
32.5077
 10
31.0952
 20
32.4637
 10
31.0742
 20
32.4194
 10
31.0532
 20
32.3751
 10
31.0324
 20
32.3306
 10
31.0116
 20
32.286
 10
30.9909
 20
32.2413
 10
30.9703
 20
32.1965
 10
30.9498
 20
32.1517
 10
30.9295
 20
32.1068
 10
30.9093
 20
32.062
 10
30.8892
 20
32.0171
 10
30.8692
 20
31.9722
 10
30.8495
 20
31.9274
 10
30.8298
 20
31.8827
 10
30.8104
 20
31.8381
 10
30.7912
 20
31.7935
 10
30.7721
 20
31.7491
 10
30.7532
 20
31.7048
 10
30.7346
 20
31.6606
 10
30.7162
 20
31.6166
 10
30.698
 20
31.5729
 10
30.68
 20
31.5293
 10
30.6623
 20
31.486
 10
30.6449
 20
31.4429
 10
30.6277
 20
31.4001
 10
30.6108
 20
31.3576
 10
30.5942
 20
31.3154
 10
30.5778
 20
31.2735
 10
30.5618
 20
31.2319
 10
30.5461
 20
31.1908
 10
30.5307
 20
31.15
 10
30.5156
 20
31.1096
 10
30.5009
 20
31.0696
 10
30.4865
 20
31.0301
 10
30.4725
 20
30.9911
 10
30.4589
 20
30.9525
 10
30.4456
 20
30.9144
 10
30.4327
 20
30.8768
 10
30.4202
 20
30.8398
 10
30.4081
 20
30.8034
 10
30.3964
 20
30.7675
 10
30.3852
 20
30.7322
 10
30.3744
 20
30.6975
 10
30.364
 20
30.6634
 10
30.354
 20
30.63
 10
30.3446
 20
30.5973
 10
30.3355
 20
30.5652
 10
30.327
 20
30.5339
 10
30.319
 20
30.5032
 10
30.3114
 20
30.4734
 10
30.3046
 20
30.4459
 10
30.2978
 20
30.4191
 10
30.2911
 20
30.3928
 10
30.2888
 20
30.3839
 10
30.2845
 20
30.3672
 10
30.2779
 20
30.3422
 10
30.2714
 20
30.3178
 10
30.265
 20
30.2941
 10
30.2587
 20
30.271
 10
30.2524
 20
30.2486
 10
30.2461
 20
30.2268
 10
30.2399
 20
30.2057
 10
30.2337
 20
30.1852
 10
30.2276
 20
30.1654
 10
30.2215
 20
30.1463
 10
30.2155
 20
30.1278
 10
30.2095
 20
30.11
 10
30.2035
 20
30.0929
 10
30.1975
 20
30.0764
 10
30.1915
 20
30.0607
 10
30.1856
 20
30.0456
 10
30.1797
 20
30.0312
 10
30.1738
 20
30.0175
 10
30.1679
 20
30.0045
 10
30.162
 20
29.9922
 10
30.1561
 20
29.9807
 10
30.1502
 20
29.9698
 10
30.1443
 20
29.9596
 10
30.1383
 20
29.9502
 10
30.1324
 20
29.9415
 10
30.1264
 20
29.9335
 10
30.1205
 20
29.9262
 10
30.1145
 20
29.9197
 10
30.1084
 20
29.9139
 10
30.1024
 20
29.9088
 10
30.0963
 20
29.9045
 10
30.0901
 20
29.901
 10
30.0839
 20
29.8982
 10
30.0777
 20
29.8961
 10
30.0714
 20
29.8948
 10
30.0703
 20
29.8947
 10
30.0654
 20
29.8943
 10
30.0591
 20
29.8945
 10
30.0526
 20
29.8955
 10
30.0461
 20
29.8973
 10
30.0395
 20
29.8998
 10
30.0329
 20
29.9031
 10
30.0261
 20
29.9073
 10
30.0193
 20
29.9122
 10
30.0124
 20
29.9179
 10
30.0054
 20
29.9243
 10
29.9983
 20
29.9316
 10
29.9912
 20
29.9397
 10
29.9839
 20
29.9486
 10
29.9766
 20
29.9584
 10
29.9691
 20
29.9689
 10
29.9615
 20
29.9803
 10
29.9538
 20
29.9924
 10
29.9477
 20
30.0026
 10
29.9459
 20
30.0057
 10
29.938
 20
30.0196
 10
29.93
 20
30.0342
 10
29.9218
 20
30.0498
 10
29.9136
 20
30.0662
 10
29.9052
 20
30.0834
 10
29.8967
 20
30.1014
 10
29.888
 20
30.1204
 10
29.8792
 20
30.1402
 10
29.8703
 20
30.1608
 10
29.8612
 20
30.1823
 10
29.8519
 20
30.2047
 10
29.8425
 20
30.2279
 10
29.833
 20
30.2521
 10
29.8233
 20
30.2771
 10
29.8134
 20
30.303
 10
29.8033
 20
30.3298
 10
29.7931
 20
30.3574
 10
29.7827
 20
30.386
 10
29.7721
 20
30.4155
 10
29.7613
 20
30.4459
 10
29.7504
 20
30.4772
 10
29.7393
 20
30.5094
 10
29.7279
 20
30.5425
 10
29.7164
 20
30.5765
 10
29.7047
 20
30.6114
 10
29.6927
 20
30.6473
 10
29.6806
 20
30.6841
 10
29.6682
 20
30.7219
 10
29.6557
 20
30.7606
 10
29.6429
 20
30.8002
 10
29.6299
 20
30.8408
 10
29.6167
 20
30.8823
 10
29.6032
 20
30.9247
 10
29.5895
 20
30.9682
 10
29.5756
 20
31.0126
 10
29.5614
 20
31.0579
 10
29.547
 20
31.1042
 10
29.5324
 20
31.1515
 10
29.5175
 20
31.1998
 10
29.5023
 20
31.249
 10
29.4869
 20
31.2993
 10
29.4713
 20
31.3505
 10
29.4553
 20
31.4027
 10
29.4399
 20
31.4535
 10
29.4247
 20
31.504
 10
29.4096
 20
31.5543
 10
29.3947
 20
31.6044
 10
29.38
 20
31.6543
 10
29.3654
 20
31.704
 10
29.351
 20
31.7535
 10
29.3368
 20
31.8028
 10
29.3228
 20
31.8519
 10
29.3089
 20
31.9008
 10
29.2997
 20
31.9336
 10
29.2947
 20
31.952
 10
29.2809
 20
32.0043
 10
29.2671
 20
32.0569
 10
29.2535
 20
32.1098
 10
29.2399
 20
32.1631
 10
29.2264
 20
32.2167
 10
29.213
 20
32.2706
 10
29.1996
 20
32.3248
 10
29.1864
 20
32.3793
 10
29.1732
 20
32.4341
 10
29.1602
 20
32.4891
 10
29.1472
 20
32.5444
 10
29.1344
 20
32.5999
 10
29.1216
 20
32.6557
 10
29.1089
 20
32.7116
 10
29.0964
 20
32.7679
 10
29.0839
 20
32.8243
 10
29.0715
 20
32.8809
 10
29.0593
 20
32.9377
 10
29.0472
 20
32.9946
 10
29.0351
 20
33.0518
 10
29.0232
 20
33.1091
 10
29.0114
 20
33.1665
 10
28.9997
 20
33.2241
 10
28.9881
 20
33.2818
 10
28.9767
 20
33.3396
 10
28.9653
 20
33.3975
 10
28.9541
 20
33.4555
 10
28.943
 20
33.5136
 10
28.932
 20
33.5718
 10
28.9212
 20
33.63
 10
28.9104
 20
33.6883
 10
28.8999
 20
33.7466
 10
28.8894
 20
33.805
 10
28.8811
 20
33.8516
 10
28.876
 20
33.881
 10
28.8658
 20
33.9398
 10
28.8607
 20
33.9699
 10
28.8599
 20
33.9747
 10
28.8535
 20
34.0126
 10
28.8437
 20
34.0714
 10
28.834
 20
34.1302
 10
28.8245
 20
34.189
 10
28.8151
 20
34.2478
 10
28.8059
 20
34.3065
 10
28.7968
 20
34.3652
 10
28.7879
 20
34.4238
 10
28.7791
 20
34.4823
 10
28.7705
 20
34.5408
 10
28.7621
 20
34.5992
 10
28.7538
 20
34.6575
 10
28.7456
 20
34.7157
 10
28.7377
 20
34.7737
 10
28.7299
 20
34.8317
 10
28.7222
 20
34.8895
 10
28.7147
 20
34.9472
 10
28.7074
 20
35.0047
 10
28.7038
 20
35.0338
 10
28.6992
 20
35.0769
 10
28.6938
 20
35.1292
 10
28.6884
 20
35.1818
 10
28.6832
 20
35.2346
 10
28.678
 20
35.2878
 10
28.6729
 20
35.3412
 10
28.6679
 20
35.395
 10
28.6629
 20
35.449
 10
28.6581
 20
35.5034
 10
28.6533
 20
35.5581
 10
28.6486
 20
35.6131
 10
28.644
 20
35.6684
 10
28.6394
 20
35.7241
 10
28.6349
 20
35.7801
 10
28.6305
 20
35.8365
 10
28.6262
 20
35.8933
 10
28.622
 20
35.9504
 10
28.6178
 20
36.0079
 10
28.6137
 20
36.0657
 10
28.6096
 20
36.124
 10
28.6056
 20
36.1826
 10
28.6017
 20
36.2417
 10
28.5979
 20
36.3011
 10
28.5941
 20
36.361
 10
28.5904
 20
36.4213
 10
28.57
 20
36.7555
 10
28.5699
 20
36.7596
 10
28.5692
 20
36.8066
 10
28.5686
 20
36.8531
 10
28.5683
 20
36.8992
 10
28.5635
 20
38.0941
 10
28.5566
 20
38.0749
 10
28.5565
 20
38.0941
 10
28.5555
 20
38.0913
 10
28.5555
 20
38.0941
 10
28.551
 20
38.0817
 10
28.5509
 20
38.0941
 10
28.5478
 20
38.0855
 10
28.5477
 20
38.0941
 10
28.4972
 20
37.9476
 10
28.4883
 20
38.0941
 10
27.9491
 20
36.5009
 10
27.9316
 20
36.4494
 10
27.9138
 20
36.3979
 10
27.8959
 20
36.3463
 10
27.8777
 20
36.2947
 10
27.8594
 20
36.243
 10
27.8408
 20
36.1913
 10
27.822
 20
36.1396
 10
27.8031
 20
36.0878
 10
27.7839
 20
36.036
 10
27.7646
 20
35.9843
 10
27.745
 20
35.9325
 10
27.7253
 20
35.8807
 10
27.7054
 20
35.829
 10
27.6854
 20
35.7773
 10
27.6652
 20
35.7256
 10
27.6448
 20
35.6739
 10
27.6242
 20
35.6223
 10
27.6035
 20
35.5708
 10
27.5826
 20
35.5193
 10
27.5616
 20
35.4679
 10
27.5405
 20
35.4165
 10
27.5192
 20
35.3652
 10
27.4977
 20
35.3141
 10
27.4761
 20
35.263
 10
27.4544
 20
35.212
 10
27.4326
 20
35.1612
 10
27.4107
 20
35.1104
 10
27.3886
 20
35.0598
 10
27.3664
 20
35.0093
 10
27.3441
 20
34.959
 10
27.3217
 20
34.9088
 10
27.2992
 20
34.8588
 10
27.2765
 20
34.8089
 10
27.2538
 20
34.7592
 10
27.231
 20
34.7097
 10
27.2081
 20
34.6604
 10
27.1852
 20
34.6112
 10
27.1621
 20
34.5623
 10
27.139
 20
34.5136
 10
27.1158
 20
34.465
 10
27.0925
 20
34.4167
 10
27.0691
 20
34.3687
 10
27.0457
 20
34.3209
 10
27.0222
 20
34.2733
 10
26.9987
 20
34.2259
 10
26.9751
 20
34.1789
 10
26.9515
 20
34.1321
 10
26.9279
 20
34.0855
 10
26.9042
 20
34.0393
 10
26.8804
 20
33.9933
 10
26.8567
 20
33.9476
 10
26.8329
 20
33.9023
 10
26.809
 20
33.8572
 10
26.7852
 20
33.8125
 10
26.7613
 20
33.7681
 10
26.7375
 20
33.724
 10
26.7136
 20
33.6803
 10
26.6897
 20
33.6369
 10
26.6658
 20
33.5938
 10
26.6419
 20
33.5511
 10
26.618
 20
33.5088
 10
26.5942
 20
33.4669
 10
26.5703
 20
33.4254
 10
26.5465
 20
33.3842
 10
26.5261
 20
33.3493
 10
26.5132
 20
33.3305
 10
26.4875
 20
33.2934
 10
26.4616
 20
33.2563
 10
26.4353
 20
33.2191
 10
26.4088
 20
33.1819
 10
26.382
 20
33.1447
 10
26.3549
 20
33.1074
 10
26.3276
 20
33.0702
 10
26.3001
 20
33.033
 10
26.2723
 20
32.9959
 10
26.2443
 20
32.9588
 10
26.2162
 20
32.9218
 10
26.1879
 20
32.8848
 10
26.1594
 20
32.848
 10
26.1307
 20
32.8113
 10
26.102
 20
32.7746
 10
26.073
 20
32.7382
 10
26.044
 20
32.7019
 10
26.0149
 20
32.6658
 10
25.9857
 20
32.6298
 10
25.9564
 20
32.5941
 10
25.9271
 20
32.5585
 10
25.8977
 20
32.5232
 10
25.8682
 20
32.4882
 10
25.8388
 20
32.4534
 10
25.8093
 20
32.4188
 10
25.7798
 20
32.3846
 10
25.7504
 20
32.3506
 10
25.721
 20
32.317
 10
25.6916
 20
32.2837
 10
25.6623
 20
32.2508
 10
25.633
 20
32.2182
 10
25.6038
 20
32.186
 10
25.5748
 20
32.1541
 10
25.5458
 20
32.1227
 10
25.5169
 20
32.0917
 10
25.4882
 20
32.0611
 10
25.4596
 20
32.031
 10
25.4312
 20
32.0013
 10
25.403
 20
31.9721
 10
25.3749
 20
31.9434
 10
25.347
 20
31.9152
 10
25.3194
 20
31.8875
 10
25.2919
 20
31.8603
 10
25.2647
 20
31.8337
 10
25.2378
 20
31.8077
 10
25.2111
 20
31.7822
 10
25.1847
 20
31.7573
 10
25.1585
 20
31.733
 10
25.1327
 20
31.7094
 10
25.1244
 20
31.7019
 10
25.1126
 20
31.6939
 10
25.0957
 20
31.6825
 10
25.0788
 20
31.6714
 10
25.062
 20
31.6604
 10
25.0453
 20
31.6497
 10
25.0287
 20
31.6392
 10
25.0121
 20
31.6289
 10
24.9957
 20
31.6189
 10
24.9793
 20
31.609
 10
24.9631
 20
31.5994
 10
24.9469
 20
31.5901
 10
24.9309
 20
31.5809
 10
24.915
 20
31.572
 10
24.8991
 20
31.5633
 10
24.8834
 20
31.5549
 10
24.8679
 20
31.5467
 10
24.8524
 20
31.5388
 10
24.8371
 20
31.5311
 10
24.8219
 20
31.5236
 10
24.8069
 20
31.5164
 10
24.792
 20
31.5095
 10
24.7773
 20
31.5028
 10
24.7627
 20
31.4964
 10
24.7483
 20
31.4902
 10
24.734
 20
31.4843
 10
24.7199
 20
31.4786
 10
24.706
 20
31.4732
 10
24.6923
 20
31.4681
 10
24.6787
 20
31.4633
 10
24.6653
 20
31.4587
 10
24.6521
 20
31.4544
 10
24.6391
 20
31.4504
 10
24.6263
 20
31.4467
 10
24.6137
 20
31.4432
 10
24.6013
 20
31.44
 10
24.5891
 20
31.4371
 10
24.5772
 20
31.4345
 10
24.5654
 20
31.4322
 10
24.5539
 20
31.4302
 10
24.5426
 20
31.4285
 10
24.5315
 20
31.4271
 10
24.5207
 20
31.426
 10
24.5101
 20
31.4252
 10
24.4997
 20
31.4247
 10
24.4896
 20
31.4245
 10
24.4797
 20
31.4246
 10
24.4701
 20
31.425
 10
24.4608
 20
31.4257
 10
24.4517
 20
31.4268
 10
24.4497
 20
31.4271
 10
24.4438
 20
31.433
 10
24.4371
 20
31.44
 10
24.4305
 20
31.4473
 10
24.424
 20
31.4549
 10
24.4176
 20
31.4628
 10
24.4112
 20
31.471
 10
24.4048
 20
31.4794
 10
24.3986
 20
31.4882
 10
24.3924
 20
31.4972
 10
24.3863
 20
31.5064
 10
24.3802
 20
31.516
 10
24.3742
 20
31.5259
 10
24.3683
 20
31.536
 10
24.3624
 20
31.5464
 10
24.3566
 20
31.5571
 10
24.3509
 20
31.568
 10
24.3452
 20
31.5793
 10
24.3397
 20
31.5908
 10
24.3341
 20
31.6026
 10
24.3287
 20
31.6147
 10
24.3233
 20
31.627
 10
24.318
 20
31.6396
 10
24.3127
 20
31.6525
 10
24.3075
 20
31.6657
 10
24.3024
 20
31.6791
 10
24.2974
 20
31.6929
 10
24.2924
 20
31.7068
 10
24.2875
 20
31.7211
 10
24.2852
 20
31.728
 10
24.2831
 20
31.7391
 10
24.2807
 20
31.7527
 10
24.2782
 20
31.7666
 10
24.2757
 20
31.7808
 10
24.2732
 20
31.7953
 10
24.2707
 20
31.8101
 10
24.2681
 20
31.8252
 10
24.2656
 20
31.8406
 10
24.263
 20
31.8562
 10
24.2604
 20
31.8721
 10
24.2578
 20
31.8883
 10
24.2552
 20
31.9047
 10
24.2526
 20
31.9214
 10
24.25
 20
31.9384
 10
24.2473
 20
31.9556
 10
24.2447
 20
31.9731
 10
24.242
 20
31.9909
 10
24.2393
 20
32.0088
 10
24.2366
 20
32.027
 10
24.2339
 20
32.0455
 10
24.2312
 20
32.0642
 10
24.2285
 20
32.0831
 10
24.2258
 20
32.1023
 10
24.2231
 20
32.1216
 10
24.2204
 20
32.1412
 10
24.2176
 20
32.161
 10
24.2149
 20
32.1811
 10
24.2121
 20
32.2013
 10
24.2094
 20
32.2217
 10
24.2066
 20
32.2424
 10
24.2039
 20
32.2632
 10
24.2011
 20
32.2842
 10
24.1984
 20
32.3055
 10
24.1956
 20
32.3269
 10
24.1929
 20
32.3485
 10
24.1901
 20
32.3703
 10
24.1873
 20
32.3922
 10
24.1846
 20
32.4143
 10
24.1818
 20
32.4366
 10
24.1791
 20
32.4591
 10
24.1763
 20
32.4817
 10
24.1736
 20
32.5045
 10
24.1708
 20
32.5274
 10
24.1681
 20
32.5505
 10
24.1653
 20
32.5738
 10
24.1626
 20
32.5971
 10
24.1599
 20
32.6207
 10
24.1572
 20
32.6443
 10
24.1544
 20
32.6681
 10
24.1517
 20
32.692
 10
24.149
 20
32.7161
 10
24.1463
 20
32.7402
 10
24.1437
 20
32.7645
 10
24.141
 20
32.7889
 10
24.1383
 20
32.8134
 10
24.1357
 20
32.8381
 10
24.133
 20
32.8628
 10
24.1304
 20
32.8876
 10
24.1278
 20
32.9125
 10
24.1267
 20
32.923
 10
24.1262
 20
32.9378
 10
24.1255
 20
32.9667
 10
24.1248
 20
32.9959
 10
24.1238
 20
33.0317
 10
24.1225
 20
33.0682
 10
24.121
 20
33.1054
 10
24.1191
 20
33.1433
 10
24.117
 20
33.1819
 10
24.1145
 20
33.2212
 10
24.1118
 20
33.2612
 10
24.1088
 20
33.3018
 10
24.1055
 20
33.3423
 10
24.1041
 20
33.3705
 10
24.1022
 20
33.4037
 10
24.1
 20
33.4378
 10
24.0974
 20
33.4727
 10
24.0945
 20
33.5084
 10
24.0913
 20
33.5448
 10
24.0879
 20
33.582
 10
24.0841
 20
33.6199
 10
24.08
 20
33.6585
 10
24.0757
 20
33.6979
 10
24.071
 20
33.7379
 10
24.0661
 20
33.7785
 10
24.0609
 20
33.8198
 10
24.0554
 20
33.8617
 10
24.0497
 20
33.9042
 10
24.0437
 20
33.9473
 10
24.0375
 20
33.991
 10
24.031
 20
34.0352
 10
24.0242
 20
34.0799
 10
24.0172
 20
34.1251
 10
24.01
 20
34.1708
 10
24.0025
 20
34.217
 10
23.9948
 20
34.2636
 10
23.9868
 20
34.3107
 10
23.9787
 20
34.3582
 10
23.9703
 20
34.406
 10
23.9617
 20
34.4543
 10
23.9529
 20
34.5029
 10
23.9439
 20
34.5518
 10
23.9347
 20
34.6011
 10
23.9253
 20
34.6506
 10
23.9157
 20
34.7004
 10
23.9059
 20
34.7505
 10
23.8959
 20
34.8009
 10
23.8857
 20
34.8514
 10
23.8754
 20
34.9022
 10
23.8649
 20
34.9531
 10
23.8542
 20
35.0042
 10
23.8434
 20
35.0555
 10
23.8324
 20
35.1069
 10
23.8213
 20
35.1584
 10
23.81
 20
35.21
 10
23.7985
 20
35.2617
 10
23.787
 20
35.3134
 10
23.7752
 20
35.3651
 10
23.7655
 20
35.4079
 10
23.7644
 20
35.4131
 10
23.7536
 20
35.464
 10
23.7427
 20
35.5147
 10
23.7317
 20
35.5651
 10
23.7206
 20
35.6153
 10
23.7094
 20
35.6653
 10
23.6981
 20
35.7151
 10
23.6866
 20
35.7646
 10
23.6751
 20
35.8139
 10
23.6635
 20
35.8629
 10
23.6518
 20
35.9117
 10
23.64
 20
35.9602
 10
23.6281
 20
36.0085
 10
23.6161
 20
36.0564
 10
23.6041
 20
36.1041
 10
23.5919
 20
36.1515
 10
23.5797
 20
36.1986
 10
23.5673
 20
36.2455
 10
23.5636
 20
36.2594
 10
23.5591
 20
36.2763
 10
23.5466
 20
36.323
 10
23.534
 20
36.3694
 10
23.5213
 20
36.4154
 10
23.5085
 20
36.4612
 10
23.4957
 20
36.5065
 10
23.4827
 20
36.5515
 10
23.4697
 20
36.5962
 10
23.4566
 20
36.6405
 10
23.4435
 20
36.6844
 10
23.4302
 20
36.728
 10
23.4169
 20
36.7712
 10
23.4035
 20
36.814
 10
23.3901
 20
36.8564
 10
23.3765
 20
36.8984
 10
23.3629
 20
36.9401
 10
23.3493
 20
36.9813
 10
23.3356
 20
37.0222
 10
23.3218
 20
37.0626
 10
23.3079
 20
37.1026
 10
23.294
 20
37.1422
 10
23.28
 20
37.1814
 10
23.2659
 20
37.2201
 10
23.2518
 20
37.2585
 10
23.2376
 20
37.2963
 10
23.2234
 20
37.3338
 10
23.2091
 20
37.3708
 10
23.1948
 20
37.4073
 10
23.1804
 20
37.4434
 10
23.166
 20
37.479
 10
23.1515
 20
37.5141
 10
23.1369
 20
37.5488
 10
23.1223
 20
37.583
 10
23.1077
 20
37.6168
 10
23.093
 20
37.65
 10
23.0782
 20
37.6827
 10
23.0634
 20
37.715
 10
23.0486
 20
37.7467
 10
23.0337
 20
37.778
 10
23.0188
 20
37.8087
 10
23.0039
 20
37.8389
 10
22.9889
 20
37.8686
 10
22.9829
 20
37.88
 10
22.9766
 20
37.8918
 10
22.9698
 20
37.9041
 10
22.9626
 20
37.9168
 10
22.9549
 20
37.9299
 10
22.9469
 20
37.9434
 10
22.9384
 20
37.9573
 10
22.9295
 20
37.9717
 10
22.9202
 20
37.9864
 10
22.9105
 20
38.0015
 10
22.9004
 20
38.0171
 10
22.8899
 20
38.033
 10
22.879
 20
38.0493
 10
22.8677
 20
38.066
 10
22.856
 20
38.083
 10
22.844
 20
38.1004
 10
22.8316
 20
38.1182
 10
22.8188
 20
38.1363
 10
22.8056
 20
38.1548
 10
22.7921
 20
38.1736
 10
22.7782
 20
38.1928
 10
22.764
 20
38.2123
 10
22.7495
 20
38.2321
 10
22.7345
 20
38.2523
 10
22.7193
 20
38.2727
 10
22.7037
 20
38.2935
 10
22.6878
 20
38.3146
 10
22.6715
 20
38.336
 10
22.655
 20
38.3577
 10
22.6381
 20
38.3797
 10
22.6209
 20
38.4019
 10
22.6034
 20
38.4245
 10
22.5856
 20
38.4473
 10
22.5675
 20
38.4704
 10
22.5491
 20
38.4938
 10
22.5304
 20
38.5174
 10
22.5114
 20
38.5413
 10
22.4921
 20
38.5655
 10
22.4726
 20
38.5898
 10
22.4671
 20
38.5966
 10
22.4539
 20
38.6137
 10
22.4338
 20
38.6395
 10
22.4134
 20
38.6655
 10
22.3928
 20
38.6917
 10
22.3718
 20
38.7181
 10
22.3506
 20
38.7447
 10
22.3291
 20
38.7715
 10
22.3074
 20
38.7985
 10
22.2853
 20
38.8257
 10
22.263
 20
38.8531
 10
22.2404
 20
38.8807
 10
22.2175
 20
38.9084
 10
22.1943
 20
38.9364
 10
22.1708
 20
38.9646
 10
22.1471
 20
38.993
 10
22.123
 20
39.0216
 10
22.0987
 20
39.0504
 10
22.0741
 20
39.0795
 10
22.0492
 20
39.1087
 10
22.024
 20
39.1381
 10
21.9985
 20
39.1678
 10
21.9727
 20
39.1977
 10
21.9466
 20
39.2277
 10
21.9202
 20
39.258
 10
21.8936
 20
39.2886
 10
21.8666
 20
39.3193
 10
21.8393
 20
39.3502
 10
21.8118
 20
39.3814
 10
21.7839
 20
39.4128
 10
21.7558
 20
39.4444
 10
21.7273
 20
39.4763
 10
21.6985
 20
39.5083
 10
21.6695
 20
39.5406
 10
21.6401
 20
39.5731
 10
21.6104
 20
39.6059
 10
21.5805
 20
39.6388
 10
21.5502
 20
39.6721
 10
21.5196
 20
39.7055
 10
21.4887
 20
39.7392
 10
21.4575
 20
39.7731
 10
21.4259
 20
39.8072
 10
21.3941
 20
39.8416
 10
21.362
 20
39.8762
 10
21.3295
 20
39.9111
 10
21.2968
 20
39.9461
 10
21.2637
 20
39.9815
 10
21.2303
 20
40.0171
 10
21.1966
 20
40.0529
 10
21.1625
 20
40.0889
 10
21.1282
 20
40.1253
 10
21.0935
 20
40.1618
 10
21.0585
 20
40.1986
 10
21.0232
 20
40.2357
 10
20.9876
 20
40.273
 10
20.9516
 20
40.3105
 10
20.8621
 20
40.4043
 10
20.7743
 20
40.4972
 10
20.6879
 20
40.5892
 10
20.6032
 20
40.6805
 10
20.52
 20
40.771
 10
20.4384
 20
40.8607
 10
20.3584
 20
40.9497
 10
20.2799
 20
41.0379
 10
20.2029
 20
41.1254
 10
20.1275
 20
41.2123
 10
20.0536
 20
41.2984
 10
19.9813
 20
41.3839
 10
19.9105
 20
41.4688
 10
19.8412
 20
41.553
 10
19.7735
 20
41.6367
 10
19.7073
 20
41.7197
 10
19.6425
 20
41.8022
 10
19.5794
 20
41.8842
 10
19.5177
 20
41.9656
 10
19.4575
 20
42.0465
 10
19.3988
 20
42.1269
 10
19.3416
 20
42.2069
 10
19.2859
 20
42.2864
 10
19.2317
 20
42.3654
 10
19.179
 20
42.444
 10
19.1278
 20
42.5223
 10
19.0781
 20
42.6001
 10
19.0298
 20
42.6776
 10
18.983
 20
42.7547
 10
18.9376
 20
42.8316
 10
18.8937
 20
42.9081
 10
18.8513
 20
42.9843
 10
18.8103
 20
43.0602
 10
18.7708
 20
43.1359
 10
18.7327
 20
43.2114
 10
18.6961
 20
43.2866
 10
18.6609
 20
43.3617
 10
18.6271
 20
43.4365
 10
18.5948
 20
43.5112
 10
18.5638
 20
43.5858
 10
18.5343
 20
43.6602
 10
18.5063
 20
43.7345
 10
18.4835
 20
43.798
 10
18.4789
 20
43.8108
 10
18.4689
 20
43.8402
 10
18.4523
 20
43.8894
 10
18.4287
 20
43.9634
 10
18.4065
 20
44.0373
 10
18.3857
 20
44.1112
 10
18.3663
 20
44.1852
 10
18.3482
 20
44.2591
 10
18.3315
 20
44.3332
 10
18.3162
 20
44.4072
 10
18.3023
 20
44.4814
 10
18.2897
 20
44.5556
 10
18.2785
 20
44.63
 10
18.2686
 20
44.7045
 10
18.2601
 20
44.7792
 10
18.253
 20
44.854
 10
18.2472
 20
44.9291
 10
18.2427
 20
45.0043
 10
18.2396
 20
45.0798
 10
18.2378
 20
45.1555
 10
18.2373
 20
45.2314
 10
18.2381
 20
45.3077
 10
18.2403
 20
45.3842
 10
18.2438
 20
45.4611
 10
18.2486
 20
45.5383
 10
18.2547
 20
45.6158
 10
18.2621
 20
45.6938
 10
18.2708
 20
45.7721
 10
18.2809
 20
45.8508
 10
18.2922
 20
45.9299
 10
18.3048
 20
46.0095
 10
18.3186
 20
46.0895
 10
18.3338
 20
46.17
 10
18.3503
 20
46.251
 10
18.368
 20
46.3325
 10
18.387
 20
46.4146
 10
18.4072
 20
46.4972
 10
18.4287
 20
46.5804
 10
18.4515
 20
46.6641
 10
18.4755
 20
46.7485
 10
18.5008
 20
46.8334
 10
18.5274
 20
46.9191
 10
18.5551
 20
47.0053
 10
18.5841
 20
47.0923
 10
18.6144
 20
47.1799
 10
18.6459
 20
47.2683
 10
18.6786
 20
47.3574
 10
18.7125
 20
47.4472
 10
18.7477
 20
47.5378
 10
18.784
 20
47.6291
 10
18.8216
 20
47.7213
 10
18.8604
 20
47.8143
 10
18.9004
 20
47.9081
 10
18.9416
 20
48.0028
 10
18.984
 20
48.0984
 10
19.0276
 20
48.1948
 10
19.0723
 20
48.2922
 10
19.1183
 20
48.3905
 10
19.1654
 20
48.4897
 10
19.1758
 20
48.5113
 10
19.1861
 20
48.5329
 10
19.1963
 20
48.5544
 10
19.2065
 20
48.5758
 10
19.2166
 20
48.5971
 10
19.2266
 20
48.6183
 10
19.2365
 20
48.6394
 10
19.2464
 20
48.6604
 10
19.2562
 20
48.6813
 10
19.266
 20
48.7022
 10
19.2756
 20
48.7229
 10
19.2852
 20
48.7435
 10
19.2947
 20
48.7639
 10
19.3042
 20
48.7843
 10
19.3135
 20
48.8046
 10
19.3228
 20
48.8247
 10
19.332
 20
48.8447
 10
19.3411
 20
48.8646
 10
19.3502
 20
48.8844
 10
19.3591
 20
48.904
 10
19.368
 20
48.9235
 10
19.3768
 20
48.9428
 10
19.3855
 20
48.962
 10
19.3941
 20
48.9811
 10
19.4026
 20
49
 10
19.411
 20
49.0188
 10
19.4194
 20
49.0374
 10
19.4276
 20
49.0559
 10
19.4357
 20
49.0742
 10
19.4438
 20
49.0924
 10
19.4518
 20
49.1104
 10
19.4596
 20
49.1282
 10
19.4674
 20
49.1459
 10
19.475
 20
49.1634
 10
19.4826
 20
49.1807
 10
19.4901
 20
49.1979
 10
19.4974
 20
49.2148
 10
19.5047
 20
49.2316
 10
19.5118
 20
49.2482
 10
19.5189
 20
49.2646
 10
19.5258
 20
49.2809
 10
19.5326
 20
49.2969
 10
19.5393
 20
49.3128
 10
19.5459
 20
49.3284
 10
19.5524
 20
49.3438
 10
19.5588
 20
49.3591
 10
19.5651
 20
49.3741
 10
19.5712
 20
49.389
 10
19.5772
 20
49.4036
 10
19.5832
 20
49.418
 10
19.589
 20
49.4322
 10
19.5946
 20
49.4461
 10
19.6002
 20
49.4599
 10
19.6056
 20
49.4734
 10
19.6109
 20
49.4867
 10
19.6161
 20
49.4997
 10
19.6212
 20
49.5126
 10
19.6261
 20
49.5251
 10
19.6309
 20
49.5375
 10
19.6356
 20
49.5496
 10
19.6401
 20
49.5615
 10
19.6445
 20
49.5731
 10
19.6488
 20
49.5845
 10
19.653
 20
49.5956
 10
19.657
 20
49.6064
 10
19.6609
 20
49.617
 10
19.6646
 20
49.6274
 10
19.6682
 20
49.6374
 10
19.6717
 20
49.6473
 10
19.675
 20
49.6568
 10
19.6782
 20
49.6661
 10
19.6812
 20
49.6751
 10
19.6841
 20
49.6838
 10
19.6869
 20
49.6922
 10
19.6895
 20
49.7004
 10
19.6919
 20
49.7082
 10
19.6942
 20
49.7158
 10
19.6964
 20
49.7231
 10
19.6984
 20
49.7301
 10
19.7003
 20
49.7368
 10
19.702
 20
49.7432
 10
19.7035
 20
49.7493
 10
19.7049
 20
49.7551
 10
19.7062
 20
49.7605
 10
19.7072
 20
49.7657
 10
19.7082
 20
49.7706
 10
19.7089
 20
49.7751
 10
19.7095
 20
49.7793
 10
19.71
 20
49.7832
 10
19.7103
 20
49.7868
 10
19.7104
 20
49.79
 10
19.7103
 20
49.793
 10
19.7101
 20
49.7955
 10
19.7097
 20
49.7978
 10
19.7092
 20
49.7997
 10
19.7085
 20
49.8013
 10
19.7076
 20
49.8025
 10
19.7065
 20
49.8034
 10
19.7053
 20
49.8039
 10
19.7039
 20
49.8041
 10
19.6957
 20
49.8037
 10
19.6869
 20
49.8026
 10
19.6774
 20
49.8007
 10
19.6671
 20
49.7981
 10
19.6562
 20
49.7948
 10
19.6445
 20
49.7908
 10
19.6322
 20
49.7861
 10
19.6192
 20
49.7807
 10
19.6056
 20
49.7746
 10
19.5914
 20
49.7678
 10
19.5764
 20
49.7604
 10
19.5609
 20
49.7522
 10
19.5448
 20
49.7435
 10
19.528
 20
49.7341
 10
19.5106
 20
49.724
 10
19.4927
 20
49.7133
 10
19.4742
 20
49.702
 10
19.4551
 20
49.6901
 10
19.4354
 20
49.6775
 10
19.4152
 20
49.6644
 10
19.3945
 20
49.6507
 10
19.3732
 20
49.6364
 10
19.3514
 20
49.6215
 10
19.3291
 20
49.606
 10
19.3062
 20
49.59
 10
19.2829
 20
49.5734
 10
19.2591
 20
49.5563
 10
19.2349
 20
49.5387
 10
19.2101
 20
49.5205
 10
19.1849
 20
49.5018
 10
19.1593
 20
49.4826
 10
19.1332
 20
49.4629
 10
19.1067
 20
49.4427
 10
19.0798
 20
49.4221
 10
19.0524
 20
49.4009
 10
19.0247
 20
49.3793
 10
18.9966
 20
49.3572
 10
18.968
 20
49.3346
 10
18.9392
 20
49.3116
 10
18.9099
 20
49.2882
 10
18.8803
 20
49.2643
 10
18.8504
 20
49.24
 10
18.8201
 20
49.2153
 10
18.7895
 20
49.1902
 10
18.7586
 20
49.1647
 10
18.7274
 20
49.1388
 10
18.6959
 20
49.1125
 10
18.6641
 20
49.0859
 10
18.632
 20
49.0589
 10
18.5997
 20
49.0315
 10
18.5671
 20
49.0038
 10
18.5343
 20
48.9757
 10
18.5012
 20
48.9473
 10
18.4679
 20
48.9185
 10
18.4343
 20
48.8895
 10
18.4006
 20
48.8601
 10
18.3666
 20
48.8305
 10
18.3325
 20
48.8005
 10
18.2982
 20
48.7703
 10
18.2637
 20
48.7397
 10
18.2291
 20
48.7089
 10
18.1942
 20
48.6779
 10
18.1593
 20
48.6466
 10
18.1242
 20
48.615
 10
18.089
 20
48.5832
 10
18.0537
 20
48.5512
 10
18.0182
 20
48.519
 10
17.9827
 20
48.4865
 10
17.9471
 20
48.4539
 10
17.9114
 20
48.421
 10
17.8756
 20
48.3879
 10
17.8398
 20
48.3547
 10
17.804
 20
48.3213
 10
17.768
 20
48.2877
 10
17.7321
 20
48.254
 10
17.6961
 20
48.2201
 10
17.6602
 20
48.1861
 10
17.6242
 20
48.152
 10
17.5882
 20
48.1177
 10
17.5523
 20
48.0833
 10
17.5163
 20
48.0488
 10
17.4805
 20
48.0142
 10
17.4446
 20
47.9795
 10
17.4088
 20
47.9447
 10
17.3731
 20
47.9098
 10
17.3374
 20
47.8749
 10
17.3019
 20
47.8399
 10
17.2664
 20
47.8049
 10
17.231
 20
47.7698
 10
17.1958
 20
47.7346
 10
17.1606
 20
47.6995
 10
17.1256
 20
47.6643
 10
17.0907
 20
47.6291
 10
17.056
 20
47.5939
 10
17.0214
 20
47.5587
 10
16.987
 20
47.5235
 10
16.9528
 20
47.4884
 10
16.9188
 20
47.4532
 10
16.885
 20
47.4181
 10
16.8513
 20
47.3831
 10
16.7698
 20
47.2974
 10
16.6892
 20
47.2119
 10
16.6095
 20
47.1264
 10
16.5308
 20
47.0411
 10
16.453
 20
46.9558
 10
16.3761
 20
46.8706
 10
16.3002
 20
46.7855
 10
16.2252
 20
46.7004
 10
16.1511
 20
46.6155
 10
16.0779
 20
46.5305
 10
16.0057
 20
46.4457
 10
15.9344
 20
46.3609
 10
15.864
 20
46.2761
 10
15.7945
 20
46.1914
 10
15.7259
 20
46.1066
 10
15.6582
 20
46.022
 10
15.5914
 20
45.9373
 10
15.5255
 20
45.8527
 10
15.4605
 20
45.768
 10
15.3965
 20
45.6834
 10
15.3333
 20
45.5987
 10
15.271
 20
45.5141
 10
15.2096
 20
45.4294
 10
15.1491
 20
45.3448
 10
15.0894
 20
45.2601
 10
15.0307
 20
45.1753
 10
14.9728
 20
45.0906
 10
14.9158
 20
45.0058
 10
14.8597
 20
44.9209
 10
14.8044
 20
44.836
 10
14.7501
 20
44.751
 10
14.6966
 20
44.666
 10
14.6439
 20
44.5809
 10
14.5921
 20
44.4957
 10
14.5412
 20
44.4105
 10
14.4912
 20
44.3251
 10
14.442
 20
44.2397
 10
14.3936
 20
44.1541
 10
14.3461
 20
44.0685
 10
14.2995
 20
43.9828
 10
14.2537
 20
43.8969
 10
14.2087
 20
43.8109
 10
14.1646
 20
43.7248
 10
14.1213
 20
43.6386
 10
14.0789
 20
43.5522
 10
14.0372
 20
43.4657
 10
13.9965
 20
43.379
 10
13.9565
 20
43.2922
 10
13.9174
 20
43.2052
 10
13.8791
 20
43.1181
 10
13.8416
 20
43.0308
 10
13.8049
 20
42.9433
 10
13.7691
 20
42.8556
 10
13.7341
 20
42.7678
 10
13.6999
 20
42.6797
 10
13.6665
 20
42.5915
 10
13.6338
 20
42.503
 10
13.6021
 20
42.4144
 10
13.5711
 20
42.3255
 10
13.5409
 20
42.2364
 10
13.5115
 20
42.1471
 10
13.4829
 20
42.0575
 10
13.4551
 20
41.9677
 10
13.428
 20
41.8777
 10
13.4018
 20
41.7874
 10
13.3764
 20
41.6969
 10
13.3517
 20
41.6061
 10
13.3278
 20
41.515
 10
13.3047
 20
41.4237
 10
13.2824
 20
41.332
 10
13.2608
 20
41.2401
 10
13.24
 20
41.148
 10
13.22
 20
41.0555
 10
13.2008
 20
40.9627
 10
13.1823
 20
40.8696
 10
13.1645
 20
40.7762
 10
13.1476
 20
40.6825
 10
13.1314
 20
40.5885
 10
13.1159
 20
40.4941
 10
13.1012
 20
40.3994
 10
13.0872
 20
40.3044
 10
13.074
 20
40.209
 10
13.0615
 20
40.1133
 10
13.0498
 20
40.0172
 10
13.0388
 20
39.9208
 10
13.0286
 20
39.824
 10
13.019
 20
39.7268
 10
13.0103
 20
39.6293
 10
13.0022
 20
39.5313
 10
12.9949
 20
39.433
 10
12.9883
 20
39.3343
 10
12.9824
 20
39.2351
 10
12.9772
 20
39.1356
 10
12.9728
 20
39.0357
 10
12.969
 20
38.9353
 10
12.966
 20
38.8345
 10
12.9637
 20
38.7333
 10
12.9621
 20
38.6317
 10
12.9612
 20
38.5296
 10
12.961
 20
38.4271
 10
12.9611
 20
38.3724
 10
12.9614
 20
38.3181
 10
12.9618
 20
38.2642
 10
12.9624
 20
38.2108
 10
12.963
 20
38.1578
 10
12.9639
 20
38.1051
 10
12.9648
 20
38.0529
 10
12.966
 20
38.001
 10
12.9673
 20
37.9494
 10
12.9687
 20
37.8982
 10
12.9703
 20
37.8473
 10
12.972
 20
37.7966
 10
12.9739
 20
37.7463
 10
12.976
 20
37.6963
 10
12.9783
 20
37.6465
 10
12.9807
 20
37.5969
 10
12.9833
 20
37.5476
 10
12.986
 20
37.4985
 10
12.989
 20
37.4497
 10
12.9921
 20
37.401
 10
12.9954
 20
37.3524
 10
12.999
 20
37.3041
 10
13.0027
 20
37.2559
 10
13.0065
 20
37.2078
 10
13.0106
 20
37.1599
 10
13.0149
 20
37.112
 10
13.0194
 20
37.0643
 10
13.0241
 20
37.0166
 10
13.029
 20
36.969
 10
13.0341
 20
36.9214
 10
13.0395
 20
36.8739
 10
13.045
 20
36.8264
 10
13.0508
 20
36.7789
 10
13.0568
 20
36.7314
 10
13.063
 20
36.6839
 10
13.0695
 20
36.6364
 10
13.0761
 20
36.5888
 10
13.0831
 20
36.5411
 10
13.0902
 20
36.4934
 10
13.0976
 20
36.4455
 10
13.1052
 20
36.3976
 10
13.1131
 20
36.3496
 10
13.1212
 20
36.3014
 10
13.1296
 20
36.2531
 10
13.1382
 20
36.2046
 10
13.1471
 20
36.1559
 10
13.1563
 20
36.1071
 10
13.1657
 20
36.058
 10
13.1754
 20
36.0088
 10
13.1853
 20
35.9593
 10
13.1955
 20
35.9095
 10
13.206
 20
35.8595
 10
13.2168
 20
35.8093
 10
13.2278
 20
35.7587
 10
13.2392
 20
35.7079
 10
13.2508
 20
35.6567
 10
13.2627
 20
35.6052
 10
13.2749
 20
35.5534
 10
13.2874
 20
35.5012
 10
13.3002
 20
35.4486
 10
13.3133
 20
35.3957
 10
13.3266
 20
35.3423
 10
13.3403
 20
35.2886
 10
13.3543
 20
35.2344
 10
13.3687
 20
35.1797
 10
13.3833
 20
35.1247
 10
13.3982
 20
35.0691
 10
13.4135
 20
35.0131
 10
13.4291
 20
34.9565
 10
13.445
 20
34.8995
 10
13.4612
 20
34.8419
 10
13.4778
 20
34.7838
 10
13.4947
 20
34.7252
 10
13.512
 20
34.6659
 10
13.5296
 20
34.6061
 10
13.5475
 20
34.5457
 10
13.5658
 20
34.4847
 10
13.5844
 20
34.4231
 10
13.6033
 20
34.3608
 10
13.6227
 20
34.2979
 10
13.6424
 20
34.2343
 10
13.6624
 20
34.1701
 10
13.6828
 20
34.1051
 10
13.7036
 20
34.0395
 10
13.7247
 20
33.9731
 10
13.7462
 20
33.9059
 10
13.7681
 20
33.8381
 10
13.7904
 20
33.7694
 10
13.813
 20
33.7
 10
13.836
 20
33.6298
 10
13.8594
 20
33.5588
 10
13.8832
 20
33.487
 10
13.9074
 20
33.4144
 10
13.932
 20
33.3408
 10
13.957
 20
33.2665
 10
13.9823
 20
33.1912
 10
14.0081
 20
33.1151
 10
14.0343
 20
33.0381
 10
14.0609
 20
32.9601
 10
14.0879
 20
32.8812
 10
14.1027
 20
32.838
 10
14.1173
 20
32.7953
 10
14.1316
 20
32.7531
 10
14.1458
 20
32.7114
 10
14.1597
 20
32.6701
 10
14.1734
 20
32.6294
 10
14.1869
 20
32.5891
 10
14.2002
 20
32.5492
 10
14.2133
 20
32.5099
 10
14.2262
 20
32.471
 10
14.2389
 20
32.4325
 10
14.2513
 20
32.3945
 10
14.2636
 20
32.357
 10
14.2756
 20
32.3198
 10
14.2875
 20
32.2831
 10
14.2992
 20
32.2469
 10
14.3106
 20
32.211
 10
14.3219
 20
32.1756
 10
14.3329
 20
32.1405
 10
14.3438
 20
32.1059
 10
14.3545
 20
32.0717
 10
14.3649
 20
32.0379
 10
14.3752
 20
32.0044
 10
14.3853
 20
31.9713
 10
14.3952
 20
31.9387
 10
14.4049
 20
31.9063
 10
14.4144
 20
31.8744
 10
14.4238
 20
31.8428
 10
14.4329
 20
31.8116
 10
14.4419
 20
31.7807
 10
14.4507
 20
31.7502
 10
14.4593
 20
31.72
 10
14.4677
 20
31.6901
 10
14.4759
 20
31.6606
 10
14.484
 20
31.6314
 10
14.4919
 20
31.6025
 10
14.4996
 20
31.5739
 10
14.5071
 20
31.5456
 10
14.5144
 20
31.5177
 10
14.5216
 20
31.49
 10
14.5286
 20
31.4626
 10
14.5355
 20
31.4355
 10
14.5421
 20
31.4087
 10
14.5486
 20
31.3822
 10
14.555
 20
31.3559
 10
14.5611
 20
31.33
 10
14.5671
 20
31.3042
 10
14.573
 20
31.2787
 10
14.5787
 20
31.2535
 10
14.5842
 20
31.2285
 10
14.5895
 20
31.2038
 10
14.5947
 20
31.1793
 10
14.5998
 20
31.155
 10
14.6046
 20
31.1309
 10
14.6094
 20
31.1071
 10
14.6139
 20
31.0834
 10
14.6184
 20
31.06
 10
14.6226
 20
31.0368
 10
14.6267
 20
31.0138
 10
14.6307
 20
30.9909
 10
14.6345
 20
30.9683
 10
14.6382
 20
30.9458
 10
14.6417
 20
30.9235
 10
14.6451
 20
30.9014
 10
14.6483
 20
30.8794
 10
14.6514
 20
30.8576
 10
14.6544
 20
30.836
 10
14.6572
 20
30.8144
 10
14.6598
 20
30.7931
 10
14.6624
 20
30.7719
 10
14.6647
 20
30.7508
 10
14.667
 20
30.7298
 10
14.6691
 20
30.709
 10
14.6711
 20
30.6882
 10
14.673
 20
30.6676
 10
14.6747
 20
30.6471
 10
14.6763
 20
30.6267
 10
14.6778
 20
30.6064
 10
14.6791
 20
30.5862
 10
14.6803
 20
30.566
 10
14.6814
 20
30.546
 10
14.6824
 20
30.526
 10
14.6832
 20
30.5061
 10
14.6839
 20
30.4862
 10
14.6845
 20
30.4664
 10
14.685
 20
30.4467
 10
14.6854
 20
30.427
 10
14.6856
 20
30.4073
 10
14.6857
 20
30.3877
 10
14.6857
 20
30.3681
 10
14.6856
 20
30.3486
 10
14.6854
 20
30.329
 10
14.6851
 20
30.3095
 10
14.6847
 20
30.29
 10
14.6841
 20
30.2705
 10
14.6835
 20
30.251
 10
14.6827
 20
30.2314
 10
14.6818
 20
30.2119
 10
14.6809
 20
30.1924
 10
14.6798
 20
30.1728
 10
14.6785
 20
30.1513
 10
14.6773
 20
30.1302
 10
14.676
 20
30.1094
 10
14.6747
 20
30.089
 10
14.6734
 20
30.0689
 10
14.6721
 20
30.0491
 10
14.6708
 20
30.0297
 10
14.6694
 20
30.0106
 10
14.6681
 20
29.9919
 10
14.6667
 20
29.9735
 10
14.6653
 20
29.9554
 10
14.6639
 20
29.9376
 10
14.6624
 20
29.9202
 10
14.6609
 20
29.9031
 10
14.6594
 20
29.8863
 10
14.6579
 20
29.8698
 10
14.6563
 20
29.8536
 10
14.6547
 20
29.8377
 10
14.6531
 20
29.8221
 10
14.6514
 20
29.8069
 10
14.6497
 20
29.7919
 10
14.648
 20
29.7772
 10
14.6462
 20
29.7628
 10
14.6444
 20
29.7487
 10
14.6425
 20
29.7349
 10
14.6406
 20
29.7213
 10
14.6387
 20
29.7081
 10
14.6367
 20
29.6951
 10
14.6347
 20
29.6823
 10
14.6326
 20
29.6699
 10
14.6304
 20
29.6577
 10
14.6283
 20
29.6458
 10
14.626
 20
29.6341
 10
14.6237
 20
29.6227
 10
14.6214
 20
29.6116
 10
14.619
 20
29.6007
 10
14.6166
 20
29.59
 10
14.614
 20
29.5796
 10
14.6115
 20
29.5694
 10
14.6088
 20
29.5595
 10
14.6061
 20
29.5498
 10
14.6034
 20
29.5403
 10
14.6006
 20
29.5311
 10
14.5977
 20
29.5221
 10
14.5947
 20
29.5133
 10
14.5917
 20
29.5047
 10
14.5886
 20
29.4964
 10
14.5854
 20
29.4882
 10
14.5822
 20
29.4803
 10
14.5788
 20
29.4726
 10
14.5754
 20
29.465
 10
14.572
 20
29.4577
 10
14.5684
 20
29.4506
 10
14.5648
 20
29.4437
 10
14.5611
 20
29.4369
 10
14.5573
 20
29.4304
 10
14.5534
 20
29.424
 10
14.5494
 20
29.4179
 10
14.5454
 20
29.4119
 10
14.5412
 20
29.406
 10
14.537
 20
29.4004
 10
14.5327
 20
29.3949
 10
14.5283
 20
29.3896
 10
14.5237
 20
29.3845
 10
14.5191
 20
29.3795
 10
14.5144
 20
29.3747
 10
14.5096
 20
29.37
 10
14.5047
 20
29.3655
 10
14.4997
 20
29.3611
 10
14.4946
 20
29.3569
 10
14.4894
 20
29.3528
 10
14.4841
 20
29.3488
 10
14.4787
 20
29.345
 10
14.4732
 20
29.3414
 10
14.4676
 20
29.3378
 10
14.4618
 20
29.3344
 10
14.456
 20
29.3311
 10
14.45
 20
29.3279
 10
14.4439
 20
29.3249
 10
14.4377
 20
29.3219
 10
14.4314
 20
29.3191
 10
14.425
 20
29.3164
 10
14.4184
 20
29.3138
 10
14.4118
 20
29.3113
 10
14.405
 20
29.3089
 10
14.3981
 20
29.3065
 10
14.391
 20
29.3043
 10
14.3838
 20
29.3022
 10
14.3766
 20
29.3001
 10
14.3691
 20
29.2982
 10
14.3616
 20
29.2963
 10
14.3539
 20
29.2945
 10
14.3461
 20
29.2928
 10
14.3381
 20
29.2911
 10
14.33
 20
29.2895
 10
14.3218
 20
29.288
 10
14.3134
 20
29.2866
 10
14.3049
 20
29.2852
 10
14.2963
 20
29.2838
 10
14.2875
 20
29.2825
 10
14.2651
 20
29.2799
 10
14.2424
 20
29.2784
 10
14.2194
 20
29.2779
 10
14.1962
 20
29.2785
 10
14.1727
 20
29.2801
 10
14.149
 20
29.2828
 10
14.125
 20
29.2866
 10
14.1007
 20
29.2913
 10
14.0763
 20
29.2971
 10
14.0516
 20
29.3039
 10
14.0267
 20
29.3117
 10
14.0015
 20
29.3204
 10
13.9762
 20
29.3302
 10
13.9507
 20
29.3409
 10
13.9249
 20
29.3526
 10
13.899
 20
29.3652
 10
13.8729
 20
29.3788
 10
13.8467
 20
29.3932
 10
13.8202
 20
29.4087
 10
13.7936
 20
29.425
 10
13.7669
 20
29.4422
 10
13.74
 20
29.4603
 10
13.713
 20
29.4793
 10
13.6858
 20
29.4992
 10
13.6585
 20
29.5199
 10
13.6311
 20
29.5415
 10
13.6036
 20
29.5639
 10
13.576
 20
29.5872
 10
13.5483
 20
29.6113
 10
13.5205
 20
29.6362
 10
13.4926
 20
29.6619
 10
13.4646
 20
29.6884
 10
13.4366
 20
29.7157
 10
13.4085
 20
29.7438
 10
13.3803
 20
29.7726
 10
13.3521
 20
29.8022
 10
13.3239
 20
29.8325
 10
13.2956
 20
29.8636
 10
13.2673
 20
29.8954
 10
13.239
 20
29.9279
 10
13.2106
 20
29.9611
 10
13.1823
 20
29.9951
 10
13.1539
 20
30.0297
 10
13.1256
 20
30.065
 10
13.0972
 20
30.1009
 10
13.0689
 20
30.1376
 10
13.0406
 20
30.1748
 10
13.0124
 20
30.2128
 10
12.9842
 20
30.2513
 10
12.956
 20
30.2905
 10
12.9279
 20
30.3303
 10
12.8998
 20
30.3707
 10
12.8718
 20
30.4116
 10
12.8439
 20
30.4532
 10
12.8161
 20
30.4953
 10
12.7883
 20
30.538
 10
12.7607
 20
30.5813
 10
12.7331
 20
30.6251
 10
12.7057
 20
30.6695
 10
12.6784
 20
30.7143
 10
12.6512
 20
30.7597
 10
12.6241
 20
30.8056
 10
12.5972
 20
30.852
 10
12.5704
 20
30.8989
 10
12.5437
 20
30.9462
 10
12.5172
 20
30.994
 10
12.4909
 20
31.0423
 10
12.4648
 20
31.091
 10
12.4388
 20
31.1402
 10
12.413
 20
31.1898
 10
12.3874
 20
31.2398
 10
12.362
 20
31.2902
 10
12.3368
 20
31.3411
 10
12.3118
 20
31.3923
 10
12.287
 20
31.4439
 10
12.2625
 20
31.4959
 10
12.2382
 20
31.5482
 10
12.2141
 20
31.6009
 10
12.1903
 20
31.6539
 10
12.1667
 20
31.7073
 10
12.1434
 20
31.761
 10
12.1203
 20
31.815
 10
12.0976
 20
31.8693
 10
12.0751
 20
31.9239
 10
12.0529
 20
31.9788
 10
12.0309
 20
32.034
 10
12.0093
 20
32.0894
 10
11.988
 20
32.1451
 10
11.967
 20
32.201
 10
11.9464
 20
32.2572
 10
11.926
 20
32.3136
 10
11.906
 20
32.3702
 10
11.8863
 20
32.4271
 10
11.867
 20
32.4841
 10
11.8481
 20
32.5413
 10
11.8294
 20
32.5987
 10
11.8112
 20
32.6563
 10
11.7934
 20
32.714
 10
11.7759
 20
32.7719
 10
11.7588
 20
32.8299
 10
11.7488
 20
32.865
 10
11.739
 20
32.9007
 10
11.7294
 20
32.937
 10
11.72
 20
32.9738
 10
11.7107
 20
33.0112
 10
11.7017
 20
33.0492
 10
11.6929
 20
33.0877
 10
11.6843
 20
33.1268
 10
11.6759
 20
33.1663
 10
11.6677
 20
33.2064
 10
11.6597
 20
33.247
 10
11.6518
 20
33.288
 10
11.6442
 20
33.3295
 10
11.6368
 20
33.3715
 10
11.6296
 20
33.4139
 10
11.6226
 20
33.4567
 10
11.6158
 20
33.5
 10
11.6092
 20
33.5437
 10
11.6028
 20
33.5878
 10
11.5965
 20
33.6322
 10
11.5905
 20
33.6771
 10
11.5847
 20
33.7222
 10
11.5791
 20
33.7678
 10
11.5737
 20
33.8137
 10
11.5685
 20
33.8599
 10
11.5635
 20
33.9064
 10
11.5586
 20
33.9532
 10
11.554
 20
34.0003
 10
11.5496
 20
34.0477
 10
11.5454
 20
34.0953
 10
11.5414
 20
34.1432
 10
11.5376
 20
34.1914
 10
11.534
 20
34.2397
 10
11.5306
 20
34.2883
 10
11.5274
 20
34.3371
 10
11.5244
 20
34.3861
 10
11.5216
 20
34.4352
 10
11.5189
 20
34.4845
 10
11.5165
 20
34.534
 10
11.5143
 20
34.5837
 10
11.5123
 20
34.6334
 10
11.5105
 20
34.6833
 10
11.5089
 20
34.7333
 10
11.5075
 20
34.7834
 10
11.5063
 20
34.8335
 10
11.5053
 20
34.8838
 10
11.5045
 20
34.9341
 10
11.5039
 20
34.9844
 10
11.5035
 20
35.0348
 10
11.5033
 20
35.0852
 10
11.5033
 20
35.1356
 10
11.5035
 20
35.186
 10
11.5039
 20
35.2364
 10
11.5045
 20
35.2868
 10
11.5053
 20
35.3372
 10
11.5063
 20
35.3875
 10
11.5075
 20
35.4377
 10
11.509
 20
35.4879
 10
11.5106
 20
35.5379
 10
11.5124
 20
35.5879
 10
11.5144
 20
35.6378
 10
11.5166
 20
35.6875
 10
11.519
 20
35.7372
 10
11.5216
 20
35.7866
 10
11.5244
 20
35.836
 10
11.5275
 20
35.8851
 10
11.5307
 20
35.9341
 10
11.5341
 20
35.9828
 10
11.5377
 20
36.0314
 10
11.5415
 20
36.0798
 10
11.5456
 20
36.1279
 10
11.5498
 20
36.1758
 10
11.5542
 20
36.2234
 10
11.5588
 20
36.2708
 10
11.5637
 20
36.3179
 10
11.5687
 20
36.3647
 10
11.5739
 20
36.4112
 10
11.5794
 20
36.4573
 10
11.585
 20
36.5032
 10
11.5908
 20
36.5487
 10
11.5969
 20
36.5939
 10
11.6031
 20
36.6387
 10
11.6096
 20
36.6831
 10
11.6162
 20
36.7272
 10
11.6231
 20
36.7708
 10
11.6301
 20
36.8141
 10
11.6374
 20
36.8569
 10
11.6448
 20
36.8993
 10
11.6525
 20
36.9412
 10
11.6603
 20
36.9827
 10
11.6684
 20
37.0237
 10
11.6766
 20
37.0643
 10
11.6851
 20
37.1043
 10
11.6937
 20
37.1438
 10
11.7026
 20
37.1829
 10
11.7117
 20
37.2214
 10
11.7209
 20
37.2593
 10
11.7304
 20
37.2967
 10
11.7401
 20
37.3335
 10
11.7499
 20
37.3698
 10
11.7539
 20
37.3841
 10
11.7578
 20
37.3984
 10
11.7617
 20
37.4126
 10
11.7656
 20
37.4268
 10
11.7694
 20
37.441
 10
11.7731
 20
37.4552
 10
11.7769
 20
37.4693
 10
11.7806
 20
37.4833
 10
11.7842
 20
37.4973
 10
11.7879
 20
37.5113
 10
11.7914
 20
37.5252
 10
11.795
 20
37.539
 10
11.7985
 20
37.5528
 10
11.8019
 20
37.5666
 10
11.8054
 20
37.5802
 10
11.8087
 20
37.5939
 10
11.8121
 20
37.6074
 10
11.8154
 20
37.6209
 10
11.8186
 20
37.6344
 10
11.8218
 20
37.6477
 10
11.825
 20
37.661
 10
11.8281
 20
37.6742
 10
11.8312
 20
37.6874
 10
11.8342
 20
37.7004
 10
11.8372
 20
37.7134
 10
11.8402
 20
37.7263
 10
11.8431
 20
37.7392
 10
11.8459
 20
37.7519
 10
11.8487
 20
37.7646
 10
11.8515
 20
37.7771
 10
11.8542
 20
37.7896
 10
11.8569
 20
37.802
 10
11.8595
 20
37.8143
 10
11.8621
 20
37.8265
 10
11.8646
 20
37.8386
 10
11.8671
 20
37.8506
 10
11.8695
 20
37.8625
 10
11.8719
 20
37.8743
 10
11.8743
 20
37.886
 10
11.8766
 20
37.8975
 10
11.8788
 20
37.909
 10
11.881
 20
37.9204
 10
11.8831
 20
37.9316
 10
11.8852
 20
37.9427
 10
11.8872
 20
37.9537
 10
11.8892
 20
37.9646
 10
11.8912
 20
37.9754
 10
11.893
 20
37.986
 10
11.8949
 20
37.9965
 10
11.8966
 20
38.0069
 10
11.8984
 20
38.0172
 10
11.9
 20
38.0273
 10
11.9017
 20
38.0373
 10
11.9032
 20
38.0471
 10
11.9047
 20
38.0568
 10
11.9062
 20
38.0664
 10
11.9076
 20
38.0758
 10
11.9089
 20
38.0851
 10
11.9102
 20
38.0943
 10
11.9114
 20
38.1033
 10
11.9126
 20
38.1121
 10
11.9137
 20
38.1208
 10
11.9148
 20
38.1293
 10
11.9158
 20
38.1377
 10
11.9167
 20
38.1459
 10
11.9176
 20
38.154
 10
11.9185
 20
38.1619
 10
11.9192
 20
38.1696
 10
11.92
 20
38.1772
 10
11.9206
 20
38.1846
 10
11.9212
 20
38.1919
 10
11.9217
 20
38.1989
 10
11.9222
 20
38.2058
 10
11.9226
 20
38.2125
 10
11.923
 20
38.219
 10
11.9233
 20
38.2254
 10
11.9235
 20
38.2316
 10
11.9236
 20
38.2376
 10
11.9238
 20
38.2434
 10
11.9238
 20
38.249
 10
11.9238
 20
38.2544
 10
11.9237
 20
38.2596
 10
11.9235
 20
38.2647
 10
11.9233
 20
38.2695
 10
11.923
 20
38.2741
 10
11.9227
 20
38.2786
 10
11.9223
 20
38.2828
 10
11.9218
 20
38.2869
 10
11.9213
 20
38.2907
 10
11.9207
 20
38.2943
 10
11.92
 20
38.2977
 10
11.9193
 20
38.3009
 10
11.9184
 20
38.3039
 10
11.9176
 20
38.3067
 10
11.9166
 20
38.3093
 10
11.9156
 20
38.3116
 10
11.9145
 20
38.3137
 10
11.9134
 20
38.3156
 10
11.9122
 20
38.3173
 10
11.9109
 20
38.3187
 10
11.9056
 20
38.3234
 10
11.8998
 20
38.3277
 10
11.8935
 20
38.3314
 10
11.8867
 20
38.3346
 10
11.8794
 20
38.3372
 10
11.8715
 20
38.3394
 10
11.8632
 20
38.3411
 10
11.8545
 20
38.3423
 10
11.8452
 20
38.343
 10
11.8355
 20
38.3432
 10
11.8253
 20
38.3429
 10
11.8147
 20
38.3422
 10
11.8036
 20
38.3409
 10
11.7921
 20
38.3393
 10
11.7802
 20
38.3371
 10
11.7678
 20
38.3345
 10
11.755
 20
38.3315
 10
11.7419
 20
38.328
 10
11.7283
 20
38.324
 10
11.7143
 20
38.3196
 10
11.6999
 20
38.3148
 10
11.6852
 20
38.3096
 10
11.6701
 20
38.3039
 10
11.6546
 20
38.2978
 10
11.6388
 20
38.2913
 10
11.6226
 20
38.2844
 10
11.606
 20
38.2771
 10
11.5892
 20
38.2694
 10
11.5719
 20
38.2613
 10
11.5544
 20
38.2529
 10
11.5366
 20
38.244
 10
11.5184
 20
38.2347
 10
11.5
 20
38.2251
 10
11.4812
 20
38.2151
 10
11.4622
 20
38.2048
 10
11.4429
 20
38.1941
 10
11.4233
 20
38.183
 10
11.4034
 20
38.1716
 10
11.3833
 20
38.1598
 10
11.3629
 20
38.1477
 10
11.3423
 20
38.1353
 10
11.3215
 20
38.1225
 10
11.3004
 20
38.1094
 10
11.2791
 20
38.096
 10
11.2576
 20
38.0822
 10
11.2358
 20
38.0682
 10
11.2139
 20
38.0538
 10
11.1918
 20
38.0392
 10
11.1695
 20
38.0242
 10
11.147
 20
38.009
 10
11.1243
 20
37.9934
 10
11.1015
 20
37.9776
 10
11.0785
 20
37.9615
 10
11.0553
 20
37.9452
 10
11.032
 20
37.9285
 10
11.0086
 20
37.9116
 10
10.985
 20
37.8945
 10
10.9613
 20
37.8771
 10
10.9375
 20
37.8594
 10
10.9136
 20
37.8415
 10
10.8896
 20
37.8234
 10
10.8654
 20
37.805
 10
10.8412
 20
37.7864
 10
10.8169
 20
37.7676
 10
10.7926
 20
37.7486
 10
10.7682
 20
37.7293
 10
10.7437
 20
37.7098
 10
10.7191
 20
37.6901
 10
10.6945
 20
37.6703
 10
10.6699
 20
37.6502
 10
10.6452
 20
37.6299
 10
10.6205
 20
37.6095
 10
10.5958
 20
37.5889
 10
10.5711
 20
37.5681
 10
10.5464
 20
37.5471
 10
10.5217
 20
37.526
 10
10.497
 20
37.5047
 10
10.4723
 20
37.4832
 10
10.4476
 20
37.4616
 10
10.423
 20
37.4398
 10
10.3984
 20
37.4179
 10
10.3738
 20
37.3959
 10
10.3493
 20
37.3737
 10
10.3249
 20
37.3514
 10
10.3005
 20
37.329
 10
10.2762
 20
37.3065
 10
10.252
 20
37.2838
 10
10.2279
 20
37.2611
 10
10.2039
 20
37.2382
 10
10.1799
 20
37.2152
 10
10.1561
 20
37.1922
 10
10.1324
 20
37.169
 10
10.1089
 20
37.1458
 10
10.0854
 20
37.1225
 10
10.0621
 20
37.0991
 10
10.0389
 20
37.0757
 10
10.0159
 20
37.0521
 10
9.99309
 20
37.0286
 10
9.9704
 20
37.0049
 10
9.94789
 20
36.9812
 10
9.90496
 20
36.9356
 10
9.86258
 20
36.8899
 10
9.82075
 20
36.8442
 10
9.77947
 20
36.7985
 10
9.73873
 20
36.7527
 10
9.69854
 20
36.7069
 10
9.65889
 20
36.6611
 10
9.61977
 20
36.6153
 10
9.58119
 20
36.5694
 10
9.54315
 20
36.5234
 10
9.50564
 20
36.4774
 10
9.46865
 20
36.4313
 10
9.4322
 20
36.3851
 10
9.39626
 20
36.3388
 10
9.36085
 20
36.2924
 10
9.32595
 20
36.246
 10
9.29158
 20
36.1994
 10
9.25771
 20
36.1527
 10
9.22436
 20
36.1059
 10
9.19152
 20
36.0589
 10
9.15918
 20
36.0118
 10
9.12735
 20
35.9646
 10
9.09602
 20
35.9172
 10
9.06519
 20
35.8696
 10
9.03486
 20
35.8219
 10
9.00502
 20
35.774
 10
8.97568
 20
35.726
 10
8.94682
 20
35.6777
 10
8.91845
 20
35.6293
 10
8.89057
 20
35.5806
 10
8.86317
 20
35.5317
 10
8.83624
 20
35.4826
 10
8.8098
 20
35.4333
 10
8.78383
 20
35.3838
 10
8.75833
 20
35.334
 10
8.73331
 20
35.284
 10
8.70875
 20
35.2337
 10
8.68466
 20
35.1832
 10
8.66103
 20
35.1324
 10
8.63786
 20
35.0813
 10
8.61515
 20
35.0299
 10
8.59289
 20
34.9783
 10
8.57109
 20
34.9263
 10
8.54974
 20
34.8741
 10
8.52883
 20
34.8215
 10
8.50838
 20
34.7686
 10
8.48836
 20
34.7154
 10
8.46879
 20
34.6619
 10
8.44965
 20
34.608
 10
8.43096
 20
34.5538
 10
8.41269
 20
34.4992
 10
8.39486
 20
34.4443
 10
8.37745
 20
34.389
 10
8.36048
 20
34.3333
 10
8.34392
 20
34.2773
 10
8.32779
 20
34.2208
 10
8.31208
 20
34.164
 10
8.29678
 20
34.1067
 10
8.2819
 20
34.0491
 10
8.26743
 20
33.991
 10
8.25337
 20
33.9325
 10
8.23972
 20
33.8736
 10
8.22647
 20
33.8142
 10
8.21362
 20
33.7544
 10
8.20117
 20
33.6941
 10
8.18912
 20
33.6334
 10
8.17747
 20
33.5722
 10
8.1662
 20
33.5105
 10
8.15533
 20
33.4484
 10
8.14484
 20
33.3857
 10
8.13474
 20
33.3226
 10
8.12503
 20
33.259
 10
8.11569
 20
33.1948
 10
8.10673
 20
33.1301
 10
8.09814
 20
33.0649
 10
8.08993
 20
32.9992
 10
8.08209
 20
32.9329
 10
8.07462
 20
32.8661
 10
8.06751
 20
32.7988
 10
8.06077
 20
32.7308
 10
8.05438
 20
32.6623
 10
8.04836
 20
32.5933
 10
8.04269
 20
32.5236
 10
8.03737
 20
32.4533
 10
8.03241
 20
32.3825
 10
8.02779
 20
32.3111
 10
8.02352
 20
32.239
 10
8.01959
 20
32.1663
 10
8.01601
 20
32.093
 10
8.01276
 20
32.0191
 10
8.00985
 20
31.9445
 10
8.00727
 20
31.8693
 10
8.00503
 20
31.7934
 10
8.00311
 20
31.7169
 10
8.00152
 20
31.6397
 10
8.00026
 20
31.5618
 10
7.99931
 20
31.4832
 10
7.99869
 20
31.404
 10
7.99838
 20
31.324
 10
7.99839
 20
31.2434
 10
7.99847
 20
31.2144
 10
7.9986
 20
31.1853
 10
7.99877
 20
31.1561
 10
7.99898
 20
31.1267
 10
7.99924
 20
31.0973
 10
7.99955
 20
31.0678
 10
7.99989
 20
31.0381
 10
8.00028
 20
31.0084
 10
8.00071
 20
30.9786
 10
8.00119
 20
30.9487
 10
8.0017
 20
30.9188
 10
8.00226
 20
30.8888
 10
8.00286
 20
30.8587
 10
8.00349
 20
30.8285
 10
8.00417
 20
30.7984
 10
8.00489
 20
30.7681
 10
8.00565
 20
30.7378
 10
8.00645
 20
30.7075
 10
8.00729
 20
30.6772
 10
8.00816
 20
30.6468
 10
8.00907
 20
30.6165
 10
8.01002
 20
30.5861
 10
8.01101
 20
30.5557
 10
8.01204
 20
30.5253
 10
8.0131
 20
30.4949
 10
8.0142
 20
30.4645
 10
8.01533
 20
30.4341
 10
8.0165
 20
30.4038
 10
8.01771
 20
30.3734
 10
8.01895
 20
30.3432
 10
8.02023
 20
30.3129
 10
8.02154
 20
30.2827
 10
8.02288
 20
30.2525
 10
8.02425
 20
30.2224
 10
8.02566
 20
30.1924
 10
8.02711
 20
30.1624
 10
8.02858
 20
30.1324
 10
8.03009
 20
30.1026
 10
8.03163
 20
30.0728
 10
8.0332
 20
30.0432
 10
8.0348
 20
30.0136
 10
8.03643
 20
29.9841
 10
8.03809
 20
29.9547
 10
8.03978
 20
29.9254
 10
8.0415
 20
29.8963
 10
8.04325
 20
29.8672
 10
8.04503
 20
29.8383
 10
8.04684
 20
29.8095
 10
8.04867
 20
29.7809
 10
8.05053
 20
29.7524
 10
8.05242
 20
29.724
 10
8.05434
 20
29.6958
 10
8.05628
 20
29.6678
 10
8.05825
 20
29.6399
 10
8.06025
 20
29.6122
 10
8.06227
 20
29.5846
 10
8.06431
 20
29.5573
 10
8.06639
 20
29.5301
 10
8.06848
 20
29.5031
 10
8.0706
 20
29.4763
 10
8.07274
 20
29.4497
 10
8.07491
 20
29.4233
 10
8.0771
 20
29.3972
 10
8.07931
 20
29.3712
 10
8.08154
 20
29.3455
 10
8.0838
 20
29.32
 10
8.08608
 20
29.2947
 10
8.08837
 20
29.2697
 10
8.09069
 20
29.2449
 10
8.09303
 20
29.2204
 10
8.09539
 20
29.1961
 10
8.09777
 20
29.1721
 10
8.10017
 20
29.1484
 10
8.10259
 20
29.1249
 10
8.10502
 20
29.1017
 10
8.10748
 20
29.0788
 10
8.10995
 20
29.0562
 10
8.11244
 20
29.0339
 10
8.11495
 20
29.0119
 10
8.11747
 20
28.9901
 10
8.12001
 20
28.9687
 10
8.12257
 20
28.9477
 10
8.12514
 20
28.9269
 10
8.12773
 20
28.9065
 10
8.13033
 20
28.8864
 10
8.13295
 20
28.8666
 10
8.13558
 20
28.8472
 10
8.13822
 20
28.8281
 10
8.14088
 20
28.8094
 10
8.14355
 20
28.7911
 10
8.14624
 20
28.7731
 10
8.14894
 20
28.7555
 10
8.15164
 20
28.7382
 10
8.15437
 20
28.7214
 10
8.1571
 20
28.7049
 10
8.15984
 20
28.6889
 10
8.16259
 20
28.6732
 10
8.16536
 20
28.6579
 10
8.16813
 20
28.6431
 10
8.17092
 20
28.6287
 10
8.17369
 20
28.6144
 10
8.17643
 20
28.6003
 10
8.17913
 20
28.5861
 10
8.18181
 20
28.572
 10
8.18445
 20
28.5579
 10
8.18706
 20
28.5439
 10
8.18963
 20
28.5299
 10
8.19217
 20
28.516
 10
8.19468
 20
28.5021
 10
8.19715
 20
28.4882
 10
8.19959
 20
28.4744
 10
8.20199
 20
28.4606
 10
8.20436
 20
28.4469
 10
8.2067
 20
28.4333
 10
8.209
 20
28.4197
 10
8.21126
 20
28.4062
 10
8.21349
 20
28.3927
 10
8.21569
 20
28.3793
 10
8.21785
 20
28.3659
 10
8.21997
 20
28.3527
 10
8.22206
 20
28.3395
 10
8.22411
 20
28.3263
 10
8.22612
 20
28.3133
 10
8.2281
 20
28.3003
 10
8.23004
 20
28.2874
 10
8.23195
 20
28.2746
 10
8.23381
 20
28.2618
 10
8.23564
 20
28.2491
 10
8.23744
 20
28.2366
 10
8.23919
 20
28.2241
 10
8.24091
 20
28.2117
 10
8.24259
 20
28.1994
 10
8.24423
 20
28.1871
 10
8.24583
 20
28.175
 10
8.2474
 20
28.163
 10
8.24892
 20
28.1511
 10
8.25041
 20
28.1392
 10
8.25185
 20
28.1275
 10
8.25326
 20
28.1159
 10
8.25463
 20
28.1044
 10
8.25596
 20
28.093
 10
8.25725
 20
28.0817
 10
8.2585
 20
28.0705
 10
8.25971
 20
28.0594
 10
8.26088
 20
28.0485
 10
8.26201
 20
28.0377
 10
8.26309
 20
28.0269
 10
8.26414
 20
28.0164
 10
8.26515
 20
28.0059
 10
8.26611
 20
27.9956
 10
8.26703
 20
27.9854
 10
8.26792
 20
27.9753
 10
8.26875
 20
27.9653
 10
8.26955
 20
27.9555
 10
8.27031
 20
27.9459
 10
8.27102
 20
27.9363
 10
8.27169
 20
27.9269
 10
8.27232
 20
27.9177
 10
8.2729
 20
27.9086
 10
8.27345
 20
27.8996
 10
8.27394
 20
27.8908
 10
8.2744
 20
27.8822
 10
8.27481
 20
27.8737
 10
8.27518
 20
27.8653
 10
8.2755
 20
27.8571
 10
8.27578
 20
27.8491
 10
8.27602
 20
27.8412
 10
8.27621
 20
27.8335
 10
8.27635
 20
27.8259
 10
8.27645
 20
27.8185
 10
8.27651
 20
27.8113
 10
8.27652
 20
27.8043
 10
8.27648
 20
27.7974
 10
8.2764
 20
27.7907
 10
8.27628
 20
27.7842
 10
8.27611
 20
27.7778
 10
8.27589
 20
27.7717
 10
8.27562
 20
27.7657
 10
8.27531
 20
27.7599
 10
8.27495
 20
27.7543
 10
8.27455
 20
27.7489
 10
8.27409
 20
27.7436
 10
8.2736
 20
27.7386
 10
8.27305
 20
27.7338
 10
8.27245
 20
27.7291
 10
8.27181
 20
27.7246
 10
8.27112
 20
27.7204
 10
8.27038
 20
27.7163
 10
8.2696
 20
27.7125
 10
8.26876
 20
27.7089
 10
8.26788
 20
27.7054
 10
8.26694
 20
27.7022
 10
8.26596
 20
27.6992
 10
8.26493
 20
27.6964
 10
8.26385
 20
27.6938
 10
8.26272
 20
27.6915
 10
8.26154
 20
27.6893
 10
8.26031
 20
27.6874
 10
8.25903
 20
27.6857
 10
8.25769
 20
27.6842
 10
8.25622
 20
27.683
 10
8.2545
 20
27.6819
 10
8.25255
 20
27.6809
 10
8.25037
 20
27.6802
 10
8.24795
 20
27.6796
 10
8.2453
 20
27.6792
 10
8.24242
 20
27.6789
 10
8.23932
 20
27.6789
 10
8.23599
 20
27.6789
 10
8.23244
 20
27.6792
 10
8.22867
 20
27.6796
 10
8.22469
 20
27.6802
 10
8.22049
 20
27.6809
 10
8.21607
 20
27.6818
 10
8.21144
 20
27.6828
 10
8.20661
 20
27.684
 10
8.20156
 20
27.6854
 10
8.19631
 20
27.6869
 10
8.19086
 20
27.6885
 10
8.18521
 20
27.6904
 10
8.17935
 20
27.6923
 10
8.1733
 20
27.6945
 10
8.16706
 20
27.6967
 10
8.16062
 20
27.6991
 10
8.15399
 20
27.7017
 10
8.14718
 20
27.7044
 10
8.14017
 20
27.7073
 10
8.13299
 20
27.7102
 10
8.12562
 20
27.7134
 10
8.11807
 20
27.7167
 10
8.11034
 20
27.7201
 10
8.10243
 20
27.7236
 10
8.09436
 20
27.7273
 10
8.0861
 20
27.7312
 10
8.07768
 20
27.7351
 10
8.0691
 20
27.7392
 10
8.06034
 20
27.7434
 10
8.05142
 20
27.7478
 10
8.04235
 20
27.7523
 10
8.03311
 20
27.7569
 10
8.02371
 20
27.7617
 10
8.01416
 20
27.7665
 10
8.00446
 20
27.7716
 10
7.9946
 20
27.7767
 10
7.9846
 20
27.7819
 10
7.97444
 20
27.7873
 10
7.96415
 20
27.7928
 10
7.95371
 20
27.7984
 10
7.94313
 20
27.8042
 10
7.93241
 20
27.81
 10
7.92155
 20
27.816
 10
7.91057
 20
27.8221
 10
7.89944
 20
27.8283
 10
7.88819
 20
27.8346
 10
7.87681
 20
27.841
 10
7.8653
 20
27.8475
 10
7.85367
 20
27.8542
 10
7.84192
 20
27.8609
 10
7.83005
 20
27.8678
 10
7.81806
 20
27.8748
 10
7.80595
 20
27.8818
 10
7.79373
 20
27.889
 10
7.7814
 20
27.8963
 10
7.76896
 20
27.9037
 10
7.75641
 20
27.9112
 10
7.74376
 20
27.9188
 10
7.731
 20
27.9264
 10
7.71815
 20
27.9342
 10
7.70519
 20
27.9421
 10
7.69214
 20
27.9501
 10
7.67899
 20
27.9581
 10
7.66575
 20
27.9663
 10
7.65242
 20
27.9745
 10
7.63899
 20
27.9829
 10
7.62549
 20
27.9913
 10
7.6119
 20
27.9998
 10
7.59822
 20
28.0084
 10
7.58447
 20
28.0171
 10
7.57064
 20
28.0259
 10
7.55673
 20
28.0348
 10
7.54274
 20
28.0437
 10
7.52869
 20
28.0527
 10
7.51457
 20
28.0618
 10
7.50037
 20
28.071
 10
7.48612
 20
28.0803
 10
7.47179
 20
28.0896
 10
7.45741
 20
28.099
 10
7.44297
 20
28.1085
 10
7.42847
 20
28.1181
 10
7.41391
 20
28.1277
 10
7.3993
 20
28.1374
 10
7.38464
 20
28.1472
 10
7.36994
 20
28.1571
 10
7.35518
 20
28.167
 10
7.34038
 20
28.177
 10
7.32554
 20
28.187
 10
7.31065
 20
28.1971
 10
7.29573
 20
28.2073
 10
7.28077
 20
28.2175
 10
7.26578
 20
28.2278
 10
7.23245
 20
28.251
 10
7.1993
 20
28.2746
 10
7.16631
 20
28.2985
 10
7.1335
 20
28.3229
 10
7.10086
 20
28.3476
 10
7.06841
 20
28.3728
 10
7.03614
 20
28.3983
 10
7.00405
 20
28.4241
 10
6.97216
 20
28.4503
 10
6.94046
 20
28.4769
 10
6.90896
 20
28.5038
 10
6.87766
 20
28.531
 10
6.84657
 20
28.5586
 10
6.81568
 20
28.5865
 10
6.785
 20
28.6148
 10
6.75454
 20
28.6433
 10
6.7243
 20
28.6722
 10
6.69428
 20
28.7013
 10
6.66448
 20
28.7308
 10
6.63491
 20
28.7606
 10
6.60558
 20
28.7906
 10
6.57648
 20
28.8209
 10
6.54761
 20
28.8516
 10
6.51899
 20
28.8824
 10
6.49062
 20
28.9136
 10
6.46249
 20
28.945
 10
6.43462
 20
28.9766
 10
6.407
 20
29.0085
 10
6.37964
 20
29.0407
 10
6.35254
 20
29.073
 10
6.32571
 20
29.1057
 10
6.29915
 20
29.1385
 10
6.27286
 20
29.1715
 10
6.24684
 20
29.2048
 10
6.22111
 20
29.2383
 10
6.19566
 20
29.2719
 10
6.1705
 20
29.3058
 10
6.14562
 20
29.3398
 10
6.12104
 20
29.3741
 10
6.09675
 20
29.4085
 10
6.07277
 20
29.4431
 10
6.04909
 20
29.4778
 10
6.02571
 20
29.5127
 10
6.00265
 20
29.5478
 10
5.9799
 20
29.583
 10
5.95746
 20
29.6183
 10
5.93535
 20
29.6538
 10
5.91356
 20
29.6894
 10
5.89209
 20
29.7252
 10
5.87096
 20
29.761
 10
5.85016
 20
29.797
 10
5.8297
 20
29.8331
 10
5.80958
 20
29.8693
 10
5.78981
 20
29.9055
 10
5.77038
 20
29.9419
 10
5.7513
 20
29.9783
 10
5.73258
 20
30.0149
 10
5.71422
 20
30.0515
 10
5.69621
 20
30.0881
 10
5.67858
 20
30.1248
 10
5.66131
 20
30.1616
 10
5.64441
 20
30.1984
 10
5.62788
 20
30.2353
 10
5.61174
 20
30.2722
 10
5.59598
 20
30.3092
 10
5.5806
 20
30.3461
 10
5.56561
 20
30.3831
 10
5.55101
 20
30.4201
 10
5.53681
 20
30.4571
 10
5.52301
 20
30.4941
 10
5.50961
 20
30.5311
 10
5.49661
 20
30.5681
 10
5.48403
 20
30.605
 10
5.47185
 20
30.642
 10
5.46009
 20
30.6789
 10
5.44876
 20
30.7158
 10
5.43784
 20
30.7527
 10
5.42735
 20
30.7895
 10
5.41729
 20
30.8262
 10
5.40766
 20
30.8629
 10
5.39847
 20
30.8995
 10
5.38972
 20
30.9361
 10
5.38141
 20
30.9726
 10
5.37355
 20
31.009
 10
5.36614
 20
31.0453
 10
5.35919
 20
31.0816
 10
5.35268
 20
31.1177
 10
5.34664
 20
31.1537
 10
5.34107
 20
31.1897
 10
5.33596
 20
31.2255
 10
5.33132
 20
31.2612
 10
5.32715
 20
31.2967
 10
5.32346
 20
31.3321
 10
5.32026
 20
31.3674
 10
5.31753
 20
31.4026
 10
5.3153
 20
31.4376
 10
5.31355
 20
31.4724
 10
5.3123
 20
31.5071
 10
5.31155
 20
31.5416
 10
5.3113
 20
31.5759
 10
5.31128
 20
31.5875
 10
5.31122
 20
31.5991
 10
5.31113
 20
31.6105
 10
5.31099
 20
31.622
 10
5.31082
 20
31.6334
 10
5.31062
 20
31.6447
 10
5.31038
 20
31.656
 10
5.3101
 20
31.6673
 10
5.30978
 20
31.6784
 10
5.30943
 20
31.6896
 10
5.30905
 20
31.7007
 10
5.30863
 20
31.7117
 10
5.30817
 20
31.7226
 10
5.30768
 20
31.7335
 10
5.30716
 20
31.7444
 10
5.3066
 20
31.7551
 10
5.30601
 20
31.7658
 10
5.30538
 20
31.7765
 10
5.30472
 20
31.787
 10
5.30403
 20
31.7975
 10
5.30331
 20
31.808
 10
5.30256
 20
31.8183
 10
5.30177
 20
31.8286
 10
5.30095
 20
31.8388
 10
5.3001
 20
31.8489
 10
5.29922
 20
31.8589
 10
5.29831
 20
31.8689
 10
5.29737
 20
31.8788
 10
5.2964
 20
31.8886
 10
5.2954
 20
31.8983
 10
5.29437
 20
31.9079
 10
5.29331
 20
31.9175
 10
5.29223
 20
31.9269
 10
5.29111
 20
31.9363
 10
5.28996
 20
31.9455
 10
5.28879
 20
31.9547
 10
5.28759
 20
31.9638
 10
5.28637
 20
31.9728
 10
5.28511
 20
31.9817
 10
5.28383
 20
31.9904
 10
5.28253
 20
31.9991
 10
5.28119
 20
32.0077
 10
5.27983
 20
32.0162
 10
5.27845
 20
32.0245
 10
5.27704
 20
32.0328
 10
5.2756
 20
32.0409
 10
5.27415
 20
32.049
 10
5.27266
 20
32.0569
 10
5.27116
 20
32.0647
 10
5.26962
 20
32.0724
 10
5.26807
 20
32.08
 10
5.26649
 20
32.0875
 10
5.26489
 20
32.0948
 10
5.26327
 20
32.1021
 10
5.26162
 20
32.1092
 10
5.25996
 20
32.1162
 10
5.25827
 20
32.123
 10
5.25656
 20
32.1298
 10
5.25483
 20
32.1364
 10
5.25308
 20
32.1428
 10
5.2513
 20
32.1492
 10
5.24951
 20
32.1554
 10
5.2477
 20
32.1615
 10
5.24587
 20
32.1674
 10
5.24402
 20
32.1732
 10
5.24215
 20
32.1789
 10
5.24026
 20
32.1844
 10
5.23835
 20
32.1898
 10
5.23643
 20
32.1951
 10
5.23448
 20
32.2002
 10
5.23252
 20
32.2051
 10
5.23055
 20
32.2099
 10
5.22855
 20
32.2146
 10
5.22654
 20
32.2191
 10
5.22452
 20
32.2235
 10
5.22247
 20
32.2277
 10
5.22041
 20
32.2317
 10
5.21834
 20
32.2356
 10
5.21625
 20
32.2394
 10
5.21415
 20
32.243
 10
5.21203
 20
32.2464
 10
5.2099
 20
32.2496
 10
5.20775
 20
32.2527
 10
5.20559
 20
32.2557
 10
5.20342
 20
32.2584
 10
5.20123
 20
32.261
 10
5.19903
 20
32.2635
 10
5.19682
 20
32.2657
 10
5.1946
 20
32.2678
 10
5.19236
 20
32.2697
 10
5.19012
 20
32.2714
 10
5.18786
 20
32.273
 10
5.18559
 20
32.2744
 10
5.18331
 20
32.2756
 10
5.18102
 20
32.2766
 10
5.17872
 20
32.2774
 10
5.17641
 20
32.2781
 10
5.1741
 20
32.2786
 10
5.17177
 20
32.2789
 10
5.16943
 20
32.279
 10
5.16385
 20
32.2783
 10
5.15804
 20
32.2764
 10
5.15201
 20
32.2733
 10
5.14575
 20
32.2689
 10
5.13927
 20
32.2633
 10
5.13257
 20
32.2565
 10
5.12567
 20
32.2485
 10
5.11856
 20
32.2393
 10
5.11126
 20
32.229
 10
5.10375
 20
32.2176
 10
5.09606
 20
32.2051
 10
5.08818
 20
32.1914
 10
5.08012
 20
32.1767
 10
5.07188
 20
32.1609
 10
5.06347
 20
32.1441
 10
5.05489
 20
32.1262
 10
5.04614
 20
32.1074
 10
5.03724
 20
32.0875
 10
5.02818
 20
32.0667
 10
5.01898
 20
32.0449
 10
5.00963
 20
32.0221
 10
5.00013
 20
31.9985
 10
4.99051
 20
31.9739
 10
4.98075
 20
31.9484
 10
4.97086
 20
31.9221
 10
4.96085
 20
31.8949
 10
4.95072
 20
31.8668
 10
4.94048
 20
31.8379
 10
4.93014
 20
31.8083
 10
4.91969
 20
31.7778
 10
4.90913
 20
31.7465
 10
4.89849
 20
31.7145
 10
4.88775
 20
31.6818
 10
4.87693
 20
31.6483
 10
4.86603
 20
31.6142
 10
4.85505
 20
31.5793
 10
4.844
 20
31.5438
 10
4.83288
 20
31.5076
 10
4.8217
 20
31.4708
 10
4.81046
 20
31.4333
 10
4.79917
 20
31.3953
 10
4.78783
 20
31.3567
 10
4.77644
 20
31.3175
 10
4.76502
 20
31.2777
 10
4.75356
 20
31.2374
 10
4.74207
 20
31.1966
 10
4.73055
 20
31.1553
 10
4.71901
 20
31.1135
 10
4.70746
 20
31.0712
 10
4.69589
 20
31.0285
 10
4.68431
 20
30.9854
 10
4.67274
 20
30.9418
 10
4.66116
 20
30.8979
 10
4.64959
 20
30.8535
 10
4.63803
 20
30.8088
 10
4.62648
 20
30.7638
 10
4.61496
 20
30.7184
 10
4.60346
 20
30.6727
 10
4.59199
 20
30.6267
 10
4.58055
 20
30.5804
 10
4.56915
 20
30.5338
 10
4.55779
 20
30.487
 10
4.54648
 20
30.44
 10
4.53523
 20
30.3928
 10
4.52403
 20
30.3453
 10
4.51289
 20
30.2977
 10
4.50181
 20
30.25
 10
4.49081
 20
30.2021
 10
4.47988
 20
30.154
 10
4.46903
 20
30.1059
 10
4.45826
 20
30.0576
 10
4.44759
 20
30.0093
 10
4.437
 20
29.9609
 10
4.42652
 20
29.9125
 10
4.41613
 20
29.864
 10
4.40586
 20
29.8156
 10
4.39569
 20
29.7671
 10
4.38564
 20
29.7187
 10
4.37571
 20
29.6703
 10
4.36591
 20
29.622
 10
4.35624
 20
29.5738
 10
4.3467
 20
29.5256
 10
4.3373
 20
29.4776
 10
4.32804
 20
29.4297
 10
4.31893
 20
29.3819
 10
4.30998
 20
29.3343
 10
4.30118
 20
29.2868
 10
4.29254
 20
29.2396
 10
4.28407
 20
29.1926
 10
4.27577
 20
29.1458
 10
4.26765
 20
29.0993
 10
4.25971
 20
29.053
 10
4.25195
 20
29.007
 10
4.24438
 20
28.9613
 10
4.23701
 20
28.9159
 10
4.22983
 20
28.8708
 10
4.22286
 20
28.8261
 10
4.21609
 20
28.7818
 10
4.20954
 20
28.7378
 10
4.2032
 20
28.6943
 10
4.19293
 20
28.6214
 10
4.18303
 20
28.5483
 10
4.17349
 20
28.475
 10
4.16431
 20
28.4015
 10
4.1555
 20
28.3279
 10
4.14706
 20
28.254
 10
4.13898
 20
28.18
 10
4.13126
 20
28.1059
 10
4.1239
 20
28.0316
 10
4.11691
 20
27.9572
 10
4.11028
 20
27.8826
 10
4.10401
 20
27.8078
 10
4.0981
 20
27.733
 10
4.09255
 20
27.658
 10
4.08736
 20
27.5829
 10
4.08253
 20
27.5076
 10
4.07806
 20
27.4323
 10
4.07395
 20
27.3569
 10
4.07019
 20
27.2813
 10
4.06679
 20
27.2057
 10
4.06375
 20
27.13
 10
4.06106
 20
27.0542
 10
4.05873
 20
26.9783
 10
4.05675
 20
26.9023
 10
4.05513
 20
26.8263
 10
4.05386
 20
26.7502
 10
4.05294
 20
26.6741
 10
4.05238
 20
26.5979
 10
4.05217
 20
26.5217
 10
4.05231
 20
26.4454
 10
4.05281
 20
26.3691
 10
4.05365
 20
26.2928
 10
4.05484
 20
26.2164
 10
4.05638
 20
26.1401
 10
4.05828
 20
26.0637
 10
4.06052
 20
25.9873
 10
4.06311
 20
25.9109
 10
4.06604
 20
25.8346
 10
4.06932
 20
25.7582
 10
4.07295
 20
25.6819
 10
4.07693
 20
25.6055
 10
4.08125
 20
25.5292
 10
4.08591
 20
25.453
 10
4.09092
 20
25.3768
 10
4.09628
 20
25.3006
 10
4.10197
 20
25.2245
 10
4.10801
 20
25.1484
 10
4.11439
 20
25.0724
 10
4.12112
 20
24.9964
 10
4.12818
 20
24.9205
 10
4.13559
 20
24.8448
 10
4.14333
 20
24.769
 10
4.15142
 20
24.6934
 10
4.15984
 20
24.6179
 10
4.1686
 20
24.5425
 10
4.1777
 20
24.4671
 10
4.18714
 20
24.3919
 10
4.19692
 20
24.3168
 10
4.20703
 20
24.2419
 10
4.21747
 20
24.167
 10
4.22826
 20
24.0923
 10
4.23937
 20
24.0177
 10
4.25082
 20
23.9433
 10
4.26261
 20
23.869
 10
4.27473
 20
23.7949
 10
4.28718
 20
23.7209
 10
4.29996
 20
23.6471
 10
4.31308
 20
23.5735
 10
4.32652
 20
23.5
 10
4.3403
 20
23.4268
 10
4.3544
 20
23.3537
 10
4.36884
 20
23.2808
 10
4.38361
 20
23.2081
 10
4.3987
 20
23.1356
 10
4.41412
 20
23.0634
 10
4.42987
 20
22.9913
 10
4.44595
 20
22.9195
 10
4.46235
 20
22.8479
 10
4.47908
 20
22.7765
 10
4.49613
 20
22.7054
 10
4.51351
 20
22.6345
 10
4.53121
 20
22.5638
 10
4.54924
 20
22.4935
 10
4.56759
 20
22.4233
 10
4.58626
 20
22.3535
 10
4.60525
 20
22.2839
 10
4.62457
 20
22.2146
 10
4.6442
 20
22.1455
 10
4.66416
 20
22.0768
 10
4.68444
 20
22.0083
 10
4.70504
 20
21.9402
 10
4.72595
 20
21.8724
 10
4.74719
 20
21.8048
 10
4.76874
 20
21.7376
 10
4.79061
 20
21.6707
 10
4.8128
 20
21.6041
 10
4.8353
 20
21.5379
 10
4.85812
 20
21.472
 10
4.88125
 20
21.4064
 10
4.9047
 20
21.3412
 10
4.91114
 20
21.3234
 10
4.91754
 20
21.3057
 10
4.9239
 20
21.288
 10
4.93022
 20
21.2704
 10
4.93649
 20
21.2528
 10
4.94272
 20
21.2353
 10
4.9489
 20
21.2179
 10
4.95503
 20
21.2005
 10
4.96112
 20
21.1832
 10
4.96717
 20
21.1659
 10
4.97316
 20
21.1487
 10
4.97911
 20
21.1316
 10
4.985
 20
21.1146
 10
4.99085
 20
21.0976
 10
4.99665
 20
21.0808
 10
5.00239
 20
21.064
 10
5.00808
 20
21.0473
 10
5.01372
 20
21.0307
 10
5.01931
 20
21.0142
 10
5.02484
 20
20.9977
 10
5.03032
 20
20.9814
 10
5.03574
 20
20.9652
 10
5.04111
 20
20.949
 10
5.04642
 20
20.933
 10
5.05167
 20
20.9171
 10
5.05686
 20
20.9012
 10
5.062
 20
20.8855
 10
5.06707
 20
20.8699
 10
5.07209
 20
20.8544
 10
5.07704
 20
20.8391
 10
5.08193
 20
20.8238
 10
5.08676
 20
20.8087
 10
5.09153
 20
20.7937
 10
5.09623
 20
20.7788
 10
5.10087
 20
20.7641
 10
5.10544
 20
20.7494
 10
5.10995
 20
20.735
 10
5.11439
 20
20.7206
 10
5.11877
 20
20.7064
 10
5.12307
 20
20.6923
 10
5.12731
 20
20.6784
 10
5.13148
 20
20.6646
 10
5.13558
 20
20.651
 10
5.13961
 20
20.6375
 10
5.14356
 20
20.6242
 10
5.14745
 20
20.611
 10
5.15126
 20
20.598
 10
5.155
 20
20.5852
 10
5.15866
 20
20.5725
 10
5.16225
 20
20.5599
 10
5.16577
 20
20.5476
 10
5.16921
 20
20.5354
 10
5.17257
 20
20.5234
 10
5.17586
 20
20.5115
 10
5.17906
 20
20.4999
 10
5.18219
 20
20.4884
 10
5.18524
 20
20.4771
 10
5.18821
 20
20.466
 10
5.19109
 20
20.455
 10
5.1939
 20
20.4443
 10
5.19662
 20
20.4337
 10
5.19926
 20
20.4234
 10
5.20182
 20
20.4132
 10
5.20429
 20
20.4032
 10
5.20668
 20
20.3935
 10
5.20898
 20
20.3839
 10
5.2112
 20
20.3746
 10
5.21333
 20
20.3654
 10
5.21537
 20
20.3565
 10
5.21732
 20
20.3477
 10
5.21919
 20
20.3392
 10
5.22096
 20
20.3309
 10
5.22264
 20
20.3229
 10
5.22424
 20
20.315
 10
5.22574
 20
20.3074
 10
5.22715
 20
20.3
 10
5.22846
 20
20.2928
 10
5.22968
 20
20.2859
 10
5.23081
 20
20.2792
 10
5.23184
 20
20.2728
 10
5.23277
 20
20.2665
 10
5.23361
 20
20.2606
 10
5.23435
 20
20.2548
 10
5.235
 20
20.2493
 10
5.23554
 20
20.2441
 10
5.23599
 20
20.2391
 10
5.23633
 20
20.2344
 10
5.23658
 20
20.2299
 10
5.23672
 20
20.2257
 10
5.23676
 20
20.2217
 10
5.2367
 20
20.218
 10
5.23653
 20
20.2146
 10
5.23626
 20
20.2114
 10
5.23589
 20
20.2085
 10
5.23541
 20
20.2059
 10
5.23482
 20
20.2036
 10
5.23413
 20
20.2015
 10
5.23333
 20
20.1997
 10
5.23242
 20
20.1982
 10
5.2314
 20
20.197
 10
5.23025
 20
20.196
 10
5.22894
 20
20.195
 10
5.22747
 20
20.1942
 10
5.22585
 20
20.1934
 10
5.22407
 20
20.1927
 10
5.22214
 20
20.1921
 10
5.22007
 20
20.1916
 10
5.21784
 20
20.1912
 10
5.21546
 20
20.1908
 10
5.21294
 20
20.1906
 10
5.21027
 20
20.1904
 10
5.20746
 20
20.1903
 10
5.2045
 20
20.1903
 10
5.20141
 20
20.1903
 10
5.19817
 20
20.1905
 10
5.1948
 20
20.1907
 10
5.19128
 20
20.191
 10
5.18764
 20
20.1914
 10
5.18386
 20
20.1918
 10
5.17995
 20
20.1923
 10
5.1759
 20
20.193
 10
5.17173
 20
20.1936
 10
5.16743
 20
20.1944
 10
5.163
 20
20.1952
 10
5.15844
 20
20.1962
 10
5.15376
 20
20.1971
 10
5.14896
 20
20.1982
 10
5.14404
 20
20.1993
 10
5.13899
 20
20.2006
 10
5.13383
 20
20.2018
 10
5.12855
 20
20.2032
 10
5.12316
 20
20.2046
 10
5.11765
 20
20.2061
 10
5.11203
 20
20.2077
 10
5.10629
 20
20.2093
 10
5.10045
 20
20.211
 10
5.0945
 20
20.2128
 10
5.08844
 20
20.2146
 10
5.08227
 20
20.2166
 10
5.076
 20
20.2185
 10
5.06963
 20
20.2206
 10
5.06315
 20
20.2227
 10
5.05658
 20
20.2249
 10
5.0499
 20
20.2271
 10
5.04313
 20
20.2294
 10
5.03626
 20
20.2318
 10
5.0293
 20
20.2342
 10
5.02225
 20
20.2367
 10
5.0151
 20
20.2393
 10
5.00786
 20
20.2419
 10
5.00053
 20
20.2446
 10
4.99312
 20
20.2474
 10
4.98562
 20
20.2502
 10
4.97803
 20
20.253
 10
4.97036
 20
20.256
 10
4.96261
 20
20.259
 10
4.95478
 20
20.262
 10
4.94687
 20
20.2651
 10
4.93888
 20
20.2683
 10
4.93082
 20
20.2715
 10
4.92268
 20
20.2748
 10
4.91446
 20
20.2781
 10
4.90618
 20
20.2815
 10
4.89782
 20
20.2849
 10
4.8894
 20
20.2884
 10
4.8809
 20
20.292
 10
4.87234
 20
20.2956
 10
4.86372
 20
20.2992
 10
4.85503
 20
20.303
 10
4.84628
 20
20.3067
 10
4.83746
 20
20.3105
 10
4.82859
 20
20.3144
 10
4.81966
 20
20.3183
 10
4.81067
 20
20.3223
 10
4.80163
 20
20.3263
 10
4.79254
 20
20.3304
 10
4.78339
 20
20.3345
 10
4.77419
 20
20.3386
 10
4.76494
 20
20.3428
 10
4.75564
 20
20.3471
 10
4.7463
 20
20.3514
 10
4.73691
 20
20.3557
 10
4.72748
 20
20.3601
 10
4.718
 20
20.3646
 10
4.70848
 20
20.369
 10
4.69892
 20
20.3736
 10
4.68933
 20
20.3781
 10
4.6797
 20
20.3828
 10
4.67003
 20
20.3874
 10
4.66032
 20
20.3921
 10
4.65059
 20
20.3968
 10
4.64082
 20
20.4016
 10
4.63103
 20
20.4064
 10
4.6212
 20
20.4113
 10
4.61135
 20
20.4162
 10
4.60147
 20
20.4211
 10
4.59157
 20
20.4261
 10
4.58164
 20
20.4311
 10
4.5717
 20
20.4362
 10
4.56173
 20
20.4412
 10
4.52604
 20
20.4599
 10
4.49062
 20
20.4791
 10
4.45547
 20
20.499
 10
4.42058
 20
20.5195
 10
4.38596
 20
20.5407
 10
4.35161
 20
20.5624
 10
4.31753
 20
20.5848
 10
4.28372
 20
20.6077
 10
4.25019
 20
20.6313
 10
4.21694
 20
20.6555
 10
4.18397
 20
20.6802
 10
4.15129
 20
20.7056
 10
4.11888
 20
20.7315
 10
4.08676
 20
20.758
 10
4.05493
 20
20.7851
 10
4.02338
 20
20.8127
 10
3.99213
 20
20.841
 10
3.96117
 20
20.8698
 10
3.93051
 20
20.8991
 10
3.90014
 20
20.929
 10
3.87007
 20
20.9595
 10
3.8403
 20
20.9905
 10
3.81084
 20
21.022
 10
3.78167
 20
21.0541
 10
3.75282
 20
21.0867
 10
3.72427
 20
21.1199
 10
3.69603
 20
21.1536
 10
3.6681
 20
21.1878
 10
3.64049
 20
21.2225
 10
3.61319
 20
21.2578
 10
3.58621
 20
21.2935
 10
3.55955
 20
21.3298
 10
3.53321
 20
21.3665
 10
3.50719
 20
21.4038
 10
3.4815
 20
21.4416
 10
3.45613
 20
21.4798
 10
3.43109
 20
21.5185
 10
3.40638
 20
21.5578
 10
3.38201
 20
21.5974
 10
3.35797
 20
21.6376
 10
3.33426
 20
21.6782
 10
3.31089
 20
21.7194
 10
3.28787
 20
21.7609
 10
3.26518
 20
21.8029
 10
3.24284
 20
21.8454
 10
3.22084
 20
21.8883
 10
3.19919
 20
21.9317
 10
3.17789
 20
21.9755
 10
3.15694
 20
22.0198
 10
3.13634
 20
22.0644
 10
3.1161
 20
22.1095
 10
3.09622
 20
22.1551
 10
3.07669
 20
22.201
 10
3.05752
 20
22.2474
 10
3.03872
 20
22.2942
 10
3.02028
 20
22.3414
 10
3.0022
 20
22.3889
 10
2.9845
 20
22.4369
 10
2.96716
 20
22.4853
 10
2.9502
 20
22.5341
 10
2.9336
 20
22.5833
 10
2.91739
 20
22.6328
 10
2.90155
 20
22.6827
 10
2.88609
 20
22.7331
 10
2.87101
 20
22.7837
 10
2.85631
 20
22.8348
 10
2.842
 20
22.8862
 10
2.82808
 20
22.9379
 10
2.81454
 20
22.99
 10
2.80139
 20
23.0425
 10
2.78864
 20
23.0953
 10
2.77628
 20
23.1485
 10
2.76432
 20
23.202
 10
2.75275
 20
23.2558
 10
2.74158
 20
23.31
 10
2.73082
 20
23.3644
 10
2.72046
 20
23.4192
 10
2.7105
 20
23.4744
 10
2.70095
 20
23.5298
 10
2.69181
 20
23.5855
 10
2.68308
 20
23.6416
 10
2.67477
 20
23.6979
 10
2.66687
 20
23.7546
 10
2.65938
 20
23.8115
 10
2.65231
 20
23.8687
 10
2.64567
 20
23.9263
 10
2.63944
 20
23.984
 10
2.63364
 20
24.0421
 10
2.62827
 20
24.1005
 10
2.62332
 20
24.1591
 10
2.61881
 20
24.2179
 10
2.61472
 20
24.2771
 10
2.61107
 20
24.3364
 10
2.60785
 20
24.3961
 10
2.60508
 20
24.456
 10
2.60274
 20
24.5161
 10
2.60084
 20
24.5765
 10
2.59938
 20
24.6371
 10
2.59837
 20
24.6979
 10
2.5978
 20
24.759
 10
2.59766
 20
24.7844
 10
2.5975
 20
24.8094
 10
2.59734
 20
24.8339
 10
2.59717
 20
24.858
 10
2.59699
 20
24.8815
 10
2.59679
 20
24.9045
 10
2.59658
 20
24.9271
 10
2.59636
 20
24.9492
 10
2.59612
 20
24.9709
 10
2.59587
 20
24.992
 10
2.59559
 20
25.0127
 10
2.59529
 20
25.0329
 10
2.59498
 20
25.0527
 10
2.59464
 20
25.072
 10
2.59428
 20
25.0909
 10
2.59389
 20
25.1093
 10
2.59348
 20
25.1273
 10
2.59303
 20
25.1448
 10
2.59256
 20
25.1619
 10
2.59206
 20
25.1785
 10
2.59153
 20
25.1947
 10
2.59096
 20
25.2105
 10
2.59036
 20
25.2258
 10
2.58973
 20
25.2408
 10
2.58906
 20
25.2552
 10
2.58835
 20
25.2693
 10
2.5876
 20
25.283
 10
2.58681
 20
25.2962
 10
2.58598
 20
25.309
 10
2.5851
 20
25.3214
 10
2.58418
 20
25.3334
 10
2.58322
 20
25.345
 10
2.58221
 20
25.3562
 10
2.58115
 20
25.3671
 10
2.58004
 20
25.3775
 10
2.57888
 20
25.3875
 10
2.57766
 20
25.3971
 10
2.5764
 20
25.4064
 10
2.57508
 20
25.4152
 10
2.5737
 20
25.4237
 10
2.57226
 20
25.4318
 10
2.57077
 20
25.4395
 10
2.56922
 20
25.4469
 10
2.5676
 20
25.4539
 10
2.56592
 20
25.4605
 10
2.56418
 20
25.4668
 10
2.56238
 20
25.4727
 10
2.56051
 20
25.4782
 10
2.55857
 20
25.4834
 10
2.55656
 20
25.4882
 10
2.55448
 20
25.4927
 10
2.55233
 20
25.4969
 10
2.5501
 20
25.5007
 10
2.5478
 20
25.5042
 10
2.54543
 20
25.5073
 10
2.54298
 20
25.5101
 10
2.54045
 20
25.5126
 10
2.53784
 20
25.5147
 10
2.53516
 20
25.5165
 10
2.53239
 20
25.518
 10
2.52953
 20
25.5192
 10
2.5266
 20
25.5201
 10
2.52357
 20
25.5206
 10
2.52046
 20
25.5209
 10
2.51726
 20
25.5208
 10
2.51398
 20
25.5205
 10
2.5106
 20
25.5198
 10
2.50713
 20
25.5188
 10
2.50356
 20
25.5176
 10
2.4999
 20
25.516
 10
2.49614
 20
25.5142
 10
2.49229
 20
25.5121
 10
2.48834
 20
25.5097
 10
2.48429
 20
25.507
 10
2.48013
 20
25.504
 10
2.47588
 20
25.5008
 10
2.47152
 20
25.4973
 10
2.46705
 20
25.4935
 10
2.46248
 20
25.4894
 10
2.45781
 20
25.4851
 10
2.45302
 20
25.4806
 10
2.44812
 20
25.4758
 10
2.44311
 20
25.4707
 10
2.43799
 20
25.4654
 10
2.43275
 20
25.4598
 10
2.4274
 20
25.454
 10
2.42193
 20
25.4479
 10
2.41634
 20
25.4416
 10
2.41064
 20
25.4351
 10
2.40481
 20
25.4283
 10
2.39886
 20
25.4213
 10
2.39279
 20
25.4141
 10
2.3866
 20
25.4067
 10
2.38027
 20
25.399
 10
2.37382
 20
25.3911
 10
2.36725
 20
25.383
 10
2.36054
 20
25.3747
 10
2.3537
 20
25.3662
 10
2.34673
 20
25.3575
 10
2.33963
 20
25.3486
 10
2.32404
 20
25.3286
 10
2.30815
 20
25.3076
 10
2.29199
 20
25.2857
 10
2.27554
 20
25.2627
 10
2.25883
 20
25.2388
 10
2.24185
 20
25.214
 10
2.22462
 20
25.1882
 10
2.20714
 20
25.1615
 10
2.18941
 20
25.1338
 10
2.17145
 20
25.1053
 10
2.15325
 20
25.076
 10
2.13483
 20
25.0457
 10
2.1162
 20
25.0147
 10
2.09735
 20
24.9828
 10
2.0783
 20
24.95
 10
2.05906
 20
24.9165
 10
2.03962
 20
24.8822
 10
2.02
 20
24.8472
 10
2.0002
 20
24.8114
 10
1.98023
 20
24.7749
 10
1.96009
 20
24.7376
 10
1.9398
 20
24.6996
 10
1.91936
 20
24.661
 10
1.89877
 20
24.6217
 10
1.87804
 20
24.5817
 10
1.85718
 20
24.5411
 10
1.8362
 20
24.4999
 10
1.8151
 20
24.458
 10
1.79388
 20
24.4156
 10
1.77257
 20
24.3725
 10
1.75115
 20
24.329
 10
1.72964
 20
24.2848
 10
1.70805
 20
24.2402
 10
1.68637
 20
24.195
 10
1.66463
 20
24.1493
 10
1.64282
 20
24.1031
 10
1.62095
 20
24.0565
 10
1.59903
 20
24.0093
 10
1.57706
 20
23.9618
 10
1.55505
 20
23.9138
 10
1.53302
 20
23.8655
 10
1.51095
 20
23.8167
 10
1.48887
 20
23.7675
 10
1.46677
 20
23.718
 10
1.44467
 20
23.6681
 10
1.42256
 20
23.6179
 10
1.40047
 20
23.5674
 10
1.37839
 20
23.5166
 10
1.35632
 20
23.4655
 10
1.33429
 20
23.4141
 10
1.31229
 20
23.3625
 10
1.29032
 20
23.3106
 10
1.26841
 20
23.2585
 10
1.24655
 20
23.2062
 10
1.22475
 20
23.1537
 10
1.20301
 20
23.1011
 10
1.18135
 20
23.0482
 10
1.15976
 20
22.9952
 10
1.13827
 20
22.9421
 10
1.11686
 20
22.8889
 10
1.09556
 20
22.8355
 10
1.07436
 20
22.7821
 10
1.05327
 20
22.7286
 10
1.0323
 20
22.6751
 10
1.01146
 20
22.6215
 10
0.990751
 20
22.5679
 10
0.970181
 20
22.5143
 10
0.949756
 20
22.4606
 10
0.929482
 20
22.407
 10
0.909368
 20
22.3535
 10
0.889419
 20
22.3
 10
0.869642
 20
22.2466
 10
0.850043
 20
22.1932
 10
0.830629
 20
22.14
 10
0.811407
 20
22.0868
 10
0.792383
 20
22.0338
 10
0.773564
 20
21.9809
 10
0.754957
 20
21.9282
 10
0.736567
 20
21.8757
 10
0.718402
 20
21.8234
 10
0.700469
 20
21.7713
 10
0.682773
 20
21.7194
 10
0.665321
 20
21.6677
 10
0.648121
 20
21.6163
 10
0.631178
 20
21.5651
 10
0.614499
 20
21.5143
 10
0.598092
 20
21.4637
 10
0.581961
 20
21.4135
 10
0.566114
 20
21.3636
 10
0.550559
 20
21.314
 10
0.5353
 20
21.2648
 10
0.520345
 20
21.216
 10
0.5057
 20
21.1675
 10
0.491372
 20
21.1195
 10
0.477368
 20
21.0719
 10
0.463694
 20
21.0247
 10
0.450356
 20
20.978
 10
0.437362
 20
20.9318
 10
0.424718
 20
20.886
 10
0.412431
 20
20.8408
 10
0.401419
 20
20.7997
 10
0.390601
 20
20.7592
 10
0.379974
 20
20.7193
 10
0.369538
 20
20.6798
 10
0.35929
 20
20.6408
 10
0.349229
 20
20.6023
 10
0.339352
 20
20.5642
 10
0.329659
 20
20.5266
 10
0.320148
 20
20.4894
 10
0.310817
 20
20.4526
 10
0.301665
 20
20.4161
 10
0.292689
 20
20.3801
 10
0.283888
 20
20.3443
 10
0.275261
 20
20.3089
 10
0.266805
 20
20.2739
 10
0.25852
 20
20.2391
 10
0.250403
 20
20.2046
 10
0.242453
 20
20.1704
 10
0.234668
 20
20.1364
 10
0.227046
 20
20.1026
 10
0.219586
 20
20.0691
 10
0.212287
 20
20.0358
 10
0.205146
 20
20.0026
 10
0.198162
 20
19.9696
 10
0.191333
 20
19.9368
 10
0.184658
 20
19.9041
 10
0.178134
 20
19.8715
 10
0.171761
 20
19.839
 10
0.165536
 20
19.8065
 10
0.159458
 20
19.7742
 10
0.153526
 20
19.7419
 10
0.147737
 20
19.7096
 10
0.14209
 20
19.6773
 10
0.136583
 20
19.6451
 10
0.131215
 20
19.6128
 10
0.125984
 20
19.5804
 10
0.120888
 20
19.548
 10
0.115926
 20
19.5156
 10
0.111095
 20
19.4831
 10
0.106395
 20
19.4504
 10
0.101824
 20
19.4176
 10
0.09738
 20
19.3847
 10
0.093061
 20
19.3517
 10
0.0888658
 20
19.3184
 10
0.0847926
 20
19.285
 10
0.0808397
 20
19.2514
 10
0.0770056
 20
19.2176
 10
0.0732885
 20
19.1835
 10
0.0696868
 20
19.1491
 10
0.0661989
 20
19.1145
 10
0.062823
 20
19.0796
 10
0.0595576
 20
19.0444
 10
0.0564009
 20
19.0089
 10
0.0533513
 20
18.973
 10
0.0504071
 20
18.9368
 10
0.0475667
 20
18.9002
 10
0.0448285
 20
18.8632
 10
0.0421907
 20
18.8258
 10
0.0396517
 20
18.788
 10
0.0372099
 20
18.7497
 10
0.0348636
 20
18.711
 10
0.0326111
 20
18.6718
 10
0.0304507
 20
18.6322
 10
0.0283809
 20
18.592
 10
0.0263999
 20
18.5513
 10
0.0245062
 20
18.51
 10
0.022698
 20
18.4682
 10
0.0209736
 20
18.4258
 10
0.0193315
 20
18.3828
 10
0.0177699
 20
18.3392
 10
0.0162873
 20
18.295
 10
0.0148818
 20
18.2502
 10
0.013552
 20
18.2047
 10
0.0122961
 20
18.1585
 10
0.0111125
 20
18.1116
 10
0.00999947
 20
18.064
 10
0.0089554
 20
18.0157
 10
0.00797863
 20
17.9667
 10
0.00706749
 20
17.9169
 10
0.00622033
 20
17.8663
 10
0.00543549
 20
17.8149
 10
0.0047113
 20
17.7627
 10
0.00404611
 20
17.7097
 10
0.00343827
 20
17.6558
 10
0.00288611
 20
17.6011
 10
0.00238798
 20
17.5455
 10
0.00194221
 20
17.489
 10
0.00154714
 20
17.4316
 10
0.00120113
 20
17.3733
 10
0.000902511
 20
17.314
 10
0.000649616
 20
17.2538
 10
0.000440799
 20
17.1926
 10
0.000274397
 20
17.1304
 10
0.000148743
 20
17.0671
 10
6.21974e-05
 20
17.0029
 10
1.30832e-05
 20
16.9376
 10
-2.5332e-07
 20
16.8713
 10
2.05338e-05
 20
16.8038
 10
7.37831e-05
 20
16.7353
 10
0.000157841
 20
16.6657
 10
0.000270434
 20
16.5969
 10
0.000412628
 20
16.5292
 10
0.000585996
 20
16.4625
 10
0.000792116
 20
16.3969
 10
0.00103256
 20
16.3323
 10
0.0013089
 20
16.2688
 10
0.00162272
 20
16.2062
 10
0.00197559
 20
16.1445
 10
0.00236908
 20
16.0839
 10
0.00280478
 20
16.0241
 10
0.00328425
 20
15.9653
 10
0.00380906
 20
15.9074
 10
0.00438081
 20
15.8504
 10
0.00500107
 20
15.7943
 10
0.0056714
 20
15.739
 10
0.00639337
 20
15.6846
 10
0.00716858
 20
15.631
 10
0.00799859
 20
15.5782
 10
0.00888497
 20
15.5263
 10
0.00982931
 20
15.4751
 10
0.0108332
 20
15.4246
 10
0.0118982
 20
15.3749
 10
0.0130258
 20
15.326
 10
0.0142177
 20
15.2778
 10
0.0154754
 20
15.2302
 10
0.0168006
 20
15.1834
 10
0.0181947
 20
15.1372
 10
0.0196594
 20
15.0917
 10
0.0211962
 20
15.0468
 10
0.0228067
 20
15.0026
 10
0.0244925
 20
14.9589
 10
0.0262551
 20
14.9159
 10
0.0280962
 20
14.8734
 10
0.0300173
 20
14.8315
 10
0.0320199
 20
14.7901
 10
0.0341058
 20
14.7492
 10
0.0362763
 20
14.7089
 10
0.0385332
 20
14.669
 10
0.0408779
 20
14.6297
 10
0.0433121
 20
14.5908
 10
0.0458373
 20
14.5523
 10
0.0484552
 20
14.5143
 10
0.0511672
 20
14.4767
 10
0.053975
 20
14.4395
 10
0.0568801
 20
14.4026
 10
0.0598841
 20
14.3662
 10
0.0629886
 20
14.3301
 10
0.0661952
 20
14.2943
 10
0.0695054
 20
14.2589
 10
0.0729208
 20
14.2237
 10
0.076443
 20
14.1889
 10
0.0800736
 20
14.1543
 10
0.0838141
 20
14.12
 10
0.0876661
 20
14.0859
 10
0.0916312
 20
14.0521
 10
0.0957109
 20
14.0184
 10
0.0999069
 20
13.985
 10
0.104221
 20
13.9517
 10
0.108654
 20
13.9186
 10
0.113208
 20
13.8856
 10
0.117885
 20
13.8528
 10
0.122686
 20
13.8201
 10
0.127612
 20
13.7875
 10
0.132666
 20
13.7549
 10
0.137848
 20
13.7225
 10
0.143161
 20
13.69
 10
0.148606
 20
13.6577
 10
0.154185
 20
13.6253
 10
0.159899
 20
13.5929
 10
0.165749
 20
13.5605
 10
0.171738
 20
13.5281
 10
0.177866
 20
13.4957
 10
0.184136
 20
13.4632
 10
0.190549
 20
13.4306
 10
0.197107
 20
13.3979
 10
0.203811
 20
13.3651
 10
0.210662
 20
13.3322
 10
0.217663
 20
13.2992
 10
0.224815
 20
13.266
 10
0.232119
 20
13.2326
 10
0.239577
 20
13.199
 10
0.247191
 20
13.1652
 10
0.254962
 20
13.1312
 10
0.262892
 20
13.097
 10
0.270982
 20
13.0625
 10
0.279234
 20
13.0278
 10
0.28765
 20
12.9928
 10
0.29623
 20
12.9574
 10
0.304977
 20
12.9218
 10
0.313893
 20
12.8858
 10
0.322978
 20
12.8495
 10
0.332235
 20
12.8128
 10
0.341664
 20
12.7758
 10
0.351269
 20
12.7383
 10
0.361049
 20
12.7005
 10
0.371007
 20
12.6622
 10
0.381144
 20
12.6234
 10
0.391462
 20
12.5842
 10
0.401962
 20
12.5446
 10
0.412646
 20
12.5044
 10
0.437623
 20
12.4116
 10
0.462914
 20
12.3193
 10
0.488525
 20
12.2275
 10
0.514456
 20
12.1361
 10
0.54071
 20
12.0452
 10
0.56729
 20
11.9548
 10
0.594199
 20
11.8648
 10
0.621438
 20
11.7754
 10
0.649011
 20
11.6863
 10
0.67692
 20
11.5977
 10
0.705168
 20
11.5096
 10
0.733757
 20
11.4219
 10
0.762689
 20
11.3347
 10
0.791968
 20
11.2478
 10
0.821595
 20
11.1614
 10
0.851574
 20
11.0755
 10
0.881906
 20
10.9899
 10
0.912595
 20
10.9048
 10
0.943643
 20
10.8201
 10
0.975052
 20
10.7358
 10
1.00682
 20
10.6519
 10
1.03896
 20
10.5684
 10
1.07147
 20
10.4853
 10
1.10435
 20
10.4026
 10
1.13761
 20
10.3203
 10
1.17124
 20
10.2383
 10
1.20525
 20
10.1568
 10
1.23964
 20
10.0756
 10
1.27442
 20
9.99476
 10
1.30958
 20
9.91431
 10
1.34513
 20
9.83422
 10
1.38108
 20
9.75448
 10
1.41741
 20
9.6751
 10
1.45415
 20
9.59607
 10
1.49128
 20
9.51739
 10
1.52882
 20
9.43904
 10
1.56676
 20
9.36103
 10
1.60511
 20
9.28335
 10
1.64387
 20
9.206
 10
1.68304
 20
9.12897
 10
1.72262
 20
9.05225
 10
1.76263
 20
8.97586
 10
1.80305
 20
8.89977
 10
1.84389
 20
8.82399
 10
1.88516
 20
8.74851
 10
1.92686
 20
8.67333
 10
1.96899
 20
8.59844
 10
2.01155
 20
8.52384
 10
2.05454
 20
8.44952
 10
2.09797
 20
8.37548
 10
2.14184
 20
8.30172
 10
2.18616
 20
8.22823
 10
2.23092
 20
8.155
 10
2.27613
 20
8.08204
 10
2.32178
 20
8.00934
 10
2.3679
 20
7.93689
 10
2.41446
 20
7.86469
 10
2.46148
 20
7.79274
 10
2.50897
 20
7.72103
 10
2.55692
 20
7.64955
 10
2.60533
 20
7.57831
 10
2.65421
 20
7.50729
 10
2.70356
 20
7.4365
 10
2.75339
 20
7.36593
 10
2.80369
 20
7.29558
 10
2.85446
 20
7.22543
 10
2.90572
 20
7.1555
 10
2.95746
 20
7.08576
 10
3.00969
 20
7.01623
 10
3.06241
 20
6.94688
 10
3.11562
 20
6.87773
 10
3.16932
 20
6.80876
 10
3.22351
 20
6.73998
 10
3.27821
 20
6.67137
 10
3.3334
 20
6.60293
 10
3.3891
 20
6.53466
 10
3.44531
 20
6.46655
 10
3.50202
 20
6.39861
 10
3.55925
 20
6.33082
 10
3.61699
 20
6.26318
 10
3.67524
 20
6.19568
 10
3.73402
 20
6.12833
 10
3.79331
 20
6.06112
 10
3.85313
 20
5.99404
 10
3.91348
 20
5.92709
 10
3.97435
 20
5.86027
 10
4.03576
 20
5.79356
 10
4.0977
 20
5.72698
 10
4.16018
 20
5.6605
 10
4.22319
 20
5.59414
 10
4.28675
 20
5.52787
 10
4.35085
 20
5.46171
 10
4.4155
 20
5.39564
 10
4.4807
 20
5.32966
 10
4.54645
 20
5.26377
 10
4.61275
 20
5.19796
 10
4.67961
 20
5.13223
 10
4.74703
 20
5.06658
 10
4.81502
 20
5.00099
 10
4.88356
 20
4.93546
 10
4.96618
 20
4.85735
 10
5.04915
 20
4.77989
 10
5.13249
 20
4.70309
 10
5.2162
 20
4.62693
 10
5.30028
 20
4.55142
 10
5.38472
 20
4.47656
 10
5.46954
 20
4.40235
 10
5.55474
 20
4.32879
 10
5.64032
 20
4.25586
 10
5.72628
 20
4.18359
 10
5.81262
 20
4.11195
 10
5.89935
 20
4.04096
 10
5.98647
 20
3.9706
 10
6.07398
 20
3.90088
 10
6.16189
 20
3.83181
 10
6.25019
 20
3.76336
 10
6.33889
 20
3.69556
 10
6.428
 20
3.62838
 10
6.51751
 20
3.56185
 10
6.60742
 20
3.49594
 10
6.69775
 20
3.43066
 10
6.78849
 20
3.36601
 10
6.87965
 20
3.30199
 10
6.97122
 20
3.2386
 10
7.06321
 20
3.17583
 10
7.15563
 20
3.11369
 10
7.24847
 20
3.05217
 10
7.34174
 20
2.99128
 10
7.43544
 20
2.931
 10
7.52957
 20
2.87135
 10
7.62414
 20
2.81231
 10
7.71915
 20
2.7539
 10
7.81459
 20
2.69609
 10
7.91049
 20
2.63891
 10
8.00682
 20
2.58234
 10
8.10361
 20
2.52638
 10
8.20084
 20
2.47103
 10
8.29854
 20
2.41629
 10
8.39668
 20
2.36217
 10
8.49529
 20
2.30865
 10
8.59435
 20
2.25574
 10
8.69389
 20
2.20343
 10
8.79388
 20
2.15173
 10
8.89435
 20
2.10064
 10
8.99529
 20
2.05014
 10
9.0967
 20
2.00025
 10
9.19859
 20
1.95096
 10
9.30096
 20
1.90226
 10
9.40381
 20
1.85417
 10
9.50714
 20
1.80667
 10
9.61096
 20
1.75977
 10
9.71528
 20
1.71346
 10
9.82008
 20
1.66774
 10
9.92538
 20
1.62262
 10
10.0312
 20
1.57808
 10
10.1375
 20
1.53414
 10
10.2443
 20
1.49078
 10
10.3516
 20
1.44801
 10
10.4594
 20
1.40583
 10
10.5677
 20
1.36423
 10
10.6765
 20
1.32322
 10
10.7859
 20
1.28279
 10
10.8958
 20
1.24294
 10
11.0061
 20
1.20367
 10
11.1171
 20
1.16498
 10
11.2285
 20
1.12687
 10
11.3405
 20
1.08934
 10
11.453
 20
1.05238
 10
11.566
 20
1.01599
 10
11.6795
 20
0.980178
 10
11.7936
 20
0.944938
 10
11.9083
 20
0.910269
 10
12.0235
 20
0.876169
 10
12.1392
 20
0.842638
 10
12.2555
 20
0.809675
 10
12.3723
 20
0.777277
 10
12.4897
 20
0.745445
 10
12.6077
 20
0.714177
 10
12.7262
 20
0.683471
 10
12.8452
 20
0.653327
 10
12.9649
 20
0.623743
 10
13.0851
 20
0.594718
 10
13.2058
 20
0.566251
 10
13.3272
 20
0.538342
 10
13.4491
 20
0.510987
 10
13.5716
 20
0.484188
 10
13.6946
 20
0.457941
 10
13.8183
 20
0.432247
 10
13.9425
 20
0.407104
 10
14.0673
 20
0.382511
 10
14.1927
 20
0.358466
 10
14.3187
 20
0.334969
 10
14.4453
 20
0.312018
 10
14.5725
 20
0.289612
 10
14.7003
 20
0.26775
 10
14.8287
 20
0.246431
 10
14.9577
 20
0.225654
 10
15.0874
 20
0.205417
 10
15.2176
 20
0.185719
 10
15.3484
 20
0.166559
 10
15.3484
 20
0.166559
 10
15.4081
 20
0.158204
 10
15.4695
 20
0.150072
 10
15.5326
 20
0.142162
 10
15.5973
 20
0.134475
 10
15.6637
 20
0.127009
 10
15.7317
 20
0.119763
 10
15.8013
 20
0.112738
 10
15.8723
 20
0.105932
 10
15.9449
 20
0.0993446
 10
16.0189
 20
0.0929752
 10
16.0943
 20
0.0868232
 10
16.1712
 20
0.0808879
 10
16.2493
 20
0.0751686
 10
16.3288
 20
0.0696647
 10
16.4095
 20
0.0643756
 10
16.4915
 20
0.0593005
 10
16.5747
 20
0.0544388
 10
16.659
 20
0.0497898
 10
16.7445
 20
0.045353
 10
16.8311
 20
0.0411275
 10
16.9187
 20
0.0371128
 10
17.0074
 20
0.0333082
 10
17.0971
 20
0.0297131
 10
17.1877
 20
0.0263267
 10
17.2792
 20
0.0231485
 10
17.3716
 20
0.0201777
 10
17.4648
 20
0.0174137
 10
17.5589
 20
0.0148559
 10
17.6537
 20
0.0125036
 10
17.7493
 20
0.010356
 10
17.8456
 20
0.00841267
 10
17.9426
 20
0.0066728
 10
18.0401
 20
0.00513578
 10
18.1383
 20
0.00380094
 10
18.2371
 20
0.00266762
 10
18.3363
 20
0.00173516
 10
18.4361
 20
0.00100291
 10
18.5363
 20
0.000470191
 10
18.6369
 20
0.000136353
 10
18.7379
 20
7.45058e-07
  0
ENDSEC
  0
EOF
