<?xml version="1.0" encoding="UTF-8" standalone="no"?>
<!-- Created with Inkscape (http://www.inkscape.org/) -->

<svg
   xmlns:dc="http://purl.org/dc/elements/1.1/"
   xmlns:cc="http://creativecommons.org/ns#"
   xmlns:rdf="http://www.w3.org/1999/02/22-rdf-syntax-ns#"
   xmlns:svg="http://www.w3.org/2000/svg"
   xmlns="http://www.w3.org/2000/svg"
   xmlns:sodipodi="http://sodipodi.sourceforge.net/DTD/sodipodi-0.dtd"
   xmlns:inkscape="http://www.inkscape.org/namespaces/inkscape"
   width="39.020939mm"
   height="49.804073mm"
   viewBox="0 0 39.020939 49.80407"
   version="1.1"
   id="svg8"
   inkscape:version="0.92.4 (5da689c313, 2019-01-14)"
   sodipodi:docname="fire.svg">
  <defs
     id="defs2" />
  <sodipodi:namedview
     id="base"
     pagecolor="#ffffff"
     bordercolor="#666666"
     borderopacity="1.0"
     inkscape:pageopacity="0.0"
     inkscape:pageshadow="2"
     inkscape:zoom="2.8"
     inkscape:cx="96.811631"
     inkscape:cy="110.94442"
     inkscape:document-units="mm"
     inkscape:current-layer="layer1"
     showgrid="false"
     fit-margin-top="0"
     fit-margin-left="0"
     fit-margin-right="0"
     fit-margin-bottom="0"
     inkscape:window-width="1920"
     inkscape:window-height="1009"
     inkscape:window-x="-8"
     inkscape:window-y="2"
     inkscape:window-maximized="1" />
  <metadata
     id="metadata5">
    <rdf:RDF>
      <cc:Work
         rdf:about="">
        <dc:format>image/svg+xml</dc:format>
        <dc:type
           rdf:resource="http://purl.org/dc/dcmitype/StillImage" />
        <dc:title></dc:title>
      </cc:Work>
    </rdf:RDF>
  </metadata>
  <g
     inkscape:label="Layer 1"
     inkscape:groupmode="layer"
     id="layer1"
     transform="translate(-100.09504,-224.20177)">
    <g
       id="g21"
       transform="matrix(0.45161366,0,0,0.45161366,91.932481,141.5554)">
      <path
         style="fill:#d0d0d0;fill-opacity:1;stroke-width:0.35277778"
         d="m 52.059918,292.91382 c -9.679598,-1.39433 -17.087604,-4.77021 -23.172127,-10.5597 -5.080277,-4.83393 -8.067981,-9.89191 -9.899868,-16.75981 -0.795431,-2.98214 -0.906109,-4.09867 -0.913366,-9.21416 -0.0073,-5.18126 0.09296,-6.19705 0.912888,-9.24483 0.893625,-3.3217 3.127262,-8.54628 4.26736,-9.98156 0.529271,-0.6663 0.561075,-0.59367 0.571671,1.30555 0.02519,4.51505 1.705199,8.20858 4.348686,9.56065 0.73637,0.37664 1.403648,0.62 1.482839,0.54081 0.07919,-0.0792 -0.246341,-1.21932 -0.723405,-2.53361 -1.742347,-4.80011 -2.325025,-10.90772 -1.553309,-16.28173 0.459516,-3.19993 1.736495,-7.9375 2.139499,-7.9375 0.172773,0 0.314131,0.7005 0.314131,1.55667 0,2.52774 1.862094,5.7176 4.327767,7.41369 1.107903,0.76211 2.096277,1.30374 2.196387,1.20363 0.10011,-0.10011 0.01364,-1.04115 -0.192151,-2.0912 -0.205793,-1.05005 -0.377701,-3.65543 -0.382019,-5.78974 -0.0121,-5.97922 1.127374,-9.33297 4.316746,-12.70526 1.654838,-1.74974 3.976529,-3.33157 4.346628,-2.96147 0.09753,0.0975 -0.06284,1.04306 -0.356369,2.10119 -0.736156,2.65373 -0.726722,7.48518 0.01961,10.05254 1.246378,4.28738 3.956272,8.08896 5.599222,7.85486 0.654029,-0.0932 0.776782,-0.37176 0.868662,-1.97131 0.08302,-1.44529 -0.210717,-2.78939 -1.310625,-5.99722 -2.008311,-5.85714 -2.489387,-8.22462 -2.495328,-12.28009 -0.01111,-7.58394 2.560902,-13.50496 8.614361,-19.8311 2.474291,-2.58574 5.743945,-5.36075 6.316309,-5.36075 0.110582,0 -0.425908,1.30969 -1.192202,2.91042 -3.522884,7.35903 -2.700559,11.16711 3.898096,18.05152 2.092061,2.18266 4.147661,4.6426 4.568003,5.46653 1.089434,2.13547 2.076108,6.27491 2.454667,10.29817 0.179352,1.90612 0.427231,3.62932 0.550848,3.82933 0.300863,0.4868 1.848612,-0.33571 3.068599,-1.63072 1.520162,-1.61366 3.624527,-5.67227 4.909252,-9.4683 l 1.193938,-3.52778 0.226049,3.70416 c 0.272482,4.46511 0.771006,7.35757 1.915276,11.1125 1.1855,3.89024 1.387239,4.10925 1.895553,2.05779 0.539376,-2.17683 2.936723,-7.17476 3.828704,-7.98199 0.668539,-0.60502 0.687458,-0.56329 0.882753,1.94741 0.252955,3.25201 1.727881,7.42056 4.048851,11.44317 0.989136,1.71433 2.236957,4.38696 2.77294,5.93918 0.867427,2.5121 0.975204,3.32618 0.980796,7.40833 0.0059,4.28046 -0.217385,5.80435 -1.406656,9.60186 -0.108292,0.34578 0.364529,0.0144 1.050714,-0.73641 2.0458,-2.23847 2.511005,-4.15873 2.511005,-10.36487 0,-2.95899 0.02766,-5.37993 0.06144,-5.37986 0.278867,7e-4 3.031097,7.93178 3.672587,10.58345 1.15839,4.78837 1.179,12.9076 0.0442,17.41911 -3.55029,14.11478 -15.04466,23.74008 -32.084518,26.86733 -4.274669,0.78451 -15.156586,0.98608 -19.495121,0.36112 z"
         id="path37"
         inkscape:connector-curvature="0" />
      <path
         style="fill:#b9b9b9;fill-opacity:1;stroke-width:0.35277778"
         d="m 52.059918,292.91382 c -9.679598,-1.39433 -17.087604,-4.77021 -23.172127,-10.5597 -5.080277,-4.83393 -8.067981,-9.89191 -9.899868,-16.75981 -0.795431,-2.98214 -0.906109,-4.09867 -0.913366,-9.21416 -0.0073,-5.18126 0.09296,-6.19705 0.912888,-9.24483 0.893625,-3.3217 3.127262,-8.54628 4.26736,-9.98156 0.529271,-0.6663 0.561075,-0.59367 0.571671,1.30555 0.02519,4.51505 1.705199,8.20858 4.348686,9.56065 0.73637,0.37664 1.403648,0.62 1.482839,0.54081 0.07919,-0.0792 -0.246341,-1.21932 -0.723405,-2.53361 -1.742347,-4.80011 -2.325025,-10.90772 -1.553309,-16.28173 0.459516,-3.19993 1.736495,-7.9375 2.139499,-7.9375 0.172773,0 0.314131,0.7005 0.314131,1.55667 0,2.52774 1.862094,5.7176 4.327767,7.41369 1.107903,0.76211 2.096277,1.30374 2.196387,1.20363 0.10011,-0.10011 0.01364,-1.04115 -0.192151,-2.0912 -0.205793,-1.05005 -0.377701,-3.65543 -0.382019,-5.78974 -0.0121,-5.97922 1.127374,-9.33297 4.316746,-12.70526 1.654838,-1.74974 3.976529,-3.33157 4.346628,-2.96147 0.09753,0.0975 -0.06284,1.04306 -0.356369,2.10119 -0.736156,2.65373 -0.726722,7.48518 0.01961,10.05254 1.246378,4.28738 3.956272,8.08896 5.599222,7.85486 0.654029,-0.0932 0.776782,-0.37176 0.868662,-1.97131 0.08302,-1.44529 -0.210717,-2.78939 -1.310625,-5.99722 -2.008311,-5.85714 -2.489387,-8.22462 -2.495328,-12.28009 -0.01111,-7.58394 2.560902,-13.50496 8.614361,-19.8311 2.474291,-2.58574 5.743945,-5.36075 6.316309,-5.36075 0.110582,0 -0.425908,1.30969 -1.192202,2.91042 -3.532293,7.37868 -2.706289,11.16113 3.955038,18.11093 2.665977,2.78142 4.136369,4.63004 4.751543,5.97376 1.016416,2.22014 2.215776,7.61024 2.274725,10.22295 0.04876,2.16095 0.379949,3.42942 0.944548,3.61762 0.720584,0.24019 4.074852,-3.51309 5.29335,-5.92304 0.634234,-1.25438 1.695333,-3.78882 2.357998,-5.63208 l 1.204846,-3.35139 0.02466,2.64583 c 0.03182,3.41409 0.870849,8.59782 1.969918,12.17083 1.197487,3.89296 1.395801,4.10734 1.903642,2.05779 0.539376,-2.17683 2.936723,-7.17476 3.828704,-7.98199 0.668539,-0.60502 0.687458,-0.56329 0.882753,1.94741 0.252955,3.25201 1.72788,7.42056 4.048851,11.44317 0.989136,1.71433 2.236957,4.38696 2.772939,5.93918 0.867428,2.5121 0.975205,3.32618 0.980797,7.40833 0.0059,4.28046 -0.217385,5.80435 -1.406656,9.60186 -0.108292,0.34578 0.364529,0.0144 1.050714,-0.73641 2.0458,-2.23847 2.511005,-4.15873 2.511005,-10.36487 0,-2.95899 0.02766,-5.37993 0.06144,-5.37986 0.27886,7e-4 3.0311,7.93178 3.67259,10.58345 1.15838,4.78837 1.179,12.9076 0.0442,17.41911 -3.55029,14.11478 -15.044663,23.74008 -32.084521,26.86733 -4.274669,0.78451 -15.156586,0.98608 -19.495122,0.36112 z"
         id="path35"
         inkscape:connector-curvature="0" />
      <path
         style="fill:#a3a3a3;fill-opacity:1;stroke-width:0.35277778"
         d="m 52.059918,292.91382 c -9.679598,-1.39433 -17.087604,-4.77021 -23.172127,-10.5597 -5.080277,-4.83393 -8.067981,-9.89191 -9.899868,-16.75981 -0.795431,-2.98214 -0.906109,-4.09867 -0.913366,-9.21416 -0.0073,-5.18126 0.09296,-6.19705 0.912888,-9.24483 0.893625,-3.3217 3.127262,-8.54628 4.26736,-9.98156 0.529271,-0.6663 0.561075,-0.59367 0.571671,1.30555 0.02519,4.51505 1.705199,8.20858 4.348686,9.56065 0.73637,0.37664 1.403648,0.62 1.482839,0.54081 0.07919,-0.0792 -0.246341,-1.21932 -0.723405,-2.53361 -1.742347,-4.80011 -2.325025,-10.90772 -1.553309,-16.28173 0.459516,-3.19993 1.736495,-7.9375 2.139499,-7.9375 0.172773,0 0.314131,0.7005 0.314131,1.55667 0,2.52774 1.862094,5.7176 4.327767,7.41369 1.107903,0.76211 2.096277,1.30374 2.196387,1.20363 0.10011,-0.10011 0.01364,-1.04115 -0.192151,-2.0912 -0.205793,-1.05005 -0.377701,-3.65543 -0.382019,-5.78974 -0.0121,-5.97922 1.127374,-9.33297 4.316746,-12.70526 1.654838,-1.74974 3.976529,-3.33157 4.346628,-2.96147 0.09753,0.0975 -0.06284,1.04306 -0.356369,2.10119 -0.736156,2.65373 -0.726722,7.48518 0.01961,10.05254 1.246378,4.28738 3.956272,8.08896 5.599222,7.85486 0.654029,-0.0932 0.776782,-0.37176 0.868662,-1.97131 0.08302,-1.44529 -0.210717,-2.78939 -1.310625,-5.99722 -2.008311,-5.85714 -2.489387,-8.22462 -2.495328,-12.28009 -0.01111,-7.58394 2.560902,-13.50496 8.614361,-19.8311 2.474291,-2.58574 5.743945,-5.36075 6.316309,-5.36075 0.110582,0 -0.425908,1.30969 -1.192202,2.91042 -3.532293,7.37868 -2.706289,11.16113 3.955038,18.11093 2.665977,2.78142 4.136369,4.63004 4.751543,5.97376 0.977452,2.13503 2.230017,7.64578 2.243444,9.87017 0.01411,2.3357 0.407751,4.05694 0.927837,4.05694 0.836602,0 3.252876,-2.46567 4.617216,-4.71162 0.72251,-1.18938 1.985444,-3.98927 2.806524,-6.22197 l 1.492867,-4.05946 0.01845,2.64583 c 0.02371,3.39949 0.860027,8.58282 1.96371,12.17083 1.197486,3.89296 1.3958,4.10734 1.903641,2.05779 0.539377,-2.17683 2.936724,-7.17476 3.828705,-7.98199 0.668538,-0.60502 0.687458,-0.56329 0.882752,1.94741 0.252956,3.25201 1.727881,7.42056 4.048852,11.44317 0.989136,1.71433 2.236957,4.38696 2.772939,5.93918 0.867428,2.5121 0.975205,3.32618 0.980796,7.40833 0.0059,4.28046 -0.217385,5.80435 -1.406655,9.60186 -0.108292,0.34578 0.364529,0.0144 1.050713,-0.73641 2.045801,-2.23847 2.511005,-4.15873 2.511005,-10.36487 0,-2.95899 0.02766,-5.37993 0.06144,-5.37986 0.278868,7e-4 3.031098,7.93178 3.672588,10.58345 1.15839,4.78837 1.179,12.9076 0.0442,17.41911 -3.55029,14.11478 -15.044662,23.74008 -32.08452,26.86733 -4.274668,0.78451 -15.156586,0.98608 -19.495121,0.36112 z"
         id="path33"
         inkscape:connector-curvature="0" />
      <path
         style="fill:#8c8c8c;fill-opacity:1;stroke-width:0.35277778"
         d="m 52.059918,292.91382 c -9.679598,-1.39433 -17.087604,-4.77021 -23.172127,-10.5597 -5.080277,-4.83393 -8.067981,-9.89191 -9.899868,-16.75981 -0.795431,-2.98214 -0.906109,-4.09867 -0.913366,-9.21416 -0.0073,-5.18126 0.09296,-6.19705 0.912888,-9.24483 0.893625,-3.3217 3.127262,-8.54628 4.26736,-9.98156 0.529271,-0.6663 0.561075,-0.59367 0.571671,1.30555 0.02519,4.51505 1.705199,8.20858 4.348686,9.56065 0.73637,0.37664 1.403648,0.62 1.482839,0.54081 0.07919,-0.0792 -0.246341,-1.21932 -0.723405,-2.53361 -1.742347,-4.80011 -2.325025,-10.90772 -1.553309,-16.28173 0.459516,-3.19993 1.736495,-7.9375 2.139499,-7.9375 0.172773,0 0.314131,0.7005 0.314131,1.55667 0,2.52774 1.862094,5.7176 4.327767,7.41369 1.107903,0.76211 2.096277,1.30374 2.196387,1.20363 0.10011,-0.10011 0.01364,-1.04115 -0.192151,-2.0912 -0.205793,-1.05005 -0.377701,-3.65543 -0.382019,-5.78974 -0.0121,-5.97922 1.127374,-9.33297 4.316746,-12.70526 1.654838,-1.74974 3.976529,-3.33157 4.346628,-2.96147 0.09753,0.0975 -0.06284,1.04306 -0.356369,2.10119 -0.736156,2.65373 -0.726722,7.48518 0.01961,10.05254 1.246378,4.28738 3.956272,8.08896 5.599222,7.85486 0.654029,-0.0932 0.776782,-0.37176 0.868662,-1.97131 0.08302,-1.44529 -0.210717,-2.78939 -1.310625,-5.99722 -2.008311,-5.85714 -2.489387,-8.22462 -2.495328,-12.28009 -0.01111,-7.58394 2.560902,-13.50496 8.614361,-19.8311 2.474291,-2.58574 5.743945,-5.36075 6.316309,-5.36075 0.110582,0 -0.425908,1.30969 -1.192202,2.91042 -3.532293,7.37868 -2.706289,11.16113 3.955038,18.11093 2.665977,2.78142 4.136369,4.63004 4.751543,5.97376 0.977452,2.13503 2.230017,7.64578 2.243444,9.87017 0.01422,2.35588 0.406989,4.05694 0.936738,4.05694 0.898828,0 3.666014,-2.91238 4.951864,-5.21169 0.698109,-1.24834 1.873236,-3.95983 2.611388,-6.02553 l 1.342097,-3.75583 0.01965,2.64583 c 0.02526,3.40223 0.86208,8.58566 1.964888,12.17083 1.197486,3.89296 1.3958,4.10734 1.903642,2.05779 0.539376,-2.17683 2.936723,-7.17476 3.828704,-7.98199 0.668539,-0.60502 0.687458,-0.56329 0.882752,1.94741 0.252956,3.25201 1.727881,7.42056 4.048852,11.44317 0.989136,1.71433 2.236957,4.38696 2.772939,5.93918 0.867428,2.5121 0.975205,3.32618 0.980797,7.40833 0.0059,4.28046 -0.217386,5.80435 -1.406656,9.60186 -0.108292,0.34578 0.364529,0.0144 1.050713,-0.73641 2.045801,-2.23847 2.511006,-4.15873 2.511006,-10.36487 0,-2.95899 0.02766,-5.37993 0.06144,-5.37986 0.278866,7e-4 3.031096,7.93178 3.672586,10.58345 1.15839,4.78837 1.179,12.9076 0.0442,17.41911 -3.55029,14.11478 -15.044659,23.74008 -32.084518,26.86733 -4.274668,0.78451 -15.156586,0.98608 -19.495121,0.36112 z"
         id="path31"
         inkscape:connector-curvature="0" />
      <path
         style="fill:#767676;fill-opacity:1;stroke-width:0.35277778"
         d="m 52.059918,292.91382 c -9.679598,-1.39433 -17.087604,-4.77021 -23.172127,-10.5597 -5.080277,-4.83393 -8.067981,-9.89191 -9.899868,-16.75981 -0.795431,-2.98214 -0.906109,-4.09867 -0.913366,-9.21416 -0.0073,-5.18126 0.09296,-6.19705 0.912888,-9.24483 0.893625,-3.3217 3.127262,-8.54628 4.26736,-9.98156 0.529271,-0.6663 0.561075,-0.59367 0.571671,1.30555 0.02519,4.51505 1.705199,8.20858 4.348686,9.56065 0.73637,0.37664 1.403648,0.62 1.482839,0.54081 0.07919,-0.0792 -0.246341,-1.21932 -0.723405,-2.53361 -1.742347,-4.80011 -2.325025,-10.90772 -1.553309,-16.28173 0.459516,-3.19993 1.736495,-7.9375 2.139499,-7.9375 0.172773,0 0.314131,0.7005 0.314131,1.55667 0,2.52774 1.862094,5.7176 4.327767,7.41369 1.107903,0.76211 2.096277,1.30374 2.196387,1.20363 0.10011,-0.10011 0.01364,-1.04115 -0.192151,-2.0912 -0.205793,-1.05005 -0.377701,-3.65543 -0.382019,-5.78974 -0.0121,-5.97922 1.127374,-9.33297 4.316746,-12.70526 1.654838,-1.74974 3.976529,-3.33157 4.346628,-2.96147 0.09753,0.0975 -0.06284,1.04306 -0.356369,2.10119 -0.736156,2.65373 -0.726722,7.48518 0.01961,10.05254 1.246378,4.28738 3.956272,8.08896 5.599222,7.85486 0.654029,-0.0932 0.776782,-0.37176 0.868662,-1.97131 0.08302,-1.44529 -0.210717,-2.78939 -1.310625,-5.99722 -2.008311,-5.85714 -2.489387,-8.22462 -2.495328,-12.28009 -0.01111,-7.58394 2.560902,-13.50496 8.614361,-19.8311 2.474291,-2.58574 5.743945,-5.36075 6.316309,-5.36075 0.110582,0 -0.425908,1.30969 -1.192202,2.91042 -3.522884,7.35903 -2.700559,11.16711 3.898096,18.05152 2.092061,2.18266 4.147661,4.6426 4.568003,5.46653 1.108319,2.17249 2.075004,6.28295 2.478095,10.53715 0.193544,2.04267 0.439219,3.80128 0.545945,3.908 0.106725,0.10673 0.771038,-0.11649 1.476248,-0.49604 2.247667,-1.2097 4.591533,-5.11924 6.652937,-11.09702 l 1.155707,-3.35139 0.02819,2.64583 c 0.03645,3.42251 0.876981,8.60634 1.973428,12.17083 1.197487,3.89296 1.395801,4.10734 1.903642,2.05779 0.539376,-2.17683 2.936723,-7.17476 3.828704,-7.98199 0.668539,-0.60502 0.687458,-0.56329 0.882753,1.94741 0.252955,3.25201 1.727881,7.42056 4.048851,11.44317 0.989136,1.71433 2.236957,4.38696 2.77294,5.93918 0.867427,2.5121 0.975204,3.32618 0.980796,7.40833 0.0059,4.28046 -0.217385,5.80435 -1.406656,9.60186 -0.108292,0.34578 0.364529,0.0144 1.050714,-0.73641 2.0458,-2.23847 2.511005,-4.15873 2.511005,-10.36487 0,-2.95899 0.02766,-5.37993 0.06144,-5.37986 0.278867,7e-4 3.031107,7.93178 3.672597,10.58345 1.15839,4.78837 1.179,12.9076 0.0442,17.41911 -3.55029,14.11478 -15.04467,23.74008 -32.084528,26.86733 -4.274669,0.78451 -15.156586,0.98608 -19.495121,0.36112 z"
         id="path29"
         inkscape:connector-curvature="0" />
      <path
         style="fill:#606060;fill-opacity:1;stroke-width:0.35277778"
         d="m 52.059918,292.91382 c -9.679598,-1.39433 -17.087604,-4.77021 -23.172127,-10.5597 -5.080277,-4.83393 -8.067981,-9.89191 -9.899868,-16.75981 -0.795431,-2.98214 -0.906109,-4.09867 -0.913366,-9.21416 -0.0073,-5.18126 0.09296,-6.19705 0.912888,-9.24483 0.893625,-3.3217 3.127262,-8.54628 4.26736,-9.98156 0.529271,-0.6663 0.561075,-0.59367 0.571671,1.30555 0.02519,4.51505 1.705199,8.20858 4.348686,9.56065 0.73637,0.37664 1.403648,0.62 1.482839,0.54081 0.07919,-0.0792 -0.246341,-1.21932 -0.723405,-2.53361 -1.742347,-4.80011 -2.325025,-10.90772 -1.553309,-16.28173 0.459516,-3.19993 1.736495,-7.9375 2.139499,-7.9375 0.172773,0 0.314131,0.7005 0.314131,1.55667 0,2.52774 1.862094,5.7176 4.327767,7.41369 1.107903,0.76211 2.096277,1.30374 2.196387,1.20363 0.10011,-0.10011 0.01364,-1.04115 -0.192151,-2.0912 -0.205793,-1.05005 -0.377701,-3.65543 -0.382019,-5.78974 -0.0121,-5.97922 1.127374,-9.33297 4.316746,-12.70526 1.654838,-1.74974 3.976529,-3.33157 4.346628,-2.96147 0.09753,0.0975 -0.06284,1.04306 -0.356369,2.10119 -0.736156,2.65373 -0.726722,7.48518 0.01961,10.05254 1.246378,4.28738 3.956272,8.08896 5.599222,7.85486 0.654029,-0.0932 0.776782,-0.37176 0.868662,-1.97131 0.08302,-1.44529 -0.210717,-2.78939 -1.310625,-5.99722 -2.008311,-5.85714 -2.489387,-8.22462 -2.495328,-12.28009 -0.01111,-7.58394 2.560902,-13.50496 8.614361,-19.8311 2.474291,-2.58574 5.743945,-5.36075 6.316309,-5.36075 0.110582,0 -0.425908,1.30969 -1.192202,2.91042 -3.522884,7.35903 -2.700559,11.16711 3.898096,18.05152 2.092061,2.18266 4.147661,4.6426 4.568003,5.46653 1.108319,2.17249 2.075004,6.28295 2.478095,10.53715 0.193544,2.04267 0.434947,3.797 0.536448,3.8985 0.101501,0.10151 0.733816,-0.0774 1.405145,-0.39751 2.167033,-1.03338 4.449929,-4.77737 6.605588,-10.83328 l 1.318535,-3.70416 0.01076,2.64583 c 0.01372,3.38185 0.846603,8.56429 1.955987,12.17083 1.197486,3.89296 1.3958,4.10734 1.903642,2.05779 0.539376,-2.17683 2.936723,-7.17476 3.828704,-7.98199 0.668539,-0.60502 0.687458,-0.56329 0.882752,1.94741 0.252956,3.25201 1.727881,7.42056 4.048852,11.44317 0.989136,1.71433 2.236957,4.38696 2.772939,5.93918 0.867428,2.5121 0.975205,3.32618 0.980797,7.40833 0.0059,4.28046 -0.217386,5.80435 -1.406656,9.60186 -0.108292,0.34578 0.364529,0.0144 1.050713,-0.73641 2.045801,-2.23847 2.511006,-4.15873 2.511006,-10.36487 0,-2.95899 0.02766,-5.37993 0.06144,-5.37986 0.278869,7e-4 3.031099,7.93178 3.672589,10.58345 1.15839,4.78837 1.179,12.9076 0.0442,17.41911 -3.55029,14.11478 -15.044662,23.74008 -32.084521,26.86733 -4.274668,0.78451 -15.156586,0.98608 -19.495121,0.36112 z"
         id="path27"
         inkscape:connector-curvature="0" />
      <path
         style="fill:#494949;fill-opacity:1;stroke-width:0.35277778"
         d="m 52.059918,292.91382 c -9.679598,-1.39433 -17.087604,-4.77021 -23.172127,-10.5597 -5.080277,-4.83393 -8.067981,-9.89191 -9.899868,-16.75981 -0.795431,-2.98214 -0.906109,-4.09867 -0.913366,-9.21416 -0.0073,-5.18126 0.09296,-6.19705 0.912888,-9.24483 0.893625,-3.3217 3.127262,-8.54628 4.26736,-9.98156 0.529271,-0.6663 0.561075,-0.59367 0.571671,1.30555 0.02519,4.51505 1.705199,8.20858 4.348686,9.56065 0.73637,0.37664 1.403648,0.62 1.482839,0.54081 0.07919,-0.0792 -0.246341,-1.21932 -0.723405,-2.53361 -1.742347,-4.80011 -2.325025,-10.90772 -1.553309,-16.28173 0.459516,-3.19993 1.736495,-7.9375 2.139499,-7.9375 0.172773,0 0.314131,0.7005 0.314131,1.55667 0,2.52774 1.862094,5.7176 4.327767,7.41369 1.107903,0.76211 2.096277,1.30374 2.196387,1.20363 0.10011,-0.10011 0.01364,-1.04115 -0.192151,-2.0912 -0.205793,-1.05005 -0.377701,-3.65543 -0.382019,-5.78974 -0.0121,-5.97922 1.127374,-9.33297 4.316746,-12.70526 1.654838,-1.74974 3.976529,-3.33157 4.346628,-2.96147 0.09753,0.0975 -0.06284,1.04306 -0.356369,2.10119 -0.736156,2.65373 -0.726722,7.48518 0.01961,10.05254 1.246378,4.28738 3.956272,8.08896 5.599222,7.85486 0.654029,-0.0932 0.776782,-0.37176 0.868662,-1.97131 0.08302,-1.44529 -0.210717,-2.78939 -1.310625,-5.99722 -2.008311,-5.85714 -2.489387,-8.22462 -2.495328,-12.28009 -0.01111,-7.58394 2.560902,-13.50496 8.614361,-19.8311 2.474291,-2.58574 5.743945,-5.36075 6.316309,-5.36075 0.110582,0 -0.425908,1.30969 -1.192202,2.91042 -3.532293,7.37868 -2.706289,11.16113 3.955038,18.11093 2.665977,2.78142 4.136369,4.63004 4.751543,5.97376 0.95372,2.0832 2.23194,7.63811 2.23956,9.73274 0.0025,0.70052 0.104592,2.00294 0.226759,2.89425 l 0.222126,1.62058 1.277179,-0.65507 c 0.702451,-0.36028 1.612357,-1.02769 2.022013,-1.48314 1.380973,-1.53533 3.387259,-5.39113 4.744547,-9.11836 l 1.348888,-3.70416 0.02187,2.46944 c 0.02879,3.24987 0.887073,8.48328 1.967117,11.99444 1.197486,3.89296 1.3958,4.10734 1.903642,2.05779 0.539376,-2.17683 2.936723,-7.17476 3.828704,-7.98199 0.668538,-0.60502 0.687458,-0.56329 0.882752,1.94741 0.252956,3.25201 1.727881,7.42056 4.048852,11.44317 0.989136,1.71433 2.236957,4.38696 2.772939,5.93918 0.867428,2.5121 0.975205,3.32618 0.980796,7.40833 0.0059,4.28046 -0.217385,5.80435 -1.406655,9.60186 -0.108292,0.34578 0.364529,0.0144 1.050713,-0.73641 2.045801,-2.23847 2.511005,-4.15873 2.511005,-10.36487 0,-2.95899 0.02766,-5.37993 0.06144,-5.37986 0.278867,7e-4 3.031107,7.93178 3.672587,10.58345 1.15839,4.78837 1.179,12.9076 0.0442,17.41911 -3.55028,14.11478 -15.044661,23.74008 -32.084519,26.86733 -4.274668,0.78451 -15.156586,0.98608 -19.495121,0.36112 z"
         id="path25"
         inkscape:connector-curvature="0" />
      <path
         style="fill:#333333;fill-opacity:1;stroke-width:0.35277778"
         d="m 52.059918,292.91382 c -9.679598,-1.39433 -17.087604,-4.77021 -23.172127,-10.5597 -5.080277,-4.83393 -8.067981,-9.89191 -9.899868,-16.75981 -0.795431,-2.98214 -0.906109,-4.09867 -0.913366,-9.21416 -0.0073,-5.18126 0.09296,-6.19705 0.912888,-9.24483 0.893625,-3.3217 3.127262,-8.54628 4.26736,-9.98156 0.529271,-0.6663 0.561075,-0.59367 0.571671,1.30555 0.02519,4.51505 1.705199,8.20858 4.348686,9.56065 0.73637,0.37664 1.403648,0.62 1.482839,0.54081 0.07919,-0.0792 -0.246341,-1.21932 -0.723405,-2.53361 -1.742347,-4.80011 -2.325025,-10.90772 -1.553309,-16.28173 0.459516,-3.19993 1.736495,-7.9375 2.139499,-7.9375 0.172773,0 0.314131,0.7005 0.314131,1.55667 0,2.52774 1.862094,5.7176 4.327767,7.41369 1.107903,0.76211 2.096277,1.30374 2.196387,1.20363 0.10011,-0.10011 0.01364,-1.04115 -0.192151,-2.0912 -0.205793,-1.05005 -0.377701,-3.65543 -0.382019,-5.78974 -0.0121,-5.97922 1.127374,-9.33297 4.316746,-12.70526 1.654838,-1.74974 3.976529,-3.33157 4.346628,-2.96147 0.09753,0.0975 -0.06284,1.04306 -0.356369,2.10119 -0.736156,2.65373 -0.726722,7.48518 0.01961,10.05254 1.246378,4.28738 3.956272,8.08896 5.599222,7.85486 0.654029,-0.0932 0.776782,-0.37176 0.868662,-1.97131 0.08302,-1.44529 -0.210717,-2.78939 -1.310625,-5.99722 -2.008311,-5.85714 -2.489387,-8.22462 -2.495328,-12.28009 -0.01111,-7.58394 2.560902,-13.50496 8.614361,-19.8311 2.474291,-2.58574 5.743945,-5.36075 6.316309,-5.36075 0.110582,0 -0.425908,1.30969 -1.192202,2.91042 -3.532293,7.37868 -2.706289,11.16113 3.955038,18.11093 2.665977,2.78142 4.136369,4.63004 4.751543,5.97376 0.95372,2.0832 2.23194,7.63811 2.23956,9.73274 0.0025,0.70052 0.104683,2.0036 0.22696,2.89572 l 0.222327,1.62204 1.100589,-0.55574 c 0.605328,-0.30565 1.47265,-0.89435 1.927384,-1.30822 1.374549,-1.25101 3.640935,-5.4727 5.043925,-9.39554 l 1.324786,-3.70416 0.01965,2.46944 c 0.02579,3.24426 0.883123,8.47768 1.964888,11.99444 1.197486,3.89296 1.3958,4.10734 1.903642,2.05779 0.539376,-2.17683 2.936723,-7.17476 3.828704,-7.98199 0.668539,-0.60502 0.687458,-0.56329 0.882752,1.94741 0.252956,3.25201 1.727881,7.42056 4.048852,11.44317 0.989136,1.71433 2.236957,4.38696 2.772939,5.93918 0.867428,2.5121 0.975205,3.32618 0.980797,7.40833 0.0059,4.28046 -0.217386,5.80435 -1.406656,9.60186 -0.108292,0.34578 0.364529,0.0144 1.050713,-0.73641 2.045801,-2.23847 2.511006,-4.15873 2.511006,-10.36487 0,-2.95899 0.02766,-5.37993 0.06144,-5.37986 0.278866,7e-4 3.031096,7.93178 3.672586,10.58345 1.15839,4.78837 1.179,12.9076 0.0442,17.41911 -3.55029,14.11478 -15.044659,23.74008 -32.084518,26.86733 -4.274668,0.78451 -15.156586,0.98608 -19.495121,0.36112 z"
         id="path23"
         inkscape:connector-curvature="0" />
    </g>
  </g>
</svg>
