  0
SECTION
  2
BLOCKS
  0
ENDSEC
  0
SECTION
  2
ENTITIES
  0
LINE
  8
0
 10
3.76743
 20
-59.8816
 11
7.51999
 21
-59.5269
  0
LINE
  8
0
 10
7.51999
 20
-59.5269
 11
11.2429
 21
-58.9372
  0
LINE
  8
0
 10
11.2429
 20
-58.9372
 11
14.9214
 21
-58.115
  0
LINE
  8
0
 10
14.9214
 20
-58.115
 11
18.541
 21
-57.0634
  0
LINE
  8
0
 10
18.541
 20
-57.0634
 11
22.0875
 21
-55.7866
  0
LINE
  8
0
 10
22.0875
 20
-55.7866
 11
25.5468
 21
-54.2896
  0
LINE
  8
0
 10
25.5468
 20
-54.2896
 11
28.9052
 21
-52.5784
  0
LINE
  8
0
 10
28.9052
 20
-52.5784
 11
32.1496
 21
-50.6597
  0
LINE
  8
0
 10
32.1496
 20
-50.6597
 11
35.2671
 21
-48.541
  0
LINE
  8
0
 10
35.2671
 20
-48.541
 11
38.2454
 21
-46.2308
  0
LINE
  8
0
 10
38.2454
 20
-46.2308
 11
41.0728
 21
-43.7381
  0
LINE
  8
0
 10
41.0728
 20
-43.7381
 11
43.7381
 21
-41.0728
  0
LINE
  8
0
 10
43.7381
 20
-41.0728
 11
46.2308
 21
-38.2454
  0
LINE
  8
0
 10
46.2308
 20
-38.2454
 11
48.541
 21
-35.2671
  0
LINE
  8
0
 10
48.541
 20
-35.2671
 11
50.6597
 21
-32.1496
  0
LINE
  8
0
 10
50.6597
 20
-32.1496
 11
52.5784
 21
-28.9052
  0
LINE
  8
0
 10
52.5784
 20
-28.9052
 11
54.2896
 21
-25.5468
  0
LINE
  8
0
 10
54.2896
 20
-25.5468
 11
55.7866
 21
-22.0875
  0
LINE
  8
0
 10
55.7866
 20
-22.0875
 11
57.0634
 21
-18.541
  0
LINE
  8
0
 10
57.0634
 20
-18.541
 11
58.115
 21
-14.9214
  0
LINE
  8
0
 10
58.115
 20
-14.9214
 11
58.9372
 21
-11.2429
  0
LINE
  8
0
 10
58.9372
 20
-11.2429
 11
59.5269
 21
-7.51999
  0
LINE
  8
0
 10
59.5269
 20
-7.51999
 11
59.8816
 21
-3.76743
  0
LINE
  8
0
 10
59.8816
 20
-3.76743
 11
60
 21
0
  0
LINE
  8
0
 10
60
 20
0
 11
59.8816
 21
3.76743
  0
LINE
  8
0
 10
59.8816
 20
3.76743
 11
59.5269
 21
7.51999
  0
LINE
  8
0
 10
59.5269
 20
7.51999
 11
58.9372
 21
11.2429
  0
LINE
  8
0
 10
58.9372
 20
11.2429
 11
58.115
 21
14.9214
  0
LINE
  8
0
 10
58.115
 20
14.9214
 11
57.0634
 21
18.541
  0
LINE
  8
0
 10
57.0634
 20
18.541
 11
55.7866
 21
22.0875
  0
LINE
  8
0
 10
55.7866
 20
22.0875
 11
54.2896
 21
25.5468
  0
LINE
  8
0
 10
54.2896
 20
25.5468
 11
52.5784
 21
28.9052
  0
LINE
  8
0
 10
52.5784
 20
28.9052
 11
50.6597
 21
32.1496
  0
LINE
  8
0
 10
50.6597
 20
32.1496
 11
48.541
 21
35.2671
  0
LINE
  8
0
 10
48.541
 20
35.2671
 11
46.2308
 21
38.2454
  0
LINE
  8
0
 10
46.2308
 20
38.2454
 11
43.7381
 21
41.0728
  0
LINE
  8
0
 10
43.7381
 20
41.0728
 11
41.0728
 21
43.7381
  0
LINE
  8
0
 10
41.0728
 20
43.7381
 11
38.2454
 21
46.2308
  0
LINE
  8
0
 10
38.2454
 20
46.2308
 11
35.9646
 21
48
  0
LINE
  8
0
 10
35.9646
 20
48
 11
36
 21
48
  0
LINE
  8
0
 10
36
 20
48
 11
21
 21
74
  0
LINE
  8
0
 10
21
 20
74
 11
-21
 21
74
  0
LINE
  8
0
 10
-21
 20
74
 11
-36
 21
48
  0
LINE
  8
0
 10
-36
 20
48
 11
-35.9646
 21
48
  0
LINE
  8
0
 10
-35.9646
 20
48
 11
-38.2454
 21
46.2308
  0
LINE
  8
0
 10
-38.2454
 20
46.2308
 11
-41.0728
 21
43.7381
  0
LINE
  8
0
 10
-41.0728
 20
43.7381
 11
-43.7381
 21
41.0728
  0
LINE
  8
0
 10
-43.7381
 20
41.0728
 11
-46.2308
 21
38.2454
  0
LINE
  8
0
 10
-46.2308
 20
38.2454
 11
-48.541
 21
35.2671
  0
LINE
  8
0
 10
-48.541
 20
35.2671
 11
-50.6597
 21
32.1496
  0
LINE
  8
0
 10
-50.6597
 20
32.1496
 11
-52.5784
 21
28.9052
  0
LINE
  8
0
 10
-52.5784
 20
28.9052
 11
-54.2896
 21
25.5468
  0
LINE
  8
0
 10
-54.2896
 20
25.5468
 11
-55.7866
 21
22.0875
  0
LINE
  8
0
 10
-55.7866
 20
22.0875
 11
-57.0634
 21
18.541
  0
LINE
  8
0
 10
-57.0634
 20
18.541
 11
-58.115
 21
14.9214
  0
LINE
  8
0
 10
-58.115
 20
14.9214
 11
-58.9372
 21
11.2429
  0
LINE
  8
0
 10
-58.9372
 20
11.2429
 11
-59.5269
 21
7.51999
  0
LINE
  8
0
 10
-59.5269
 20
7.51999
 11
-59.8816
 21
3.76743
  0
LINE
  8
0
 10
-59.8816
 20
3.76743
 11
-60
 21
0
  0
LINE
  8
0
 10
-60
 20
0
 11
-59.8816
 21
-3.76743
  0
LINE
  8
0
 10
-59.8816
 20
-3.76743
 11
-59.5269
 21
-7.51999
  0
LINE
  8
0
 10
-59.5269
 20
-7.51999
 11
-58.9372
 21
-11.2429
  0
LINE
  8
0
 10
-58.9372
 20
-11.2429
 11
-58.115
 21
-14.9214
  0
LINE
  8
0
 10
-58.115
 20
-14.9214
 11
-57.0634
 21
-18.541
  0
LINE
  8
0
 10
-57.0634
 20
-18.541
 11
-55.7866
 21
-22.0875
  0
LINE
  8
0
 10
-55.7866
 20
-22.0875
 11
-54.2896
 21
-25.5468
  0
LINE
  8
0
 10
-54.2896
 20
-25.5468
 11
-52.5784
 21
-28.9052
  0
LINE
  8
0
 10
-52.5784
 20
-28.9052
 11
-50.6597
 21
-32.1496
  0
LINE
  8
0
 10
-50.6597
 20
-32.1496
 11
-48.541
 21
-35.2671
  0
LINE
  8
0
 10
-48.541
 20
-35.2671
 11
-46.2308
 21
-38.2454
  0
LINE
  8
0
 10
-46.2308
 20
-38.2454
 11
-43.7381
 21
-41.0728
  0
LINE
  8
0
 10
-43.7381
 20
-41.0728
 11
-41.0728
 21
-43.7381
  0
LINE
  8
0
 10
-41.0728
 20
-43.7381
 11
-38.2454
 21
-46.2308
  0
LINE
  8
0
 10
-38.2454
 20
-46.2308
 11
-35.2671
 21
-48.541
  0
LINE
  8
0
 10
-35.2671
 20
-48.541
 11
-32.1496
 21
-50.6597
  0
LINE
  8
0
 10
-32.1496
 20
-50.6597
 11
-28.9052
 21
-52.5784
  0
LINE
  8
0
 10
-28.9052
 20
-52.5784
 11
-25.5468
 21
-54.2896
  0
LINE
  8
0
 10
-25.5468
 20
-54.2896
 11
-22.0875
 21
-55.7866
  0
LINE
  8
0
 10
-22.0875
 20
-55.7866
 11
-18.541
 21
-57.0634
  0
LINE
  8
0
 10
-18.541
 20
-57.0634
 11
-14.9214
 21
-58.115
  0
LINE
  8
0
 10
-14.9214
 20
-58.115
 11
-11.2429
 21
-58.9372
  0
LINE
  8
0
 10
-11.2429
 20
-58.9372
 11
-7.51999
 21
-59.5269
  0
LINE
  8
0
 10
-7.51999
 20
-59.5269
 11
-3.76743
 21
-59.8816
  0
LINE
  8
0
 10
-3.76743
 20
-59.8816
 11
0
 21
-60
  0
LINE
  8
0
 10
0
 20
-60
 11
3.76743
 21
-59.8816
  0
LINE
  8
0
 10
-15.2512
 20
59.0079
 11
-15.5013
 21
59.0315
  0
LINE
  8
0
 10
-15.5013
 20
59.0315
 11
-15.7495
 21
59.0708
  0
LINE
  8
0
 10
-15.7495
 20
59.0708
 11
-15.9948
 21
59.1257
  0
LINE
  8
0
 10
-15.9948
 20
59.1257
 11
-16.2361
 21
59.1958
  0
LINE
  8
0
 10
-16.2361
 20
59.1958
 11
-16.4725
 21
59.2809
  0
LINE
  8
0
 10
-16.4725
 20
59.2809
 11
-16.7031
 21
59.3807
  0
LINE
  8
0
 10
-16.7031
 20
59.3807
 11
-16.927
 21
59.4948
  0
LINE
  8
0
 10
-16.927
 20
59.4948
 11
-17.1433
 21
59.6227
  0
LINE
  8
0
 10
-17.1433
 20
59.6227
 11
-17.3511
 21
59.7639
  0
LINE
  8
0
 10
-17.3511
 20
59.7639
 11
-17.5497
 21
59.9179
  0
LINE
  8
0
 10
-17.5497
 20
59.9179
 11
-17.7382
 21
60.0841
  0
LINE
  8
0
 10
-17.7382
 20
60.0841
 11
-17.9159
 21
60.2618
  0
LINE
  8
0
 10
-17.9159
 20
60.2618
 11
-18.082
 21
60.4503
  0
LINE
  8
0
 10
-18.082
 20
60.4503
 11
-18.2361
 21
60.6488
  0
LINE
  8
0
 10
-18.2361
 20
60.6488
 11
-18.3773
 21
60.8567
  0
LINE
  8
0
 10
-18.3773
 20
60.8567
 11
-18.5052
 21
61.073
  0
LINE
  8
0
 10
-18.5052
 20
61.073
 11
-18.6193
 21
61.2969
  0
LINE
  8
0
 10
-18.6193
 20
61.2969
 11
-18.7191
 21
61.5275
  0
LINE
  8
0
 10
-18.7191
 20
61.5275
 11
-18.8042
 21
61.7639
  0
LINE
  8
0
 10
-18.8042
 20
61.7639
 11
-18.8743
 21
62.0052
  0
LINE
  8
0
 10
-18.8743
 20
62.0052
 11
-18.9291
 21
62.2505
  0
LINE
  8
0
 10
-18.9291
 20
62.2505
 11
-18.9684
 21
62.4987
  0
LINE
  8
0
 10
-18.9684
 20
62.4987
 11
-18.9921
 21
62.7488
  0
LINE
  8
0
 10
-18.9921
 20
62.7488
 11
-19
 21
63
  0
LINE
  8
0
 10
-19
 20
63
 11
-18.9921
 21
63.2512
  0
LINE
  8
0
 10
-18.9921
 20
63.2512
 11
-18.9684
 21
63.5013
  0
LINE
  8
0
 10
-18.9684
 20
63.5013
 11
-18.9291
 21
63.7495
  0
LINE
  8
0
 10
-18.9291
 20
63.7495
 11
-18.8743
 21
63.9948
  0
LINE
  8
0
 10
-18.8743
 20
63.9948
 11
-18.8042
 21
64.2361
  0
LINE
  8
0
 10
-18.8042
 20
64.2361
 11
-18.7191
 21
64.4725
  0
LINE
  8
0
 10
-18.7191
 20
64.4725
 11
-18.6193
 21
64.7031
  0
LINE
  8
0
 10
-18.6193
 20
64.7031
 11
-18.5052
 21
64.927
  0
LINE
  8
0
 10
-18.5052
 20
64.927
 11
-18.3773
 21
65.1433
  0
LINE
  8
0
 10
-18.3773
 20
65.1433
 11
-18.2361
 21
65.3511
  0
LINE
  8
0
 10
-18.2361
 20
65.3511
 11
-18.082
 21
65.5497
  0
LINE
  8
0
 10
-18.082
 20
65.5497
 11
-17.9159
 21
65.7382
  0
LINE
  8
0
 10
-17.9159
 20
65.7382
 11
-17.7382
 21
65.9159
  0
LINE
  8
0
 10
-17.7382
 20
65.9159
 11
-17.5497
 21
66.082
  0
LINE
  8
0
 10
-17.5497
 20
66.082
 11
-17.3511
 21
66.2361
  0
LINE
  8
0
 10
-17.3511
 20
66.2361
 11
-17.1433
 21
66.3773
  0
LINE
  8
0
 10
-17.1433
 20
66.3773
 11
-16.927
 21
66.5052
  0
LINE
  8
0
 10
-16.927
 20
66.5052
 11
-16.7031
 21
66.6193
  0
LINE
  8
0
 10
-16.7031
 20
66.6193
 11
-16.4725
 21
66.7191
  0
LINE
  8
0
 10
-16.4725
 20
66.7191
 11
-16.2361
 21
66.8042
  0
LINE
  8
0
 10
-16.2361
 20
66.8042
 11
-15.9948
 21
66.8743
  0
LINE
  8
0
 10
-15.9948
 20
66.8743
 11
-15.7495
 21
66.9291
  0
LINE
  8
0
 10
-15.7495
 20
66.9291
 11
-15.5013
 21
66.9685
  0
LINE
  8
0
 10
-15.5013
 20
66.9685
 11
-15.2512
 21
66.9921
  0
LINE
  8
0
 10
-15.2512
 20
66.9921
 11
-15
 21
67
  0
LINE
  8
0
 10
-15
 20
67
 11
-14.7488
 21
66.9921
  0
LINE
  8
0
 10
-14.7488
 20
66.9921
 11
-14.4987
 21
66.9685
  0
LINE
  8
0
 10
-14.4987
 20
66.9685
 11
-14.2505
 21
66.9291
  0
LINE
  8
0
 10
-14.2505
 20
66.9291
 11
-14.0052
 21
66.8743
  0
LINE
  8
0
 10
-14.0052
 20
66.8743
 11
-13.7639
 21
66.8042
  0
LINE
  8
0
 10
-13.7639
 20
66.8042
 11
-13.5275
 21
66.7191
  0
LINE
  8
0
 10
-13.5275
 20
66.7191
 11
-13.2969
 21
66.6193
  0
LINE
  8
0
 10
-13.2969
 20
66.6193
 11
-13.073
 21
66.5052
  0
LINE
  8
0
 10
-13.073
 20
66.5052
 11
-12.8567
 21
66.3773
  0
LINE
  8
0
 10
-12.8567
 20
66.3773
 11
-12.6488
 21
66.2361
  0
LINE
  8
0
 10
-12.6488
 20
66.2361
 11
-12.4503
 21
66.082
  0
LINE
  8
0
 10
-12.4503
 20
66.082
 11
-12.2618
 21
65.9159
  0
LINE
  8
0
 10
-12.2618
 20
65.9159
 11
-12.0841
 21
65.7382
  0
LINE
  8
0
 10
-12.0841
 20
65.7382
 11
-11.9179
 21
65.5497
  0
LINE
  8
0
 10
-11.9179
 20
65.5497
 11
-11.7639
 21
65.3511
  0
LINE
  8
0
 10
-11.7639
 20
65.3511
 11
-11.6227
 21
65.1433
  0
LINE
  8
0
 10
-11.6227
 20
65.1433
 11
-11.4948
 21
64.927
  0
LINE
  8
0
 10
-11.4948
 20
64.927
 11
-11.3807
 21
64.7031
  0
LINE
  8
0
 10
-11.3807
 20
64.7031
 11
-11.2809
 21
64.4725
  0
LINE
  8
0
 10
-11.2809
 20
64.4725
 11
-11.1958
 21
64.2361
  0
LINE
  8
0
 10
-11.1958
 20
64.2361
 11
-11.1257
 21
63.9948
  0
LINE
  8
0
 10
-11.1257
 20
63.9948
 11
-11.0708
 21
63.7495
  0
LINE
  8
0
 10
-11.0708
 20
63.7495
 11
-11.0315
 21
63.5013
  0
LINE
  8
0
 10
-11.0315
 20
63.5013
 11
-11.0079
 21
63.2512
  0
LINE
  8
0
 10
-11.0079
 20
63.2512
 11
-11
 21
63
  0
LINE
  8
0
 10
-11
 20
63
 11
-11.0079
 21
62.7488
  0
LINE
  8
0
 10
-11.0079
 20
62.7488
 11
-11.0315
 21
62.4987
  0
LINE
  8
0
 10
-11.0315
 20
62.4987
 11
-11.0708
 21
62.2505
  0
LINE
  8
0
 10
-11.0708
 20
62.2505
 11
-11.1257
 21
62.0052
  0
LINE
  8
0
 10
-11.1257
 20
62.0052
 11
-11.1958
 21
61.7639
  0
LINE
  8
0
 10
-11.1958
 20
61.7639
 11
-11.2809
 21
61.5275
  0
LINE
  8
0
 10
-11.2809
 20
61.5275
 11
-11.3807
 21
61.2969
  0
LINE
  8
0
 10
-11.3807
 20
61.2969
 11
-11.4948
 21
61.073
  0
LINE
  8
0
 10
-11.4948
 20
61.073
 11
-11.6227
 21
60.8567
  0
LINE
  8
0
 10
-11.6227
 20
60.8567
 11
-11.7639
 21
60.6488
  0
LINE
  8
0
 10
-11.7639
 20
60.6488
 11
-11.9179
 21
60.4503
  0
LINE
  8
0
 10
-11.9179
 20
60.4503
 11
-12.0841
 21
60.2618
  0
LINE
  8
0
 10
-12.0841
 20
60.2618
 11
-12.2618
 21
60.0841
  0
LINE
  8
0
 10
-12.2618
 20
60.0841
 11
-12.4503
 21
59.9179
  0
LINE
  8
0
 10
-12.4503
 20
59.9179
 11
-12.6488
 21
59.7639
  0
LINE
  8
0
 10
-12.6488
 20
59.7639
 11
-12.8567
 21
59.6227
  0
LINE
  8
0
 10
-12.8567
 20
59.6227
 11
-13.073
 21
59.4948
  0
LINE
  8
0
 10
-13.073
 20
59.4948
 11
-13.2969
 21
59.3807
  0
LINE
  8
0
 10
-13.2969
 20
59.3807
 11
-13.5275
 21
59.2809
  0
LINE
  8
0
 10
-13.5275
 20
59.2809
 11
-13.7639
 21
59.1958
  0
LINE
  8
0
 10
-13.7639
 20
59.1958
 11
-14.0052
 21
59.1257
  0
LINE
  8
0
 10
-14.0052
 20
59.1257
 11
-14.2505
 21
59.0708
  0
LINE
  8
0
 10
-14.2505
 20
59.0708
 11
-14.4987
 21
59.0315
  0
LINE
  8
0
 10
-14.4987
 20
59.0315
 11
-14.7488
 21
59.0079
  0
LINE
  8
0
 10
-14.7488
 20
59.0079
 11
-15
 21
59
  0
LINE
  8
0
 10
-15
 20
59
 11
-15.2512
 21
59.0079
  0
LINE
  8
0
 10
14.7488
 20
59.0079
 11
14.4987
 21
59.0315
  0
LINE
  8
0
 10
14.4987
 20
59.0315
 11
14.2505
 21
59.0708
  0
LINE
  8
0
 10
14.2505
 20
59.0708
 11
14.0052
 21
59.1257
  0
LINE
  8
0
 10
14.0052
 20
59.1257
 11
13.7639
 21
59.1958
  0
LINE
  8
0
 10
13.7639
 20
59.1958
 11
13.5275
 21
59.2809
  0
LINE
  8
0
 10
13.5275
 20
59.2809
 11
13.2969
 21
59.3807
  0
LINE
  8
0
 10
13.2969
 20
59.3807
 11
13.073
 21
59.4948
  0
LINE
  8
0
 10
13.073
 20
59.4948
 11
12.8567
 21
59.6227
  0
LINE
  8
0
 10
12.8567
 20
59.6227
 11
12.6488
 21
59.7639
  0
LINE
  8
0
 10
12.6488
 20
59.7639
 11
12.4503
 21
59.9179
  0
LINE
  8
0
 10
12.4503
 20
59.9179
 11
12.2618
 21
60.0841
  0
LINE
  8
0
 10
12.2618
 20
60.0841
 11
12.0841
 21
60.2618
  0
LINE
  8
0
 10
12.0841
 20
60.2618
 11
11.9179
 21
60.4503
  0
LINE
  8
0
 10
11.9179
 20
60.4503
 11
11.7639
 21
60.6488
  0
LINE
  8
0
 10
11.7639
 20
60.6488
 11
11.6227
 21
60.8567
  0
LINE
  8
0
 10
11.6227
 20
60.8567
 11
11.4948
 21
61.073
  0
LINE
  8
0
 10
11.4948
 20
61.073
 11
11.3807
 21
61.2969
  0
LINE
  8
0
 10
11.3807
 20
61.2969
 11
11.2809
 21
61.5275
  0
LINE
  8
0
 10
11.2809
 20
61.5275
 11
11.1958
 21
61.7639
  0
LINE
  8
0
 10
11.1958
 20
61.7639
 11
11.1257
 21
62.0052
  0
LINE
  8
0
 10
11.1257
 20
62.0052
 11
11.0708
 21
62.2505
  0
LINE
  8
0
 10
11.0708
 20
62.2505
 11
11.0315
 21
62.4987
  0
LINE
  8
0
 10
11.0315
 20
62.4987
 11
11.0079
 21
62.7488
  0
LINE
  8
0
 10
11.0079
 20
62.7488
 11
11
 21
63
  0
LINE
  8
0
 10
11
 20
63
 11
11.0079
 21
63.2512
  0
LINE
  8
0
 10
11.0079
 20
63.2512
 11
11.0315
 21
63.5013
  0
LINE
  8
0
 10
11.0315
 20
63.5013
 11
11.0708
 21
63.7495
  0
LINE
  8
0
 10
11.0708
 20
63.7495
 11
11.1257
 21
63.9948
  0
LINE
  8
0
 10
11.1257
 20
63.9948
 11
11.1958
 21
64.2361
  0
LINE
  8
0
 10
11.1958
 20
64.2361
 11
11.2809
 21
64.4725
  0
LINE
  8
0
 10
11.2809
 20
64.4725
 11
11.3807
 21
64.7031
  0
LINE
  8
0
 10
11.3807
 20
64.7031
 11
11.4948
 21
64.927
  0
LINE
  8
0
 10
11.4948
 20
64.927
 11
11.6227
 21
65.1433
  0
LINE
  8
0
 10
11.6227
 20
65.1433
 11
11.7639
 21
65.3511
  0
LINE
  8
0
 10
11.7639
 20
65.3511
 11
11.9179
 21
65.5497
  0
LINE
  8
0
 10
11.9179
 20
65.5497
 11
12.0841
 21
65.7382
  0
LINE
  8
0
 10
12.0841
 20
65.7382
 11
12.2618
 21
65.9159
  0
LINE
  8
0
 10
12.2618
 20
65.9159
 11
12.4503
 21
66.082
  0
LINE
  8
0
 10
12.4503
 20
66.082
 11
12.6488
 21
66.2361
  0
LINE
  8
0
 10
12.6488
 20
66.2361
 11
12.8567
 21
66.3773
  0
LINE
  8
0
 10
12.8567
 20
66.3773
 11
13.073
 21
66.5052
  0
LINE
  8
0
 10
13.073
 20
66.5052
 11
13.2969
 21
66.6193
  0
LINE
  8
0
 10
13.2969
 20
66.6193
 11
13.5275
 21
66.7191
  0
LINE
  8
0
 10
13.5275
 20
66.7191
 11
13.7639
 21
66.8042
  0
LINE
  8
0
 10
13.7639
 20
66.8042
 11
14.0052
 21
66.8743
  0
LINE
  8
0
 10
14.0052
 20
66.8743
 11
14.2505
 21
66.9291
  0
LINE
  8
0
 10
14.2505
 20
66.9291
 11
14.4987
 21
66.9685
  0
LINE
  8
0
 10
14.4987
 20
66.9685
 11
14.7488
 21
66.9921
  0
LINE
  8
0
 10
14.7488
 20
66.9921
 11
15
 21
67
  0
LINE
  8
0
 10
15
 20
67
 11
15.2512
 21
66.9921
  0
LINE
  8
0
 10
15.2512
 20
66.9921
 11
15.5013
 21
66.9685
  0
LINE
  8
0
 10
15.5013
 20
66.9685
 11
15.7495
 21
66.9291
  0
LINE
  8
0
 10
15.7495
 20
66.9291
 11
15.9948
 21
66.8743
  0
LINE
  8
0
 10
15.9948
 20
66.8743
 11
16.2361
 21
66.8042
  0
LINE
  8
0
 10
16.2361
 20
66.8042
 11
16.4725
 21
66.7191
  0
LINE
  8
0
 10
16.4725
 20
66.7191
 11
16.7031
 21
66.6193
  0
LINE
  8
0
 10
16.7031
 20
66.6193
 11
16.927
 21
66.5052
  0
LINE
  8
0
 10
16.927
 20
66.5052
 11
17.1433
 21
66.3773
  0
LINE
  8
0
 10
17.1433
 20
66.3773
 11
17.3511
 21
66.2361
  0
LINE
  8
0
 10
17.3511
 20
66.2361
 11
17.5497
 21
66.082
  0
LINE
  8
0
 10
17.5497
 20
66.082
 11
17.7382
 21
65.9159
  0
LINE
  8
0
 10
17.7382
 20
65.9159
 11
17.9159
 21
65.7382
  0
LINE
  8
0
 10
17.9159
 20
65.7382
 11
18.082
 21
65.5497
  0
LINE
  8
0
 10
18.082
 20
65.5497
 11
18.2361
 21
65.3511
  0
LINE
  8
0
 10
18.2361
 20
65.3511
 11
18.3773
 21
65.1433
  0
LINE
  8
0
 10
18.3773
 20
65.1433
 11
18.5052
 21
64.927
  0
LINE
  8
0
 10
18.5052
 20
64.927
 11
18.6193
 21
64.7031
  0
LINE
  8
0
 10
18.6193
 20
64.7031
 11
18.7191
 21
64.4725
  0
LINE
  8
0
 10
18.7191
 20
64.4725
 11
18.8042
 21
64.2361
  0
LINE
  8
0
 10
18.8042
 20
64.2361
 11
18.8743
 21
63.9948
  0
LINE
  8
0
 10
18.8743
 20
63.9948
 11
18.9291
 21
63.7495
  0
LINE
  8
0
 10
18.9291
 20
63.7495
 11
18.9684
 21
63.5013
  0
LINE
  8
0
 10
18.9684
 20
63.5013
 11
18.9921
 21
63.2512
  0
LINE
  8
0
 10
18.9921
 20
63.2512
 11
19
 21
63
  0
LINE
  8
0
 10
19
 20
63
 11
18.9921
 21
62.7488
  0
LINE
  8
0
 10
18.9921
 20
62.7488
 11
18.9684
 21
62.4987
  0
LINE
  8
0
 10
18.9684
 20
62.4987
 11
18.9291
 21
62.2505
  0
LINE
  8
0
 10
18.9291
 20
62.2505
 11
18.8743
 21
62.0052
  0
LINE
  8
0
 10
18.8743
 20
62.0052
 11
18.8042
 21
61.7639
  0
LINE
  8
0
 10
18.8042
 20
61.7639
 11
18.7191
 21
61.5275
  0
LINE
  8
0
 10
18.7191
 20
61.5275
 11
18.6193
 21
61.2969
  0
LINE
  8
0
 10
18.6193
 20
61.2969
 11
18.5052
 21
61.073
  0
LINE
  8
0
 10
18.5052
 20
61.073
 11
18.3773
 21
60.8567
  0
LINE
  8
0
 10
18.3773
 20
60.8567
 11
18.2361
 21
60.6488
  0
LINE
  8
0
 10
18.2361
 20
60.6488
 11
18.082
 21
60.4503
  0
LINE
  8
0
 10
18.082
 20
60.4503
 11
17.9159
 21
60.2618
  0
LINE
  8
0
 10
17.9159
 20
60.2618
 11
17.7382
 21
60.0841
  0
LINE
  8
0
 10
17.7382
 20
60.0841
 11
17.5497
 21
59.9179
  0
LINE
  8
0
 10
17.5497
 20
59.9179
 11
17.3511
 21
59.7639
  0
LINE
  8
0
 10
17.3511
 20
59.7639
 11
17.1433
 21
59.6227
  0
LINE
  8
0
 10
17.1433
 20
59.6227
 11
16.927
 21
59.4948
  0
LINE
  8
0
 10
16.927
 20
59.4948
 11
16.7031
 21
59.3807
  0
LINE
  8
0
 10
16.7031
 20
59.3807
 11
16.4725
 21
59.2809
  0
LINE
  8
0
 10
16.4725
 20
59.2809
 11
16.2361
 21
59.1958
  0
LINE
  8
0
 10
16.2361
 20
59.1958
 11
15.9948
 21
59.1257
  0
LINE
  8
0
 10
15.9948
 20
59.1257
 11
15.7495
 21
59.0708
  0
LINE
  8
0
 10
15.7495
 20
59.0708
 11
15.5013
 21
59.0315
  0
LINE
  8
0
 10
15.5013
 20
59.0315
 11
15.2512
 21
59.0079
  0
LINE
  8
0
 10
15.2512
 20
59.0079
 11
15
 21
59
  0
LINE
  8
0
 10
15
 20
59
 11
14.7488
 21
59.0079
  0
ENDSEC
  0
SECTION
  2
OBJECTS
  0
DICTIONARY
  0
ENDSEC
  0
EOF
