  0
SECTION
  2
BLOCKS
  0
ENDSEC
  0
SECTION
  2
ENTITIES
  0
LINE
  8
0
 10
5.33719
 20
-84.8323
 11
10.6533
 21
-84.3297
  0
LINE
  8
0
 10
10.6533
 20
-84.3297
 11
15.9274
 21
-83.4944
  0
LINE
  8
0
 10
15.9274
 20
-83.4944
 11
21.1386
 21
-82.3296
  0
LINE
  8
0
 10
21.1386
 20
-82.3296
 11
26.2664
 21
-80.8398
  0
LINE
  8
0
 10
26.2664
 20
-80.8398
 11
31.2906
 21
-79.031
  0
LINE
  8
0
 10
31.2906
 20
-79.031
 11
36.1912
 21
-76.9103
  0
LINE
  8
0
 10
36.1912
 20
-76.9103
 11
40.9491
 21
-74.4861
  0
LINE
  8
0
 10
40.9491
 20
-74.4861
 11
45.5453
 21
-71.7679
  0
LINE
  8
0
 10
45.5453
 20
-71.7679
 11
49.9617
 21
-68.7664
  0
LINE
  8
0
 10
49.9617
 20
-68.7664
 11
54.181
 21
-65.4936
  0
LINE
  8
0
 10
54.181
 20
-65.4936
 11
58.1865
 21
-61.9623
  0
LINE
  8
0
 10
58.1865
 20
-61.9623
 11
61.9623
 21
-58.1865
  0
LINE
  8
0
 10
61.9623
 20
-58.1865
 11
65.4936
 21
-54.181
  0
LINE
  8
0
 10
65.4936
 20
-54.181
 11
68.7664
 21
-49.9617
  0
LINE
  8
0
 10
68.7664
 20
-49.9617
 11
71.7679
 21
-45.5453
  0
LINE
  8
0
 10
71.7679
 20
-45.5453
 11
74.4861
 21
-40.9491
  0
LINE
  8
0
 10
74.4861
 20
-40.9491
 11
76.9103
 21
-36.1912
  0
LINE
  8
0
 10
76.9103
 20
-36.1912
 11
79.031
 21
-31.2906
  0
LINE
  8
0
 10
79.031
 20
-31.2906
 11
80.8398
 21
-26.2664
  0
LINE
  8
0
 10
80.8398
 20
-26.2664
 11
82.3296
 21
-21.1386
  0
LINE
  8
0
 10
82.3296
 20
-21.1386
 11
83.4944
 21
-15.9274
  0
LINE
  8
0
 10
83.4944
 20
-15.9274
 11
84.3297
 21
-10.6533
  0
LINE
  8
0
 10
84.3297
 20
-10.6533
 11
84.8323
 21
-5.33719
  0
LINE
  8
0
 10
84.8323
 20
-5.33719
 11
85
 21
0
  0
LINE
  8
0
 10
85
 20
0
 11
84.8323
 21
5.33719
  0
LINE
  8
0
 10
84.8323
 20
5.33719
 11
84.3297
 21
10.6533
  0
LINE
  8
0
 10
84.3297
 20
10.6533
 11
83.4944
 21
15.9274
  0
LINE
  8
0
 10
83.4944
 20
15.9274
 11
82.3296
 21
21.1386
  0
LINE
  8
0
 10
82.3296
 20
21.1386
 11
80.8398
 21
26.2664
  0
LINE
  8
0
 10
80.8398
 20
26.2664
 11
79.031
 21
31.2906
  0
LINE
  8
0
 10
79.031
 20
31.2906
 11
76.9103
 21
36.1912
  0
LINE
  8
0
 10
76.9103
 20
36.1912
 11
74.4861
 21
40.9491
  0
LINE
  8
0
 10
74.4861
 20
40.9491
 11
71.7679
 21
45.5453
  0
LINE
  8
0
 10
71.7679
 20
45.5453
 11
68.7664
 21
49.9617
  0
LINE
  8
0
 10
68.7664
 20
49.9617
 11
65.4936
 21
54.181
  0
LINE
  8
0
 10
65.4936
 20
54.181
 11
61.9623
 21
58.1865
  0
LINE
  8
0
 10
61.9623
 20
58.1865
 11
58.1865
 21
61.9623
  0
LINE
  8
0
 10
58.1865
 20
61.9623
 11
54.181
 21
65.4936
  0
LINE
  8
0
 10
54.181
 20
65.4936
 11
49.9617
 21
68.7664
  0
LINE
  8
0
 10
49.9617
 20
68.7664
 11
45.5453
 21
71.7679
  0
LINE
  8
0
 10
45.5453
 20
71.7679
 11
40.9491
 21
74.4861
  0
LINE
  8
0
 10
40.9491
 20
74.4861
 11
36.1912
 21
76.9103
  0
LINE
  8
0
 10
36.1912
 20
76.9103
 11
35.2365
 21
77.3235
  0
LINE
  8
0
 10
35.2365
 20
77.3235
 11
21
 21
102
  0
LINE
  8
0
 10
21
 20
102
 11
-21
 21
102
  0
LINE
  8
0
 10
-21
 20
102
 11
-35.2365
 21
77.3235
  0
LINE
  8
0
 10
-35.2365
 20
77.3235
 11
-36.1912
 21
76.9103
  0
LINE
  8
0
 10
-36.1912
 20
76.9103
 11
-40.9491
 21
74.4861
  0
LINE
  8
0
 10
-40.9491
 20
74.4861
 11
-45.5453
 21
71.7679
  0
LINE
  8
0
 10
-45.5453
 20
71.7679
 11
-49.9617
 21
68.7664
  0
LINE
  8
0
 10
-49.9617
 20
68.7664
 11
-54.181
 21
65.4936
  0
LINE
  8
0
 10
-54.181
 20
65.4936
 11
-58.1865
 21
61.9623
  0
LINE
  8
0
 10
-58.1865
 20
61.9623
 11
-61.9623
 21
58.1865
  0
LINE
  8
0
 10
-61.9623
 20
58.1865
 11
-65.4936
 21
54.181
  0
LINE
  8
0
 10
-65.4936
 20
54.181
 11
-68.7664
 21
49.9617
  0
LINE
  8
0
 10
-68.7664
 20
49.9617
 11
-71.7679
 21
45.5453
  0
LINE
  8
0
 10
-71.7679
 20
45.5453
 11
-74.4861
 21
40.9491
  0
LINE
  8
0
 10
-74.4861
 20
40.9491
 11
-76.9103
 21
36.1912
  0
LINE
  8
0
 10
-76.9103
 20
36.1912
 11
-79.031
 21
31.2906
  0
LINE
  8
0
 10
-79.031
 20
31.2906
 11
-80.8398
 21
26.2664
  0
LINE
  8
0
 10
-80.8398
 20
26.2664
 11
-82.3296
 21
21.1386
  0
LINE
  8
0
 10
-82.3296
 20
21.1386
 11
-83.4944
 21
15.9274
  0
LINE
  8
0
 10
-83.4944
 20
15.9274
 11
-84.3297
 21
10.6533
  0
LINE
  8
0
 10
-84.3297
 20
10.6533
 11
-84.8323
 21
5.33719
  0
LINE
  8
0
 10
-84.8323
 20
5.33719
 11
-85
 21
0
  0
LINE
  8
0
 10
-85
 20
0
 11
-84.8323
 21
-5.33719
  0
LINE
  8
0
 10
-84.8323
 20
-5.33719
 11
-84.3297
 21
-10.6533
  0
LINE
  8
0
 10
-84.3297
 20
-10.6533
 11
-83.4944
 21
-15.9274
  0
LINE
  8
0
 10
-83.4944
 20
-15.9274
 11
-82.3296
 21
-21.1386
  0
LINE
  8
0
 10
-82.3296
 20
-21.1386
 11
-80.8398
 21
-26.2664
  0
LINE
  8
0
 10
-80.8398
 20
-26.2664
 11
-79.031
 21
-31.2906
  0
LINE
  8
0
 10
-79.031
 20
-31.2906
 11
-76.9103
 21
-36.1912
  0
LINE
  8
0
 10
-76.9103
 20
-36.1912
 11
-74.4861
 21
-40.9491
  0
LINE
  8
0
 10
-74.4861
 20
-40.9491
 11
-71.7679
 21
-45.5453
  0
LINE
  8
0
 10
-71.7679
 20
-45.5453
 11
-68.7664
 21
-49.9617
  0
LINE
  8
0
 10
-68.7664
 20
-49.9617
 11
-65.4936
 21
-54.181
  0
LINE
  8
0
 10
-65.4936
 20
-54.181
 11
-61.9623
 21
-58.1865
  0
LINE
  8
0
 10
-61.9623
 20
-58.1865
 11
-58.1865
 21
-61.9623
  0
LINE
  8
0
 10
-58.1865
 20
-61.9623
 11
-54.181
 21
-65.4936
  0
LINE
  8
0
 10
-54.181
 20
-65.4936
 11
-49.9617
 21
-68.7664
  0
LINE
  8
0
 10
-49.9617
 20
-68.7664
 11
-45.5453
 21
-71.7679
  0
LINE
  8
0
 10
-45.5453
 20
-71.7679
 11
-40.9491
 21
-74.4861
  0
LINE
  8
0
 10
-40.9491
 20
-74.4861
 11
-36.1912
 21
-76.9103
  0
LINE
  8
0
 10
-36.1912
 20
-76.9103
 11
-31.2906
 21
-79.031
  0
LINE
  8
0
 10
-31.2906
 20
-79.031
 11
-26.2664
 21
-80.8398
  0
LINE
  8
0
 10
-26.2664
 20
-80.8398
 11
-21.1386
 21
-82.3296
  0
LINE
  8
0
 10
-21.1386
 20
-82.3296
 11
-15.9274
 21
-83.4944
  0
LINE
  8
0
 10
-15.9274
 20
-83.4944
 11
-10.6533
 21
-84.3297
  0
LINE
  8
0
 10
-10.6533
 20
-84.3297
 11
-5.33719
 21
-84.8323
  0
LINE
  8
0
 10
-5.33719
 20
-84.8323
 11
0
 21
-85
  0
LINE
  8
0
 10
0
 20
-85
 11
5.33719
 21
-84.8323
  0
LINE
  8
0
 10
11.0315
 20
92.5013
 11
11.0708
 21
92.7495
  0
LINE
  8
0
 10
11.0708
 20
92.7495
 11
11.1257
 21
92.9948
  0
LINE
  8
0
 10
11.1257
 20
92.9948
 11
11.1958
 21
93.2361
  0
LINE
  8
0
 10
11.1958
 20
93.2361
 11
11.2809
 21
93.4725
  0
LINE
  8
0
 10
11.2809
 20
93.4725
 11
11.3807
 21
93.7031
  0
LINE
  8
0
 10
11.3807
 20
93.7031
 11
11.4948
 21
93.927
  0
LINE
  8
0
 10
11.4948
 20
93.927
 11
11.6227
 21
94.1433
  0
LINE
  8
0
 10
11.6227
 20
94.1433
 11
11.7639
 21
94.3511
  0
LINE
  8
0
 10
11.7639
 20
94.3511
 11
11.9179
 21
94.5497
  0
LINE
  8
0
 10
11.9179
 20
94.5497
 11
12.0841
 21
94.7382
  0
LINE
  8
0
 10
12.0841
 20
94.7382
 11
12.2618
 21
94.9159
  0
LINE
  8
0
 10
12.2618
 20
94.9159
 11
12.4503
 21
95.082
  0
LINE
  8
0
 10
12.4503
 20
95.082
 11
12.6488
 21
95.2361
  0
LINE
  8
0
 10
12.6488
 20
95.2361
 11
12.8567
 21
95.3773
  0
LINE
  8
0
 10
12.8567
 20
95.3773
 11
13.073
 21
95.5052
  0
LINE
  8
0
 10
13.073
 20
95.5052
 11
13.2969
 21
95.6193
  0
LINE
  8
0
 10
13.2969
 20
95.6193
 11
13.5275
 21
95.7191
  0
LINE
  8
0
 10
13.5275
 20
95.7191
 11
13.7639
 21
95.8042
  0
LINE
  8
0
 10
13.7639
 20
95.8042
 11
14.0052
 21
95.8743
  0
LINE
  8
0
 10
14.0052
 20
95.8743
 11
14.2505
 21
95.9291
  0
LINE
  8
0
 10
14.2505
 20
95.9291
 11
14.4987
 21
95.9685
  0
LINE
  8
0
 10
14.4987
 20
95.9685
 11
14.7488
 21
95.9921
  0
LINE
  8
0
 10
14.7488
 20
95.9921
 11
15
 21
96
  0
LINE
  8
0
 10
15
 20
96
 11
15.2512
 21
95.9921
  0
LINE
  8
0
 10
15.2512
 20
95.9921
 11
15.5013
 21
95.9685
  0
LINE
  8
0
 10
15.5013
 20
95.9685
 11
15.7495
 21
95.9291
  0
LINE
  8
0
 10
15.7495
 20
95.9291
 11
15.9948
 21
95.8743
  0
LINE
  8
0
 10
15.9948
 20
95.8743
 11
16.2361
 21
95.8042
  0
LINE
  8
0
 10
16.2361
 20
95.8042
 11
16.4725
 21
95.7191
  0
LINE
  8
0
 10
16.4725
 20
95.7191
 11
16.7031
 21
95.6193
  0
LINE
  8
0
 10
16.7031
 20
95.6193
 11
16.927
 21
95.5052
  0
LINE
  8
0
 10
16.927
 20
95.5052
 11
17.1433
 21
95.3773
  0
LINE
  8
0
 10
17.1433
 20
95.3773
 11
17.3511
 21
95.2361
  0
LINE
  8
0
 10
17.3511
 20
95.2361
 11
17.5497
 21
95.082
  0
LINE
  8
0
 10
17.5497
 20
95.082
 11
17.7382
 21
94.9159
  0
LINE
  8
0
 10
17.7382
 20
94.9159
 11
17.9159
 21
94.7382
  0
LINE
  8
0
 10
17.9159
 20
94.7382
 11
18.082
 21
94.5497
  0
LINE
  8
0
 10
18.082
 20
94.5497
 11
18.2361
 21
94.3511
  0
LINE
  8
0
 10
18.2361
 20
94.3511
 11
18.3773
 21
94.1433
  0
LINE
  8
0
 10
18.3773
 20
94.1433
 11
18.5052
 21
93.927
  0
LINE
  8
0
 10
18.5052
 20
93.927
 11
18.6193
 21
93.7031
  0
LINE
  8
0
 10
18.6193
 20
93.7031
 11
18.7191
 21
93.4725
  0
LINE
  8
0
 10
18.7191
 20
93.4725
 11
18.8042
 21
93.2361
  0
LINE
  8
0
 10
18.8042
 20
93.2361
 11
18.8743
 21
92.9948
  0
LINE
  8
0
 10
18.8743
 20
92.9948
 11
18.9291
 21
92.7495
  0
LINE
  8
0
 10
18.9291
 20
92.7495
 11
18.9684
 21
92.5013
  0
LINE
  8
0
 10
18.9684
 20
92.5013
 11
18.9921
 21
92.2512
  0
LINE
  8
0
 10
18.9921
 20
92.2512
 11
19
 21
92
  0
LINE
  8
0
 10
19
 20
92
 11
18.9921
 21
91.7488
  0
LINE
  8
0
 10
18.9921
 20
91.7488
 11
18.9684
 21
91.4987
  0
LINE
  8
0
 10
18.9684
 20
91.4987
 11
18.9291
 21
91.2505
  0
LINE
  8
0
 10
18.9291
 20
91.2505
 11
18.8743
 21
91.0052
  0
LINE
  8
0
 10
18.8743
 20
91.0052
 11
18.8042
 21
90.7639
  0
LINE
  8
0
 10
18.8042
 20
90.7639
 11
18.7191
 21
90.5275
  0
LINE
  8
0
 10
18.7191
 20
90.5275
 11
18.6193
 21
90.2969
  0
LINE
  8
0
 10
18.6193
 20
90.2969
 11
18.5052
 21
90.073
  0
LINE
  8
0
 10
18.5052
 20
90.073
 11
18.3773
 21
89.8567
  0
LINE
  8
0
 10
18.3773
 20
89.8567
 11
18.2361
 21
89.6488
  0
LINE
  8
0
 10
18.2361
 20
89.6488
 11
18.082
 21
89.4503
  0
LINE
  8
0
 10
18.082
 20
89.4503
 11
17.9159
 21
89.2618
  0
LINE
  8
0
 10
17.9159
 20
89.2618
 11
17.7382
 21
89.0841
  0
LINE
  8
0
 10
17.7382
 20
89.0841
 11
17.5497
 21
88.9179
  0
LINE
  8
0
 10
17.5497
 20
88.9179
 11
17.3511
 21
88.7639
  0
LINE
  8
0
 10
17.3511
 20
88.7639
 11
17.1433
 21
88.6227
  0
LINE
  8
0
 10
17.1433
 20
88.6227
 11
16.927
 21
88.4948
  0
LINE
  8
0
 10
16.927
 20
88.4948
 11
16.7031
 21
88.3807
  0
LINE
  8
0
 10
16.7031
 20
88.3807
 11
16.4725
 21
88.2809
  0
LINE
  8
0
 10
16.4725
 20
88.2809
 11
16.2361
 21
88.1958
  0
LINE
  8
0
 10
16.2361
 20
88.1958
 11
15.9948
 21
88.1257
  0
LINE
  8
0
 10
15.9948
 20
88.1257
 11
15.7495
 21
88.0708
  0
LINE
  8
0
 10
15.7495
 20
88.0708
 11
15.5013
 21
88.0315
  0
LINE
  8
0
 10
15.5013
 20
88.0315
 11
15.2512
 21
88.0079
  0
LINE
  8
0
 10
15.2512
 20
88.0079
 11
15
 21
88
  0
LINE
  8
0
 10
15
 20
88
 11
14.7488
 21
88.0079
  0
LINE
  8
0
 10
14.7488
 20
88.0079
 11
14.4987
 21
88.0315
  0
LINE
  8
0
 10
14.4987
 20
88.0315
 11
14.2505
 21
88.0708
  0
LINE
  8
0
 10
14.2505
 20
88.0708
 11
14.0052
 21
88.1257
  0
LINE
  8
0
 10
14.0052
 20
88.1257
 11
13.7639
 21
88.1958
  0
LINE
  8
0
 10
13.7639
 20
88.1958
 11
13.5275
 21
88.2809
  0
LINE
  8
0
 10
13.5275
 20
88.2809
 11
13.2969
 21
88.3807
  0
LINE
  8
0
 10
13.2969
 20
88.3807
 11
13.073
 21
88.4948
  0
LINE
  8
0
 10
13.073
 20
88.4948
 11
12.8567
 21
88.6227
  0
LINE
  8
0
 10
12.8567
 20
88.6227
 11
12.6488
 21
88.7639
  0
LINE
  8
0
 10
12.6488
 20
88.7639
 11
12.4503
 21
88.9179
  0
LINE
  8
0
 10
12.4503
 20
88.9179
 11
12.2618
 21
89.0841
  0
LINE
  8
0
 10
12.2618
 20
89.0841
 11
12.0841
 21
89.2618
  0
LINE
  8
0
 10
12.0841
 20
89.2618
 11
11.9179
 21
89.4503
  0
LINE
  8
0
 10
11.9179
 20
89.4503
 11
11.7639
 21
89.6488
  0
LINE
  8
0
 10
11.7639
 20
89.6488
 11
11.6227
 21
89.8567
  0
LINE
  8
0
 10
11.6227
 20
89.8567
 11
11.4948
 21
90.073
  0
LINE
  8
0
 10
11.4948
 20
90.073
 11
11.3807
 21
90.2969
  0
LINE
  8
0
 10
11.3807
 20
90.2969
 11
11.2809
 21
90.5275
  0
LINE
  8
0
 10
11.2809
 20
90.5275
 11
11.1958
 21
90.7639
  0
LINE
  8
0
 10
11.1958
 20
90.7639
 11
11.1257
 21
91.0052
  0
LINE
  8
0
 10
11.1257
 20
91.0052
 11
11.0708
 21
91.2505
  0
LINE
  8
0
 10
11.0708
 20
91.2505
 11
11.0315
 21
91.4987
  0
LINE
  8
0
 10
11.0315
 20
91.4987
 11
11.0079
 21
91.7488
  0
LINE
  8
0
 10
11.0079
 20
91.7488
 11
11
 21
92
  0
LINE
  8
0
 10
11
 20
92
 11
11.0079
 21
92.2512
  0
LINE
  8
0
 10
11.0079
 20
92.2512
 11
11.0315
 21
92.5013
  0
LINE
  8
0
 10
-11.0315
 20
91.4987
 11
-11.0708
 21
91.2505
  0
LINE
  8
0
 10
-11.0708
 20
91.2505
 11
-11.1257
 21
91.0052
  0
LINE
  8
0
 10
-11.1257
 20
91.0052
 11
-11.1958
 21
90.7639
  0
LINE
  8
0
 10
-11.1958
 20
90.7639
 11
-11.2809
 21
90.5275
  0
LINE
  8
0
 10
-11.2809
 20
90.5275
 11
-11.3807
 21
90.2969
  0
LINE
  8
0
 10
-11.3807
 20
90.2969
 11
-11.4948
 21
90.073
  0
LINE
  8
0
 10
-11.4948
 20
90.073
 11
-11.6227
 21
89.8567
  0
LINE
  8
0
 10
-11.6227
 20
89.8567
 11
-11.7639
 21
89.6488
  0
LINE
  8
0
 10
-11.7639
 20
89.6488
 11
-11.9179
 21
89.4503
  0
LINE
  8
0
 10
-11.9179
 20
89.4503
 11
-12.0841
 21
89.2618
  0
LINE
  8
0
 10
-12.0841
 20
89.2618
 11
-12.2618
 21
89.0841
  0
LINE
  8
0
 10
-12.2618
 20
89.0841
 11
-12.4503
 21
88.9179
  0
LINE
  8
0
 10
-12.4503
 20
88.9179
 11
-12.6488
 21
88.7639
  0
LINE
  8
0
 10
-12.6488
 20
88.7639
 11
-12.8567
 21
88.6227
  0
LINE
  8
0
 10
-12.8567
 20
88.6227
 11
-13.073
 21
88.4948
  0
LINE
  8
0
 10
-13.073
 20
88.4948
 11
-13.2969
 21
88.3807
  0
LINE
  8
0
 10
-13.2969
 20
88.3807
 11
-13.5275
 21
88.2809
  0
LINE
  8
0
 10
-13.5275
 20
88.2809
 11
-13.7639
 21
88.1958
  0
LINE
  8
0
 10
-13.7639
 20
88.1958
 11
-14.0052
 21
88.1257
  0
LINE
  8
0
 10
-14.0052
 20
88.1257
 11
-14.2505
 21
88.0708
  0
LINE
  8
0
 10
-14.2505
 20
88.0708
 11
-14.4987
 21
88.0315
  0
LINE
  8
0
 10
-14.4987
 20
88.0315
 11
-14.7488
 21
88.0079
  0
LINE
  8
0
 10
-14.7488
 20
88.0079
 11
-15
 21
88
  0
LINE
  8
0
 10
-15
 20
88
 11
-15.2512
 21
88.0079
  0
LINE
  8
0
 10
-15.2512
 20
88.0079
 11
-15.5013
 21
88.0315
  0
LINE
  8
0
 10
-15.5013
 20
88.0315
 11
-15.7495
 21
88.0708
  0
LINE
  8
0
 10
-15.7495
 20
88.0708
 11
-15.9948
 21
88.1257
  0
LINE
  8
0
 10
-15.9948
 20
88.1257
 11
-16.2361
 21
88.1958
  0
LINE
  8
0
 10
-16.2361
 20
88.1958
 11
-16.4725
 21
88.2809
  0
LINE
  8
0
 10
-16.4725
 20
88.2809
 11
-16.7031
 21
88.3807
  0
LINE
  8
0
 10
-16.7031
 20
88.3807
 11
-16.927
 21
88.4948
  0
LINE
  8
0
 10
-16.927
 20
88.4948
 11
-17.1433
 21
88.6227
  0
LINE
  8
0
 10
-17.1433
 20
88.6227
 11
-17.3511
 21
88.7639
  0
LINE
  8
0
 10
-17.3511
 20
88.7639
 11
-17.5497
 21
88.9179
  0
LINE
  8
0
 10
-17.5497
 20
88.9179
 11
-17.7382
 21
89.0841
  0
LINE
  8
0
 10
-17.7382
 20
89.0841
 11
-17.9159
 21
89.2618
  0
LINE
  8
0
 10
-17.9159
 20
89.2618
 11
-18.082
 21
89.4503
  0
LINE
  8
0
 10
-18.082
 20
89.4503
 11
-18.2361
 21
89.6488
  0
LINE
  8
0
 10
-18.2361
 20
89.6488
 11
-18.3773
 21
89.8567
  0
LINE
  8
0
 10
-18.3773
 20
89.8567
 11
-18.5052
 21
90.073
  0
LINE
  8
0
 10
-18.5052
 20
90.073
 11
-18.6193
 21
90.2969
  0
LINE
  8
0
 10
-18.6193
 20
90.2969
 11
-18.7191
 21
90.5275
  0
LINE
  8
0
 10
-18.7191
 20
90.5275
 11
-18.8042
 21
90.7639
  0
LINE
  8
0
 10
-18.8042
 20
90.7639
 11
-18.8743
 21
91.0052
  0
LINE
  8
0
 10
-18.8743
 20
91.0052
 11
-18.9291
 21
91.2505
  0
LINE
  8
0
 10
-18.9291
 20
91.2505
 11
-18.9684
 21
91.4987
  0
LINE
  8
0
 10
-18.9684
 20
91.4987
 11
-18.9921
 21
91.7488
  0
LINE
  8
0
 10
-18.9921
 20
91.7488
 11
-19
 21
92
  0
LINE
  8
0
 10
-19
 20
92
 11
-18.9921
 21
92.2512
  0
LINE
  8
0
 10
-18.9921
 20
92.2512
 11
-18.9684
 21
92.5013
  0
LINE
  8
0
 10
-18.9684
 20
92.5013
 11
-18.9291
 21
92.7495
  0
LINE
  8
0
 10
-18.9291
 20
92.7495
 11
-18.8743
 21
92.9948
  0
LINE
  8
0
 10
-18.8743
 20
92.9948
 11
-18.8042
 21
93.2361
  0
LINE
  8
0
 10
-18.8042
 20
93.2361
 11
-18.7191
 21
93.4725
  0
LINE
  8
0
 10
-18.7191
 20
93.4725
 11
-18.6193
 21
93.7031
  0
LINE
  8
0
 10
-18.6193
 20
93.7031
 11
-18.5052
 21
93.927
  0
LINE
  8
0
 10
-18.5052
 20
93.927
 11
-18.3773
 21
94.1433
  0
LINE
  8
0
 10
-18.3773
 20
94.1433
 11
-18.2361
 21
94.3511
  0
LINE
  8
0
 10
-18.2361
 20
94.3511
 11
-18.082
 21
94.5497
  0
LINE
  8
0
 10
-18.082
 20
94.5497
 11
-17.9159
 21
94.7382
  0
LINE
  8
0
 10
-17.9159
 20
94.7382
 11
-17.7382
 21
94.9159
  0
LINE
  8
0
 10
-17.7382
 20
94.9159
 11
-17.5497
 21
95.082
  0
LINE
  8
0
 10
-17.5497
 20
95.082
 11
-17.3511
 21
95.2361
  0
LINE
  8
0
 10
-17.3511
 20
95.2361
 11
-17.1433
 21
95.3773
  0
LINE
  8
0
 10
-17.1433
 20
95.3773
 11
-16.927
 21
95.5052
  0
LINE
  8
0
 10
-16.927
 20
95.5052
 11
-16.7031
 21
95.6193
  0
LINE
  8
0
 10
-16.7031
 20
95.6193
 11
-16.4725
 21
95.7191
  0
LINE
  8
0
 10
-16.4725
 20
95.7191
 11
-16.2361
 21
95.8042
  0
LINE
  8
0
 10
-16.2361
 20
95.8042
 11
-15.9948
 21
95.8743
  0
LINE
  8
0
 10
-15.9948
 20
95.8743
 11
-15.7495
 21
95.9291
  0
LINE
  8
0
 10
-15.7495
 20
95.9291
 11
-15.5013
 21
95.9685
  0
LINE
  8
0
 10
-15.5013
 20
95.9685
 11
-15.2512
 21
95.9921
  0
LINE
  8
0
 10
-15.2512
 20
95.9921
 11
-15
 21
96
  0
LINE
  8
0
 10
-15
 20
96
 11
-14.7488
 21
95.9921
  0
LINE
  8
0
 10
-14.7488
 20
95.9921
 11
-14.4987
 21
95.9685
  0
LINE
  8
0
 10
-14.4987
 20
95.9685
 11
-14.2505
 21
95.9291
  0
LINE
  8
0
 10
-14.2505
 20
95.9291
 11
-14.0052
 21
95.8743
  0
LINE
  8
0
 10
-14.0052
 20
95.8743
 11
-13.7639
 21
95.8042
  0
LINE
  8
0
 10
-13.7639
 20
95.8042
 11
-13.5275
 21
95.7191
  0
LINE
  8
0
 10
-13.5275
 20
95.7191
 11
-13.2969
 21
95.6193
  0
LINE
  8
0
 10
-13.2969
 20
95.6193
 11
-13.073
 21
95.5052
  0
LINE
  8
0
 10
-13.073
 20
95.5052
 11
-12.8567
 21
95.3773
  0
LINE
  8
0
 10
-12.8567
 20
95.3773
 11
-12.6488
 21
95.2361
  0
LINE
  8
0
 10
-12.6488
 20
95.2361
 11
-12.4503
 21
95.082
  0
LINE
  8
0
 10
-12.4503
 20
95.082
 11
-12.2618
 21
94.9159
  0
LINE
  8
0
 10
-12.2618
 20
94.9159
 11
-12.0841
 21
94.7382
  0
LINE
  8
0
 10
-12.0841
 20
94.7382
 11
-11.9179
 21
94.5497
  0
LINE
  8
0
 10
-11.9179
 20
94.5497
 11
-11.7639
 21
94.3511
  0
LINE
  8
0
 10
-11.7639
 20
94.3511
 11
-11.6227
 21
94.1433
  0
LINE
  8
0
 10
-11.6227
 20
94.1433
 11
-11.4948
 21
93.927
  0
LINE
  8
0
 10
-11.4948
 20
93.927
 11
-11.3807
 21
93.7031
  0
LINE
  8
0
 10
-11.3807
 20
93.7031
 11
-11.2809
 21
93.4725
  0
LINE
  8
0
 10
-11.2809
 20
93.4725
 11
-11.1958
 21
93.2361
  0
LINE
  8
0
 10
-11.1958
 20
93.2361
 11
-11.1257
 21
92.9948
  0
LINE
  8
0
 10
-11.1257
 20
92.9948
 11
-11.0708
 21
92.7495
  0
LINE
  8
0
 10
-11.0708
 20
92.7495
 11
-11.0315
 21
92.5013
  0
LINE
  8
0
 10
-11.0315
 20
92.5013
 11
-11.0079
 21
92.2512
  0
LINE
  8
0
 10
-11.0079
 20
92.2512
 11
-11
 21
92
  0
LINE
  8
0
 10
-11
 20
92
 11
-11.0079
 21
91.7488
  0
LINE
  8
0
 10
-11.0079
 20
91.7488
 11
-11.0315
 21
91.4987
  0
ENDSEC
  0
SECTION
  2
OBJECTS
  0
DICTIONARY
  0
ENDSEC
  0
EOF
