<?xml version="1.0" encoding="UTF-8" standalone="no"?>
<!-- Created with Inkscape (http://www.inkscape.org/) -->

<svg
   xmlns:dc="http://purl.org/dc/elements/1.1/"
   xmlns:cc="http://creativecommons.org/ns#"
   xmlns:rdf="http://www.w3.org/1999/02/22-rdf-syntax-ns#"
   xmlns:svg="http://www.w3.org/2000/svg"
   xmlns="http://www.w3.org/2000/svg"
   xmlns:sodipodi="http://sodipodi.sourceforge.net/DTD/sodipodi-0.dtd"
   xmlns:inkscape="http://www.inkscape.org/namespaces/inkscape"
   width="60mm"
   height="30mm"
   viewBox="0 0 60 30"
   version="1.1"
   id="svg8"
   inkscape:version="0.92.4 (5da689c313, 2019-01-14)"
   sodipodi:docname="ryba.svg">
  <defs
     id="defs2" />
  <sodipodi:namedview
     id="base"
     pagecolor="#ffffff"
     bordercolor="#666666"
     borderopacity="1.0"
     inkscape:pageopacity="0.0"
     inkscape:pageshadow="2"
     inkscape:zoom="3.959798"
     inkscape:cx="130.62072"
     inkscape:cy="36.447221"
     inkscape:document-units="mm"
     inkscape:current-layer="layer1"
     showgrid="false"
     inkscape:window-width="1920"
     inkscape:window-height="1009"
     inkscape:window-x="1912"
     inkscape:window-y="-8"
     inkscape:window-maximized="1" />
  <metadata
     id="metadata5">
    <rdf:RDF>
      <cc:Work
         rdf:about="">
        <dc:format>image/svg+xml</dc:format>
        <dc:type
           rdf:resource="http://purl.org/dc/dcmitype/StillImage" />
        <dc:title></dc:title>
      </cc:Work>
    </rdf:RDF>
  </metadata>
  <g
     inkscape:label="Layer 1"
     inkscape:groupmode="layer"
     id="layer1"
     transform="translate(0,-267)">
    <path
       style="fill:#000000;stroke-width:0.140229"
       d="m 23.114883,271.51655 c -0.737692,0 -0.954094,0.058 -1.298487,0.34783 -0.227294,0.19125 -0.480207,0.52255 -0.562013,0.73621 -0.0818,0.21365 -0.253264,1.74009 -0.381247,3.39233 -0.127989,1.65225 -0.282968,3.13516 -0.344273,3.29539 -0.0613,0.16021 -0.246313,0.413 -0.411101,0.56146 -0.286149,0.25778 -0.322043,0.25924 -0.796184,0.0331 -0.664769,-0.31701 -0.968591,-1.0387 -1.463912,-3.47533 -0.672743,-3.30941 -0.999438,-3.62854 -3.712784,-3.6287 -2.539791,-1.4e-4 -4.134607,0.46511 -6.5688503,1.91555 -1.5365131,0.91553 -2.1055978,1.3569 -3.4057576,2.64162 -1.7567313,1.73587 -2.2474798,2.44305 -3.1702173,4.5684 -1.03563452,2.3854 -1.21887043,4.09103 -0.51928472,4.83571 0.62245412,0.66257 1.98799972,0.35657 3.79001672,-0.84958 1.4616437,-0.97837 1.9817376,-1.10728 4.0921128,-1.01421 1.9796934,0.0873 3.0235654,0.38469 4.4111874,1.25686 1.957398,1.23029 2.811051,3.35619 2.147805,5.34924 -0.268695,0.80743 -0.356398,0.92121 -0.956954,1.24124 -0.363649,0.19379 -0.832752,0.3926 -1.042131,0.44179 -0.317253,0.0745 -1.892898,-0.20358 -3.1441966,-0.5549 -0.2827646,-0.0794 -0.2956378,-0.0457 -0.2281471,0.59433 0.090716,0.86026 0.9187747,2.02233 1.7391697,2.44086 0.857487,0.43747 2.397791,0.71434 4.047194,0.72717 1.831154,0.0142 2.664284,-0.2336 3.470668,-1.032 1.044339,-1.034 1.064948,-1.13744 0.948464,-4.79271 -0.111133,-3.48717 -0.116261,-3.45986 0.640616,-3.4641 0.236062,-0.001 0.417379,0.1076 0.521202,0.31334 0.08755,0.17353 0.478367,1.94275 0.868763,3.93161 0.390396,1.98887 0.838278,3.95948 0.995297,4.37915 0.259447,0.69343 0.33746,0.77693 0.853425,0.91587 0.569537,0.15336 1.514522,0.0731 1.97334,-0.1679 0.49372,-0.2593 0.310835,-2.03072 -0.610763,-5.91181 -0.307829,-1.29634 -0.520749,-2.47915 -0.473272,-2.62873 0.1091,-0.34375 0.68665,-0.49529 1.125665,-0.29526 0.417682,0.19032 0.501234,0.39119 1.894736,4.55964 0.622509,1.86215 1.294529,3.62313 1.493494,3.91327 0.264664,0.38595 0.535069,0.58067 1.007621,0.72525 0.355226,0.10869 0.740476,0.17587 0.856163,0.14952 1.691542,-0.38519 1.785074,-0.73319 0.928197,-3.45916 -1.288064,-4.09769 -1.637357,-5.44848 -1.483361,-5.73624 0.186857,-0.34916 1.007977,-0.36118 1.663576,-0.0244 0.445131,0.22869 0.559251,0.45276 1.697265,3.33018 0.671068,1.69677 1.379059,3.54439 1.573193,4.10581 0.415095,1.20039 0.681904,1.53674 1.312731,1.65507 0.559435,0.10501 1.599893,-0.25748 1.98813,-0.69264 0.581429,-0.65171 0.643366,-1.09337 0.325101,-2.32117 -0.16139,-0.62263 -0.553765,-1.77951 -0.87205,-2.57069 -1.166528,-2.89967 -0.790269,-4.53557 0.848495,-3.68813 0.454994,0.23528 0.666069,0.71417 1.627972,3.69361 0.736608,2.2816 1.419714,3.56199 2.036332,3.8174 0.49097,0.20336 1.493857,0.0847 2.312408,-0.2736 0.443701,-0.1942 0.600161,-0.35946 0.724699,-0.76525 0.174264,-0.5678 0.174843,-0.56474 -0.577348,-2.7172 -0.722209,-2.06667 -0.68516,-2.97767 0.120789,-2.97767 1.269269,0 3.028687,0.98939 4.45583,2.50576 1.097758,1.16638 2.627445,3.44223 3.122836,4.64591 0.206324,0.50132 0.51193,1.02062 0.678959,1.15388 0.340819,0.2719 1.359246,0.3313 1.783812,0.10405 0.517868,-0.27714 0.887177,-1.40321 0.575706,-1.75559 -0.06477,-0.0732 -0.200657,-0.35424 -0.301818,-0.62418 -0.10115,-0.26995 -0.719888,-1.62023 -1.374904,-3.00069 -1.032158,-2.17526 -1.199604,-2.63334 -1.255763,-3.43561 -0.06086,-0.86952 -0.03618,-0.96783 0.405899,-1.62003 0.258851,-0.38188 1.417081,-1.5754 2.573968,-2.65229 4.414689,-4.10948 4.136756,-3.82041 4.136756,-4.30383 0,-0.58558 -0.531038,-1.51189 -1.00817,-1.75862 -0.21986,-0.11374 -0.793998,-0.19664 -1.361483,-0.19664 -0.971292,0 -0.989843,0.007 -1.821057,0.69895 -0.461868,0.38437 -1.079831,0.98607 -1.373259,1.3371 -0.702176,0.84004 -4.149251,3.72578 -4.953208,4.14661 -0.885329,0.46344 -2.866062,0.47035 -3.746195,0.0136 -1.257656,-0.6533 -1.175499,-1.43848 0.395763,-3.77743 1.496105,-2.22704 1.425313,-2.55841 -0.700048,-3.2699 -0.432957,-0.14493 -1.016602,-0.26464 -1.296845,-0.26676 -0.6514,-0.004 -1.066295,0.44235 -2.756923,2.96836 -0.687669,1.02747 -1.353414,1.95354 -1.479252,2.05797 -0.28073,0.23298 -0.837798,0.11401 -1.210297,-0.25854 -0.26615,-0.26616 -0.262797,-0.29076 0.267585,-1.85447 0.295633,-0.87161 0.80225,-2.26348 1.125667,-3.09326 0.639916,-1.64186 0.65764,-2.08764 0.103251,-2.59424 -0.835549,-0.7635 -2.226212,-0.99057 -2.765143,-0.45164 -0.155846,0.15585 -0.90342,1.5599 -1.661383,3.1201 -0.757969,1.56021 -1.551075,3.04172 -1.762449,3.29237 -0.35369,0.41944 -0.450455,0.45575 -1.21331,0.45575 -0.865647,0 -1.389964,-0.29357 -1.389966,-0.77838 2e-6,-0.31282 0.918812,-3.90637 1.253024,-4.9009 0.344632,-1.02553 0.356817,-1.37948 0.06354,-1.82709 -0.427391,-0.65228 -2.707159,-1.03904 -3.202809,-0.5434 -0.37339,0.3734 -0.564657,0.85305 -1.531838,3.84289 -0.511457,1.58108 -1.052871,3.07629 -1.203175,3.32278 -0.520936,0.85424 -1.826584,0.72497 -2.062351,-0.20432 -0.05357,-0.21112 -0.02515,-1.58295 0.06326,-3.04835 0.23273,-3.85771 0.07719,-4.27698 -1.58771,-4.27698 z m -10.846659,4.92308 c 0.879379,0.008 1.741771,0.64857 1.885149,1.60468 0.114269,0.76201 -0.147604,1.50007 -0.668827,1.88543 -0.219522,0.1623 -0.697087,0.32929 -1.061303,0.37111 -0.544923,0.0626 -0.749179,0.0172 -1.153056,-0.25744 -1.221477,-0.83069 -1.22144,-2.46958 0,-3.30333 0.307283,-0.20974 0.653933,-0.30354 0.998037,-0.30045 z"
       id="path21"
       inkscape:connector-curvature="0" />
  </g>
</svg>
